<svg width="156" height="35" viewBox="0 0 156 35" fill="none" xmlns="http://www.w3.org/2000/svg">
<path d="M3.744 23.582H7.362L6.84 21.8C6.39 20.36 5.994 18.884 5.58 17.39H5.508C5.13 18.902 4.716 20.36 4.284 21.8L3.744 23.582ZM8.982 29L7.866 25.22H3.258L2.124 29H0L4.392 15.752H6.804L11.196 29H8.982ZM30.2936 29.234C28.4756 29.234 26.7836 28.514 25.5776 27.29L26.8016 25.85C27.7556 26.804 29.0516 27.416 30.3296 27.416C31.9316 27.416 32.8316 26.66 32.8316 25.544C32.8316 24.338 31.9316 23.96 30.7076 23.42L28.8716 22.628C27.5936 22.088 26.1716 21.08 26.1716 19.154C26.1716 17.066 28.0076 15.5 30.5276 15.5C32.0756 15.5 33.5336 16.148 34.5416 17.174L33.4436 18.506C32.6156 17.768 31.6976 17.318 30.5276 17.318C29.1776 17.318 28.2956 17.966 28.2956 19.028C28.2956 20.162 29.3576 20.594 30.4376 21.026L32.2556 21.8C33.8216 22.466 34.9556 23.438 34.9556 25.382C34.9556 27.506 33.1916 29.234 30.2936 29.234ZM77.2889 19.442V22.106H84.9929V19.442H77.2889ZM82.0589 26.876H88.5209V28.406H73.7969V26.876H80.2049V23.6H75.4529V15.212H77.2889V17.948H84.9929V15.212H86.8289V23.6H82.0589V26.876ZM99.8235 15.698V17.174H90.3915V15.698H94.1715V13.97H96.0435V15.698H99.8235ZM93.0555 20.792C93.0555 21.728 93.9015 22.322 95.1075 22.322C96.3135 22.322 97.1595 21.728 97.1595 20.792C97.1595 19.874 96.3135 19.28 95.1075 19.28C93.9015 19.28 93.0555 19.874 93.0555 20.792ZM98.9235 20.792C98.9235 22.538 97.3395 23.708 95.1075 23.708C92.8755 23.708 91.2915 22.538 91.2915 20.792C91.2915 19.064 92.8755 17.876 95.1075 17.876C97.3395 17.876 98.9235 19.064 98.9235 20.792ZM94.9635 26.21V28.712H102.002V26.21H94.9635ZM93.1455 30.188V24.752H103.82V30.188H93.1455ZM101.966 14.114H103.82V23.96H101.966V20.504H99.5535V18.974H101.966V14.114ZM121.008 21.818L120.234 23.366C117.57 22.844 115.266 21.224 114.222 19.064C113.142 21.224 110.838 22.844 108.192 23.366L107.4 21.818C110.622 21.278 113.232 18.848 113.232 16.346V15.122H115.194V16.346C115.194 18.866 117.804 21.278 121.008 21.818ZM115.122 26.84H121.638V28.37H106.914V26.84H113.268V23.042H115.122V26.84ZM134.975 14.114H136.847V30.422H134.975V14.114ZM124.337 15.464H126.173V19.604H130.295V15.464H132.149V26.552H124.337V15.464ZM126.173 21.08V25.058H130.295V21.08H126.173ZM145.719 17.282V18.848C145.719 21.368 147.321 24.248 149.787 25.418L148.761 26.876C146.943 26.012 145.557 24.212 144.819 22.16C144.099 24.428 142.659 26.372 140.787 27.29L139.725 25.814C142.209 24.626 143.865 21.548 143.865 18.848V17.282H140.319V15.752H149.157V17.282H145.719ZM155.151 20.54V22.07H152.613V30.386H150.759V14.132H152.613V20.54H155.151Z" fill="white"/>
<path d="M17.9833 29.234C14.5813 29.234 12.2233 26.588 12.2233 22.322C12.2233 18.056 14.5813 15.5 17.9833 15.5C21.3853 15.5 23.7613 18.056 23.7613 22.322C23.7613 26.588 21.3853 29.234 17.9833 29.234ZM17.9833 27.416C20.1793 27.416 21.6193 25.436 21.6193 22.322C21.6193 19.208 20.1793 17.318 17.9833 17.318C15.7873 17.318 14.3653 19.208 14.3653 22.322C14.3653 25.436 15.7873 27.416 17.9833 27.416ZM38.6348 18.308C38.6348 19.604 39.6788 20.468 41.1188 20.468C42.5408 20.468 43.5668 19.604 43.5668 18.308C43.5668 17.012 42.5408 16.166 41.1188 16.166C39.6788 16.166 38.6348 17.012 38.6348 18.308ZM45.3668 18.308C45.3668 20.45 43.5668 21.962 41.1188 21.962C38.6528 21.962 36.8348 20.45 36.8348 18.308C36.8348 16.166 38.6528 14.654 41.1188 14.654C43.5668 14.654 45.3668 16.166 45.3668 18.308ZM40.6868 27.236V28.712H49.8668V30.188H38.8688V25.886H47.4908V24.5H38.8328V23.042H49.3268V27.236H40.6868ZM49.3268 17.462H51.6128V18.992H49.3268V22.34H47.4728V14.114H49.3268V17.462ZM56.7953 17.264V24.932C57.5153 24.914 58.2713 24.878 59.0093 24.842V17.264H56.7953ZM60.8093 17.264V24.752C61.5653 24.68 62.3213 24.608 63.0413 24.518L63.1493 25.886C59.7833 26.444 56.0213 26.498 53.1953 26.498L52.9973 24.968C53.6093 24.968 54.2933 24.968 54.9953 24.968V17.264H53.4113V15.77H62.3933V17.264H60.8093ZM68.3153 20.486V22.016H65.7773V30.404H63.9233V14.132H65.7773V20.486H68.3153Z" fill="#62D1FF"/>
<mask id="mask0_172_5117" style="mask-type:luminance" maskUnits="userSpaceOnUse" x="1" y="0" width="58" height="11">
<path d="M59 0H1V10.3849H59V0Z" fill="white"/>
</mask>
<g mask="url(#mask0_172_5117)">
<path d="M16.9235 8.79883L17.5896 9.461C17.6715 9.54912 17.7658 9.62489 17.8694 9.68594C17.9416 9.72322 18.0204 9.74578 18.1014 9.7523V9.80179H17.2418V9.7523C17.2811 9.75587 17.3205 9.74681 17.3543 9.72643C17.3642 9.7202 17.3724 9.71169 17.3783 9.70161C17.3843 9.69153 17.3877 9.68018 17.3883 9.66851C17.3888 9.65914 17.3888 9.64976 17.3883 9.64039C17.3872 9.6304 17.3838 9.6208 17.3785 9.61227C17.3701 9.59907 17.3607 9.58656 17.3504 9.57488C17.3374 9.55969 17.3186 9.54057 17.2941 9.51639L16.6677 8.89865V9.48097C16.6677 9.5237 16.6677 9.55829 16.6705 9.585C16.6712 9.60705 16.6745 9.62894 16.6803 9.65023C16.6841 9.66535 16.6917 9.67928 16.7022 9.69072C16.7137 9.70195 16.7268 9.71143 16.741 9.71884C16.7781 9.73969 16.82 9.75063 16.8625 9.75061H16.9235V9.8001H16.1531V9.75061H16.2169C16.2473 9.75361 16.2779 9.74925 16.3062 9.73789C16.3345 9.72654 16.3596 9.70852 16.3795 9.68538C16.408 9.62098 16.4191 9.55017 16.4115 9.48012V8.31381C16.4115 8.27276 16.4115 8.2393 16.4098 8.21258C16.4092 8.19023 16.4058 8.16804 16.3997 8.14651C16.3954 8.13115 16.388 8.11686 16.3778 8.10461C16.3668 8.09317 16.354 8.08366 16.3398 8.07649C16.3023 8.05561 16.2601 8.04468 16.2172 8.04472H16.1531V7.99523H16.9235V8.04472H16.8625C16.8449 8.04459 16.8273 8.04619 16.8099 8.0495C16.7919 8.05302 16.7743 8.05868 16.7576 8.06637C16.7414 8.07344 16.7263 8.08292 16.7129 8.09449C16.7001 8.10633 16.6904 8.12122 16.6848 8.13779C16.6713 8.19533 16.666 8.2545 16.6691 8.31353V8.8666C16.7034 8.83848 16.743 8.80361 16.7874 8.76256C16.8319 8.72151 16.8777 8.67821 16.9244 8.6335C16.971 8.5888 17.0172 8.5424 17.0627 8.49741C17.1083 8.45243 17.1502 8.40997 17.1873 8.37145C17.2244 8.33293 17.2559 8.29919 17.2815 8.27051C17.3071 8.24183 17.3231 8.22327 17.3301 8.21427C17.3511 8.18737 17.3637 8.15491 17.3664 8.12092C17.3661 8.11038 17.3634 8.10004 17.3585 8.09068C17.3537 8.08133 17.3467 8.07321 17.3383 8.06693C17.3102 8.04855 17.2766 8.04032 17.2432 8.0436H17.2016V7.99411H17.8655V8.0436C17.8294 8.04456 17.7937 8.04985 17.7589 8.05934C17.7407 8.06554 17.7229 8.07267 17.7055 8.08071C17.6831 8.09125 17.6615 8.10338 17.6408 8.11698C17.6175 8.13217 17.5916 8.15044 17.5635 8.17322C17.5354 8.19599 17.5047 8.2213 17.4713 8.25223L16.9235 8.79883Z" fill="white"/>
<path d="M18.761 8.54465C18.8428 8.54374 18.9237 8.56093 18.998 8.59498C19.0683 8.62782 19.1316 8.67404 19.1842 8.73107C19.2367 8.7891 19.2779 8.85643 19.3056 8.92958C19.3345 9.00585 19.3492 9.08675 19.3489 9.1683C19.3491 9.25463 19.334 9.3403 19.3042 9.42136C19.2757 9.49949 19.2335 9.57187 19.1794 9.63505C19.1265 9.69689 19.0617 9.74739 18.9888 9.78351C18.9136 9.82117 18.8305 9.84044 18.7464 9.83975C18.6649 9.84084 18.5843 9.82253 18.5113 9.78632C18.4417 9.75236 18.3798 9.70452 18.3294 9.64573C18.2782 9.58584 18.2384 9.51702 18.2121 9.44273C18.1845 9.36667 18.1704 9.28634 18.1705 9.20541C18.1705 9.12275 18.185 9.04071 18.2133 8.96304C18.2407 8.88605 18.2814 8.81448 18.3336 8.7516C18.3854 8.69034 18.4487 8.63989 18.52 8.60314C18.5947 8.56535 18.6773 8.54607 18.761 8.5469M18.7194 8.6335C18.6806 8.6333 18.6422 8.64166 18.6069 8.65796C18.5688 8.67616 18.5358 8.70362 18.511 8.73782C18.4799 8.78084 18.457 8.82928 18.4436 8.88066C18.4252 8.94989 18.4167 9.02135 18.4182 9.09294C18.4182 9.17641 18.4276 9.25961 18.4464 9.34094C18.4624 9.41363 18.4884 9.48374 18.5237 9.54929C18.5535 9.6051 18.5949 9.6539 18.6452 9.69241C18.6909 9.7274 18.747 9.74619 18.8046 9.74583C18.8452 9.74619 18.8853 9.73785 18.9224 9.72137C18.9603 9.70331 18.9928 9.67557 19.0166 9.64095C19.0465 9.59675 19.0677 9.54721 19.079 9.49502C19.0955 9.42217 19.1032 9.34759 19.1018 9.2729C19.1023 9.18956 19.0939 9.10641 19.0765 9.0249C19.0621 8.95397 19.0372 8.88556 19.0028 8.82189C18.9736 8.76742 18.9326 8.72016 18.8828 8.68355C18.8354 8.65017 18.7787 8.63255 18.7208 8.63322" fill="white"/>
<path d="M19.8854 8.54462V8.81905C19.9885 8.6361 20.0934 8.54462 20.2001 8.54462C20.2443 8.54427 20.2871 8.56018 20.3204 8.58933C20.3356 8.60244 20.3479 8.61851 20.3567 8.63657C20.365 8.65414 20.3692 8.67336 20.369 8.6928C20.3697 8.72561 20.3574 8.75736 20.3347 8.78109C20.324 8.79263 20.3109 8.80177 20.2964 8.80792C20.2818 8.81407 20.2662 8.8171 20.2504 8.8168C20.2327 8.81606 20.2154 8.81104 20.2001 8.80218C20.1812 8.7929 20.1629 8.78222 20.1438 8.77097C20.1247 8.75972 20.109 8.7496 20.0938 8.73976C20.0836 8.73196 20.0716 8.72692 20.0589 8.72514C20.0448 8.72622 20.0314 8.73173 20.0207 8.74088C20.0041 8.75297 19.9893 8.76726 19.9765 8.78334C19.9596 8.80413 19.9439 8.82591 19.9296 8.84857C19.9138 8.87388 19.8984 8.90172 19.8832 8.93293V9.51468C19.8829 9.5477 19.8852 9.58069 19.8899 9.61337C19.8931 9.64029 19.9028 9.66604 19.918 9.68844C19.9346 9.71013 19.957 9.72654 19.9827 9.73568C20.0189 9.74773 20.057 9.75334 20.0952 9.75227V9.80007H19.4738V9.75227C19.5059 9.75285 19.5381 9.75011 19.5697 9.74412C19.5922 9.74008 19.6128 9.72883 19.6284 9.71206C19.6437 9.6922 19.6534 9.66861 19.6565 9.64374C19.6626 9.60458 19.6654 9.56498 19.6647 9.52536V9.05383C19.6677 8.96937 19.6646 8.8848 19.6554 8.80077C19.6535 8.77875 19.6432 8.75832 19.6266 8.74371C19.61 8.7291 19.5884 8.72145 19.5663 8.72233C19.5342 8.72326 19.5026 8.73003 19.4729 8.74229L19.4594 8.69449L19.8289 8.5449L19.8854 8.54462Z" fill="white"/>
<path d="M20.6426 9.04036C20.6415 9.12313 20.6537 9.20555 20.6789 9.28442C20.6997 9.35093 20.7327 9.413 20.7762 9.46746C20.8138 9.51576 20.8619 9.55497 20.9168 9.58218C20.9692 9.60811 21.027 9.62158 21.0855 9.62155C21.1602 9.6232 21.2335 9.60017 21.2938 9.55603C21.3633 9.49634 21.4147 9.41843 21.4423 9.33109L21.4839 9.35921C21.4736 9.42017 21.4547 9.47935 21.4277 9.53494C21.4007 9.59179 21.3651 9.64407 21.3219 9.68987C21.2787 9.7352 21.2277 9.77235 21.1712 9.79953C21.113 9.82779 21.049 9.84213 20.9842 9.84142C20.9131 9.8419 20.8427 9.82664 20.7781 9.79672C20.7137 9.76694 20.6562 9.72392 20.6094 9.67047C20.5587 9.612 20.5195 9.54445 20.4939 9.4714C20.4646 9.38737 20.4502 9.29888 20.4514 9.2099C20.4499 9.11441 20.4645 9.01933 20.4947 8.92873C20.5205 8.85218 20.561 8.7814 20.6139 8.72038C20.6633 8.66434 20.7246 8.62013 20.7933 8.59104C20.8635 8.56132 20.939 8.5463 21.0152 8.54689C21.0794 8.54634 21.1431 8.55828 21.2027 8.58204C21.2587 8.60493 21.3093 8.63932 21.3512 8.68298C21.394 8.7281 21.4272 8.78136 21.449 8.8396C21.4736 8.90491 21.4857 8.97424 21.4847 9.04401L20.6426 9.04036ZM20.6426 8.96303H21.2075C21.2078 8.9068 21.1983 8.85095 21.1794 8.79798C21.1586 8.7499 21.1239 8.70909 21.0798 8.68073C21.0391 8.65323 20.9912 8.63836 20.9421 8.63799C20.9058 8.63798 20.8699 8.64555 20.8366 8.66021C20.802 8.67511 20.7707 8.69681 20.7447 8.72403C20.7161 8.75372 20.6929 8.78816 20.6761 8.82582C20.657 8.86938 20.6455 8.91588 20.6421 8.96331" fill="white"/>
<path d="M22.3407 9.62546C22.2668 9.68813 22.1879 9.74456 22.1047 9.79417C22.0569 9.81665 22.0046 9.82809 21.9518 9.82763C21.9119 9.82803 21.8724 9.82028 21.8357 9.80485C21.8008 9.79002 21.7696 9.76776 21.7443 9.73962C21.7178 9.71089 21.6972 9.67727 21.6835 9.64065C21.6684 9.59933 21.661 9.55558 21.6616 9.51159C21.6612 9.47911 21.6659 9.44677 21.6754 9.41571C21.6848 9.38554 21.6989 9.35706 21.7173 9.33135C21.7377 9.30325 21.7617 9.27792 21.7887 9.256C21.8207 9.22966 21.8548 9.20605 21.8908 9.18542C22.0349 9.10783 22.1854 9.04264 22.3407 8.99057V8.94277C22.3417 8.89117 22.3366 8.83963 22.3255 8.78925C22.3177 8.75393 22.3027 8.72061 22.2813 8.6914C22.2631 8.66748 22.2383 8.64948 22.2099 8.63966C22.1791 8.62884 22.1467 8.62351 22.114 8.62392C22.0881 8.6236 22.0622 8.62798 22.0378 8.63685C22.0167 8.64428 21.9971 8.65542 21.9799 8.66975C21.9642 8.68292 21.9516 8.69932 21.9428 8.71783C21.9347 8.73548 21.9305 8.75465 21.9304 8.77406L21.9332 8.85139C21.9354 8.88573 21.9243 8.91959 21.902 8.94586C21.8915 8.95696 21.8787 8.96569 21.8646 8.97146C21.8504 8.97723 21.8352 8.97991 21.8199 8.97932C21.8048 8.97979 21.7897 8.97691 21.7758 8.97088C21.7619 8.96485 21.7495 8.95583 21.7395 8.94446C21.7173 8.91814 21.7059 8.88437 21.7077 8.84998C21.7082 8.81106 21.7187 8.77292 21.7381 8.7392C21.7597 8.70057 21.7892 8.66693 21.8247 8.64051C21.867 8.60883 21.9146 8.58493 21.9653 8.56993C22.0268 8.55078 22.0909 8.5413 22.1554 8.54181C22.2372 8.53964 22.3186 8.55379 22.3949 8.58343C22.427 8.59643 22.4562 8.61571 22.4807 8.64014C22.5052 8.66458 22.5246 8.69367 22.5378 8.7257C22.5584 8.80215 22.5666 8.88143 22.5619 8.96048V9.37494C22.5619 9.43342 22.5619 9.48066 22.5636 9.51552C22.5653 9.55039 22.5667 9.57569 22.5684 9.58863C22.5698 9.60798 22.5775 9.62634 22.5903 9.64093C22.6 9.64966 22.6125 9.65447 22.6255 9.65442C22.6341 9.65448 22.6426 9.65315 22.6508 9.65049C22.6609 9.64664 22.6704 9.64123 22.6789 9.63446C22.6919 9.62436 22.7043 9.61347 22.716 9.60184C22.7304 9.58807 22.7486 9.57007 22.7723 9.54786V9.62237C22.6718 9.75583 22.5767 9.82247 22.4871 9.82229C22.4676 9.82297 22.4481 9.81929 22.4301 9.81151C22.4121 9.80373 22.396 9.79204 22.3831 9.7773C22.352 9.73197 22.3377 9.67713 22.3429 9.62237M22.3429 9.53577V9.0738C22.2754 9.10023 22.2203 9.123 22.177 9.14156C22.1449 9.15492 22.1137 9.17013 22.0834 9.18711C22.0249 9.21693 21.9735 9.25892 21.9327 9.31027C21.9027 9.35097 21.8869 9.40034 21.8877 9.45085C21.8873 9.48097 21.8924 9.5109 21.9029 9.53914C21.9124 9.56505 21.9265 9.58904 21.9445 9.61C21.9611 9.62949 21.9816 9.64529 22.0046 9.65639C22.0271 9.66743 22.0519 9.6732 22.0769 9.67326C22.1775 9.65789 22.2706 9.61126 22.3432 9.53999" fill="white"/>
<path d="M24.2993 9.75198V9.80147H23.5252V9.75198H23.5891C23.6194 9.75489 23.65 9.75048 23.6783 9.73913C23.7065 9.72778 23.7317 9.70982 23.7516 9.68675C23.7802 9.62235 23.7912 9.55154 23.7836 9.48149V8.31433C23.7836 8.27159 23.7836 8.23673 23.7808 8.2103C23.7798 8.188 23.7765 8.16586 23.771 8.14422C23.7674 8.12914 23.76 8.11522 23.7496 8.10373C23.7384 8.09251 23.7256 8.08303 23.7117 8.07561C23.6742 8.05471 23.632 8.04367 23.5891 8.04356H23.5252V7.99435H24.2993V8.04356H24.2332C24.2031 8.04073 24.1726 8.04521 24.1445 8.05661C24.1165 8.06801 24.0915 8.08601 24.0718 8.10907C24.0423 8.1732 24.031 8.24419 24.0389 8.31433V9.48149C24.0389 9.52395 24.0389 9.55881 24.0418 9.58553C24.0428 9.60755 24.0461 9.62941 24.0516 9.65076C24.0555 9.66584 24.063 9.67974 24.0735 9.69125C24.085 9.70249 24.0981 9.71196 24.1123 9.71937C24.1493 9.74044 24.1912 9.75149 24.2338 9.75142L24.2993 9.75198Z" fill="white"/>
<path d="M24.8071 8.80303C24.8525 8.73288 24.9126 8.67344 24.9832 8.62882C25.0539 8.5842 25.1334 8.55548 25.2162 8.54463C25.259 8.54425 25.3015 8.55178 25.3416 8.56684C25.381 8.58308 25.4154 8.60935 25.4414 8.64304C25.4727 8.685 25.4953 8.7328 25.5078 8.78363C25.5254 8.85556 25.5335 8.92947 25.532 9.00351V9.52481C25.5311 9.56631 25.5339 9.60781 25.5404 9.64881C25.5438 9.6739 25.5541 9.69756 25.5702 9.71713C25.5853 9.7325 25.6051 9.7424 25.6265 9.74525C25.6564 9.74976 25.6867 9.75183 25.717 9.75143V9.79923H25.115V9.75143H25.1403C25.1719 9.75247 25.2034 9.74887 25.2339 9.74075C25.2548 9.73477 25.2729 9.72163 25.2851 9.70363C25.2981 9.68254 25.3057 9.6586 25.3073 9.6339C25.3107 9.59708 25.3122 9.5601 25.3118 9.52312V9.02572C25.3175 8.94278 25.3026 8.85973 25.2685 8.78391C25.2537 8.75891 25.2322 8.73859 25.2064 8.72526C25.1806 8.71193 25.1515 8.70614 25.1226 8.70856C25.0607 8.71343 25.0005 8.73139 24.946 8.76125C24.8915 8.7911 24.844 8.83218 24.8065 8.88176V9.52565C24.803 9.57709 24.808 9.62876 24.8212 9.67861C24.8267 9.69095 24.8336 9.70265 24.8417 9.71348C24.8498 9.72369 24.8603 9.73171 24.8723 9.73681C24.8884 9.74351 24.9054 9.74768 24.9227 9.74919C24.9499 9.75239 24.9773 9.75389 25.0048 9.75368V9.80148H24.4019V9.75368H24.4301C24.4566 9.75443 24.4831 9.75082 24.5085 9.743C24.5284 9.73629 24.5455 9.72313 24.5571 9.7056C24.5703 9.68434 24.5787 9.66044 24.5816 9.63559C24.5866 9.59925 24.5888 9.5626 24.5884 9.52593V9.07212C24.5912 8.98275 24.5876 8.89329 24.5777 8.80444C24.5751 8.78002 24.5647 8.75711 24.5479 8.7392C24.5318 8.72683 24.5119 8.72064 24.4916 8.72177C24.461 8.72301 24.4308 8.72978 24.4025 8.74173L24.3814 8.69365L24.7495 8.54463H24.8057L24.8071 8.80303Z" fill="white"/>
<path d="M26.6049 8.54461V8.96047H26.5602C26.5472 8.90421 26.5284 8.84945 26.504 8.79711C26.4861 8.75863 26.4614 8.72368 26.4312 8.69392C26.4057 8.66845 26.3747 8.6492 26.3406 8.63768C26.3042 8.62648 26.2663 8.62107 26.2282 8.62166C26.1994 8.62141 26.1709 8.62626 26.1438 8.636C26.1203 8.64424 26.0982 8.6563 26.0786 8.67171C26.061 8.6856 26.0465 8.70291 26.0358 8.7226C26.026 8.74033 26.0208 8.76025 26.0207 8.78052C26.0205 8.804 26.0241 8.82736 26.0313 8.84969C26.0409 8.87487 26.0563 8.89749 26.0761 8.91577C26.1056 8.94371 26.1382 8.96815 26.1733 8.98859C26.2152 9.0139 26.272 9.04483 26.342 9.07913C26.3997 9.1062 26.455 9.13779 26.5077 9.1736C26.5478 9.20015 26.5845 9.2315 26.617 9.26695C26.6432 9.29487 26.6636 9.32763 26.6772 9.3634C26.6891 9.39659 26.6951 9.43161 26.6949 9.46687C26.6957 9.51985 26.6836 9.57224 26.6598 9.61955C26.6369 9.66415 26.6054 9.70372 26.567 9.73595C26.5284 9.76843 26.4843 9.79367 26.4368 9.81047C26.389 9.8286 26.3383 9.83812 26.2872 9.83858C26.247 9.83838 26.2069 9.83528 26.1672 9.8293C26.1213 9.82234 26.076 9.8121 26.0316 9.79866C26.0164 9.79472 26.0035 9.79107 25.9914 9.78882C25.9809 9.78677 25.9701 9.78573 25.9594 9.78572C25.949 9.78627 25.9389 9.7898 25.9304 9.79588C25.922 9.80196 25.9154 9.81034 25.9116 9.82003H25.8674V9.38449H25.9135C25.9245 9.4414 25.9434 9.49649 25.9698 9.54813C25.9923 9.59177 26.0218 9.63139 26.0572 9.66538C26.0894 9.69557 26.127 9.71951 26.168 9.73595C26.2076 9.7519 26.2499 9.76011 26.2926 9.76014C26.3213 9.7606 26.35 9.75564 26.3769 9.74551C26.4011 9.73635 26.4234 9.72302 26.443 9.70615C26.4612 9.69001 26.476 9.6703 26.4863 9.64823C26.4965 9.62573 26.5017 9.60125 26.5015 9.57653C26.5018 9.54858 26.4973 9.52079 26.488 9.49442C26.4771 9.46726 26.4603 9.44286 26.4388 9.42301C26.4085 9.39533 26.3754 9.37092 26.3401 9.35018C26.2982 9.32516 26.2445 9.2962 26.1787 9.2633C26.1236 9.23712 26.0704 9.20734 26.0193 9.17417C25.9838 9.15056 25.9519 9.12217 25.9242 9.08981C25.9023 9.0643 25.8862 9.03424 25.8773 9.00181C25.8688 8.96769 25.8648 8.93263 25.8652 8.89749C25.8649 8.8492 25.8744 8.80136 25.8933 8.7569C25.9106 8.71452 25.9365 8.67621 25.9695 8.64443C26.0034 8.61215 26.0432 8.58667 26.0867 8.56936C26.1343 8.5504 26.1851 8.54085 26.2363 8.54124C26.2583 8.5419 26.2801 8.54463 26.3016 8.54939C26.3297 8.55474 26.355 8.56064 26.3823 8.56683L26.4559 8.58426C26.4708 8.58832 26.4861 8.59087 26.5015 8.59185C26.512 8.59326 26.5226 8.59149 26.5321 8.58679C26.5443 8.57501 26.5538 8.56084 26.5602 8.54518L26.6049 8.54461Z" fill="white"/>
<path d="M27.9484 8.58061V9.32038C27.9457 9.40709 27.9488 9.49389 27.9577 9.58019C27.9609 9.60488 27.9721 9.62782 27.9897 9.64542C28.0041 9.65786 28.0225 9.66457 28.0415 9.66426C28.0739 9.66249 28.1056 9.65437 28.1348 9.64036L28.1531 9.68732L27.7876 9.83774H27.7277V9.57935C27.658 9.66163 27.5772 9.73383 27.4876 9.79388C27.4338 9.82288 27.3737 9.83796 27.3127 9.83774C27.2489 9.83921 27.1866 9.81877 27.1361 9.77982C27.0858 9.74085 27.049 9.68719 27.0307 9.6263C27.0082 9.54017 26.9988 9.45119 27.0025 9.36228V8.81792C27.0034 8.78519 27 8.75249 26.9924 8.72064C26.9873 8.69909 26.976 8.67953 26.9598 8.6644C26.9431 8.64961 26.9225 8.63986 26.9005 8.63628C26.8712 8.63187 26.8417 8.6298 26.8122 8.6301H26.7964V8.58061H27.2238V9.39771C27.2225 9.44568 27.2281 9.4936 27.2404 9.53998C27.2486 9.57118 27.2639 9.60006 27.2851 9.62433C27.3023 9.64369 27.3248 9.65765 27.3498 9.66454C27.3746 9.67123 27.4003 9.67454 27.426 9.67438C27.4465 9.67411 27.4669 9.67137 27.4867 9.66623C27.5109 9.66004 27.5342 9.65058 27.5559 9.63811C27.584 9.62236 27.6108 9.6043 27.636 9.58412C27.669 9.55805 27.7003 9.52987 27.7297 9.49977V8.80808C27.7303 8.77917 27.7275 8.75027 27.7212 8.72204C27.717 8.70126 27.7066 8.68225 27.6914 8.66749C27.6743 8.65294 27.6536 8.64323 27.6315 8.63938C27.5992 8.63269 27.5664 8.62939 27.5334 8.62953V8.58005L27.9484 8.58061Z" fill="white"/>
<path d="M28.5999 8.54462V8.81905C28.703 8.6361 28.8079 8.54462 28.9145 8.54462C28.9588 8.54427 29.0016 8.56018 29.0349 8.58933C29.05 8.60244 29.0624 8.61851 29.0711 8.63657C29.0794 8.65414 29.0837 8.67336 29.0835 8.6928C29.0842 8.72561 29.0719 8.75736 29.0492 8.78109C29.0384 8.79263 29.0254 8.80177 29.0108 8.80792C28.9963 8.81407 28.9806 8.8171 28.9649 8.8168C28.9471 8.81606 28.9299 8.81104 28.9145 8.80218C28.8957 8.7929 28.8774 8.78222 28.8583 8.77097C28.8392 8.75972 28.8234 8.7496 28.8082 8.73976C28.7981 8.73196 28.7861 8.72692 28.7734 8.72514C28.7593 8.72622 28.7459 8.73173 28.7351 8.74088C28.7186 8.75297 28.7037 8.76726 28.691 8.78334C28.674 8.80413 28.6584 8.82591 28.644 8.84857C28.6283 8.87388 28.6128 8.90172 28.5976 8.93293V9.51468C28.5974 9.5477 28.5997 9.58069 28.6044 9.61337C28.6076 9.64028 28.6173 9.66602 28.6325 9.68844C28.649 9.71013 28.6715 9.72654 28.6972 9.73568C28.7334 9.74773 28.7715 9.75334 28.8096 9.75227V9.80007H28.1882V9.75227C28.2204 9.75285 28.2525 9.75011 28.2841 9.74412C28.3067 9.74008 28.3273 9.72883 28.3429 9.71206C28.3582 9.6922 28.3679 9.66861 28.371 9.64374C28.3771 9.60458 28.3798 9.56498 28.3792 9.52536V9.05383C28.3821 8.96937 28.379 8.8848 28.3699 8.80077C28.368 8.77875 28.3576 8.75832 28.341 8.74371C28.3244 8.7291 28.3028 8.72145 28.2808 8.72233C28.2487 8.72322 28.217 8.72999 28.1874 8.74229L28.1739 8.69449L28.5434 8.5449L28.5999 8.54462Z" fill="white"/>
<path d="M29.843 9.62546C29.7691 9.68813 29.6902 9.74456 29.6071 9.79417C29.5592 9.81666 29.507 9.82809 29.4541 9.82763C29.4142 9.82803 29.3747 9.82028 29.338 9.80485C29.3031 9.7905 29.2717 9.76872 29.246 9.74103C29.2195 9.7123 29.1989 9.67868 29.1853 9.64205C29.1702 9.60073 29.1627 9.55699 29.1634 9.51299C29.163 9.48052 29.1676 9.44817 29.1771 9.41711C29.1865 9.38694 29.2007 9.35847 29.219 9.33276C29.2395 9.30465 29.2635 9.27932 29.2905 9.25741C29.3224 9.23107 29.3566 9.20746 29.3925 9.18683C29.5367 9.10923 29.6872 9.04405 29.8424 8.99198V8.94418C29.8435 8.89258 29.8384 8.84104 29.8272 8.79066C29.8194 8.75533 29.8044 8.72201 29.7831 8.69281C29.7649 8.66889 29.7401 8.65089 29.7117 8.64107C29.6809 8.63025 29.6484 8.62492 29.6158 8.62532C29.5898 8.62501 29.564 8.62939 29.5396 8.63826C29.5185 8.64569 29.4989 8.65683 29.4817 8.67116C29.466 8.68433 29.4533 8.70073 29.4445 8.71924C29.4365 8.73689 29.4323 8.75606 29.4322 8.77547L29.435 8.8528C29.4372 8.88714 29.426 8.921 29.4038 8.94727C29.3933 8.95837 29.3805 8.9671 29.3663 8.97287C29.3522 8.97864 29.3369 8.98132 29.3217 8.98073C29.3065 8.9812 29.2915 8.97831 29.2776 8.97229C29.2637 8.96626 29.2513 8.95724 29.2413 8.94586C29.219 8.91955 29.2077 8.88577 29.2095 8.85139C29.21 8.81247 29.2204 8.77433 29.2398 8.74061C29.2617 8.70232 29.2914 8.66908 29.327 8.64304C29.3693 8.61136 29.4169 8.58747 29.4676 8.57246C29.5291 8.55332 29.5932 8.54383 29.6577 8.54435C29.7395 8.54217 29.8209 8.55632 29.8972 8.58596C29.9293 8.59896 29.9585 8.61824 29.983 8.64268C30.0075 8.66711 30.0269 8.6962 30.0401 8.72823C30.0607 8.80468 30.0689 8.88396 30.0643 8.96302V9.37747C30.0643 9.43595 30.0643 9.48319 30.0659 9.51806C30.0676 9.55292 30.069 9.57823 30.0707 9.59116C30.0722 9.61051 30.0799 9.62887 30.0927 9.64346C30.1023 9.65219 30.1148 9.657 30.1278 9.65696C30.1364 9.65701 30.1449 9.65569 30.1531 9.65302C30.1633 9.64917 30.1727 9.64376 30.1812 9.63699C30.1942 9.62689 30.2066 9.616 30.2183 9.60438C30.2327 9.5906 30.251 9.5726 30.2746 9.55039V9.6249C30.1741 9.75837 30.0791 9.82501 29.9895 9.82482C29.9699 9.82551 29.9504 9.82183 29.9324 9.81404C29.9144 9.80626 29.8983 9.79458 29.8854 9.77983C29.8543 9.7345 29.84 9.67966 29.8452 9.6249M29.8452 9.5383V9.0738C29.7777 9.10023 29.7226 9.123 29.6793 9.14156C29.6473 9.15492 29.616 9.17013 29.5857 9.18711C29.5272 9.21693 29.4758 9.25892 29.435 9.31027C29.4051 9.35097 29.3893 9.40034 29.39 9.45085C29.3896 9.48097 29.3947 9.5109 29.4052 9.53914C29.4147 9.56505 29.4288 9.58904 29.4468 9.61C29.4634 9.62949 29.4839 9.64529 29.507 9.65639C29.5295 9.66743 29.5542 9.6732 29.5792 9.67326C29.6798 9.65789 29.7729 9.61126 29.8455 9.53999" fill="white"/>
<path d="M30.7188 8.80303C30.7642 8.73288 30.8243 8.67344 30.895 8.62882C30.9656 8.5842 31.0451 8.55548 31.1279 8.54463C31.1707 8.54425 31.2133 8.55178 31.2533 8.56684C31.2927 8.58308 31.3271 8.60935 31.3532 8.64304C31.3845 8.685 31.407 8.7328 31.4195 8.78363C31.4371 8.85556 31.4452 8.92948 31.4437 9.00351V9.52481C31.4428 9.56631 31.4456 9.60781 31.4521 9.64881C31.4555 9.6739 31.4659 9.69756 31.4819 9.71713C31.497 9.7325 31.5168 9.7424 31.5382 9.74525C31.5681 9.74976 31.5984 9.75183 31.6287 9.75143V9.79923H31.0267V9.75143H31.052C31.0836 9.75247 31.1151 9.74887 31.1456 9.74075C31.1666 9.73483 31.1849 9.72169 31.1971 9.70363C31.2101 9.68254 31.2177 9.65861 31.2193 9.6339C31.2227 9.59708 31.2242 9.5601 31.2238 9.52312V9.02572C31.2295 8.94278 31.2146 8.85973 31.1805 8.78391C31.1657 8.75891 31.1442 8.73859 31.1184 8.72526C31.0926 8.71193 31.0635 8.70614 31.0346 8.70856C30.9727 8.71343 30.9125 8.73139 30.858 8.76125C30.8035 8.7911 30.756 8.83218 30.7185 8.88176V9.52565C30.715 9.57709 30.72 9.62876 30.7332 9.67861C30.7387 9.69095 30.7456 9.70265 30.7537 9.71348C30.7618 9.72369 30.7723 9.73171 30.7843 9.73681C30.8004 9.74351 30.8174 9.74768 30.8347 9.74919C30.8619 9.75239 30.8893 9.75389 30.9168 9.75368V9.80148H30.3137V9.75368H30.3418C30.3683 9.75443 30.3948 9.75082 30.4202 9.743C30.4401 9.73629 30.4573 9.72313 30.4689 9.7056C30.4821 9.68434 30.4904 9.66044 30.4933 9.63559C30.4983 9.59925 30.5005 9.5626 30.5001 9.52593V9.07212C30.5029 8.98275 30.4993 8.89329 30.4894 8.80444C30.4868 8.78002 30.4764 8.75711 30.4596 8.7392C30.4435 8.72683 30.4236 8.72064 30.4033 8.72177C30.3727 8.72301 30.3425 8.72977 30.3142 8.74173L30.2943 8.69365L30.6623 8.54463H30.7185L30.7188 8.80303Z" fill="white"/>
<path d="M32.7641 9.33754C32.7491 9.41231 32.7236 9.48455 32.6882 9.55208C32.6573 9.6105 32.6173 9.66357 32.5695 9.70926C32.5262 9.75064 32.4755 9.78346 32.4199 9.80598C32.3663 9.82759 32.309 9.83866 32.2512 9.8386C32.183 9.83884 32.1156 9.82325 32.0544 9.79305C31.9911 9.76198 31.935 9.71802 31.8896 9.66399C31.8404 9.60334 31.8023 9.5344 31.7772 9.46042C31.7475 9.37405 31.7331 9.2832 31.7344 9.19189C31.7334 9.10208 31.7493 9.01288 31.7814 8.92899C31.81 8.85338 31.8527 8.7839 31.9074 8.7243C31.9596 8.66821 32.0227 8.62317 32.0927 8.59186C32.1634 8.56026 32.2401 8.54415 32.3176 8.54463C32.3737 8.54442 32.4295 8.55394 32.4824 8.57274C32.5293 8.58843 32.5733 8.6118 32.6125 8.64191C32.6461 8.66808 32.6747 8.70009 32.6969 8.73639C32.7166 8.76705 32.7274 8.80258 32.7281 8.83902C32.7286 8.85414 32.726 8.8692 32.7206 8.88331C32.7151 8.89741 32.7069 8.91028 32.6963 8.92112C32.6838 8.93213 32.6693 8.94056 32.6535 8.94592C32.6377 8.95128 32.621 8.95346 32.6044 8.95233C32.5854 8.95246 32.5665 8.95019 32.5482 8.94558C32.5312 8.94136 32.5156 8.93306 32.5026 8.9214C32.4887 8.90808 32.478 8.89172 32.4714 8.8736C32.4623 8.84816 32.4569 8.82155 32.4554 8.79459C32.4542 8.74948 32.4353 8.70663 32.4028 8.67537C32.366 8.64626 32.3197 8.63184 32.2729 8.63488C32.2242 8.63375 32.1762 8.6459 32.134 8.67003C32.0937 8.69426 32.0591 8.72698 32.0328 8.76591C32.0042 8.8089 31.9832 8.85644 31.9706 8.9065C31.9568 8.96252 31.9499 9.02003 31.9501 9.07774C31.9503 9.14728 31.9598 9.21649 31.9782 9.28356C31.995 9.34623 32.0217 9.40583 32.0572 9.46013C32.0893 9.50987 32.1318 9.55207 32.1818 9.58385C32.2315 9.6154 32.2894 9.63172 32.3482 9.63081C32.3842 9.63107 32.4201 9.62643 32.4548 9.61703C32.4899 9.60684 32.5229 9.59036 32.5521 9.56839C32.587 9.5414 32.6174 9.50915 32.6423 9.47279C32.6759 9.42467 32.7041 9.37311 32.7267 9.31898L32.7641 9.33754Z" fill="white"/>
<path d="M33.144 9.04036C33.1428 9.12313 33.155 9.20555 33.1802 9.28442C33.201 9.35093 33.234 9.413 33.2775 9.46746C33.3152 9.51576 33.3632 9.55496 33.4181 9.58218C33.4706 9.60811 33.5283 9.62158 33.5868 9.62155C33.6616 9.6232 33.7348 9.60017 33.7952 9.55603C33.8646 9.49634 33.916 9.41843 33.9436 9.33109L33.9852 9.35921C33.975 9.42017 33.956 9.47935 33.929 9.53494C33.9021 9.59179 33.8664 9.64407 33.8233 9.68987C33.7801 9.7352 33.729 9.77235 33.6726 9.79953C33.6143 9.82779 33.5503 9.84213 33.4856 9.84142C33.4144 9.8419 33.344 9.82664 33.2795 9.79672C33.215 9.76694 33.1575 9.72392 33.1108 9.67047C33.06 9.612 33.0208 9.54445 32.9952 9.4714C32.9659 9.38737 32.9516 9.29888 32.9528 9.2099C32.9512 9.11441 32.9658 9.01933 32.9961 8.92873C33.0219 8.85218 33.0623 8.7814 33.1153 8.72038C33.1646 8.66434 33.2259 8.62013 33.2947 8.59104C33.3648 8.56132 33.4403 8.5463 33.5165 8.54689C33.5807 8.54634 33.6444 8.55828 33.7041 8.58204C33.7601 8.60493 33.8106 8.63932 33.8525 8.68298C33.8953 8.7281 33.9286 8.78136 33.9504 8.8396C33.9749 8.90491 33.987 8.97424 33.9861 9.04401L33.144 9.04036ZM33.144 8.96303H33.7097C33.71 8.9068 33.7004 8.85095 33.6816 8.79798C33.6607 8.7499 33.6261 8.70909 33.582 8.68073C33.5413 8.65323 33.4934 8.63836 33.4443 8.63799C33.4079 8.63798 33.372 8.64555 33.3388 8.66021C33.3042 8.67511 33.2729 8.69681 33.2469 8.72403C33.2183 8.75372 33.195 8.78816 33.1783 8.82582C33.1592 8.86938 33.1477 8.91588 33.1442 8.96331" fill="white"/>
<path d="M34.7939 9.80147V9.75198H34.8622C34.8933 9.75476 34.9246 9.7495 34.953 9.73669C34.9815 9.72389 35.0062 9.70398 35.0247 9.67888C35.0501 9.61656 35.0597 9.54898 35.0529 9.48206V8.31433C35.0619 8.24152 35.0488 8.16767 35.0155 8.10233C34.9955 8.08193 34.9714 8.06612 34.9447 8.05597C34.9181 8.04582 34.8895 8.04159 34.8611 8.04356H34.7928V7.99436H35.5286C35.7379 7.98432 35.9471 8.01556 36.1444 8.0863C36.2876 8.14929 36.4067 8.25676 36.484 8.39278C36.5723 8.54281 36.6171 8.71445 36.6134 8.88849C36.6149 9.01404 36.5929 9.13876 36.5487 9.25627C36.5073 9.36571 36.4418 9.46442 36.3569 9.54504C36.2656 9.6294 36.1576 9.69359 36.0398 9.73343C35.8984 9.78137 35.7498 9.80449 35.6006 9.80175L34.7939 9.80147ZM35.3096 9.67072C35.4025 9.69337 35.4976 9.70591 35.5933 9.70812C35.691 9.70899 35.7878 9.68985 35.8778 9.65189C35.9642 9.61496 36.0417 9.55993 36.105 9.49049C36.1713 9.41679 36.2225 9.33082 36.2557 9.23743C36.328 9.01984 36.328 8.7847 36.2557 8.56711C36.223 8.47357 36.1718 8.38753 36.1053 8.31405C36.0409 8.2446 35.9622 8.18984 35.8747 8.1535C35.7819 8.11554 35.6824 8.09643 35.582 8.09727C35.5393 8.09741 35.4966 8.1007 35.4544 8.10711C35.4088 8.11386 35.3607 8.1237 35.309 8.13523L35.3096 9.67072Z" fill="white"/>
<path d="M37.009 9.04036C37.0078 9.12313 37.0201 9.20555 37.0453 9.28442C37.0661 9.35093 37.0991 9.413 37.1426 9.46746C37.1802 9.51576 37.2283 9.55496 37.2831 9.58218C37.3356 9.60811 37.3933 9.62158 37.4518 9.62155C37.5266 9.6232 37.5998 9.60017 37.6602 9.55603C37.7297 9.49634 37.7811 9.41843 37.8087 9.33109L37.8503 9.35921C37.84 9.42017 37.8211 9.47935 37.794 9.53494C37.7671 9.59179 37.7314 9.64407 37.6883 9.68987C37.6451 9.7352 37.594 9.77235 37.5376 9.79953C37.4794 9.82779 37.4154 9.84213 37.3506 9.84142C37.2795 9.8419 37.2091 9.82664 37.1445 9.79672C37.08 9.76694 37.0226 9.72392 36.9758 9.67047C36.9251 9.612 36.8859 9.54445 36.8603 9.4714C36.831 9.38737 36.8166 9.29888 36.8178 9.2099C36.8162 9.11441 36.8309 9.01933 36.8611 8.92873C36.8869 8.85218 36.9274 8.7814 36.9803 8.72038C37.0296 8.66434 37.0909 8.62013 37.1597 8.59104C37.2299 8.56132 37.3054 8.5463 37.3816 8.54689C37.4458 8.54634 37.5094 8.55828 37.5691 8.58204C37.6251 8.60493 37.6757 8.63932 37.7176 8.68298C37.7603 8.7281 37.7936 8.78136 37.8154 8.8396C37.8399 8.90491 37.8521 8.97424 37.8511 9.04401L37.009 9.04036ZM37.009 8.96303H37.5739C37.5742 8.9068 37.5646 8.85095 37.5458 8.79798C37.5249 8.74989 37.4903 8.70907 37.4462 8.68073C37.4055 8.65323 37.3576 8.63836 37.3084 8.63799C37.2721 8.63798 37.2362 8.64555 37.203 8.66021C37.1684 8.67511 37.1371 8.69681 37.1111 8.72403C37.0825 8.75372 37.0592 8.78816 37.0425 8.82582C37.0234 8.86938 37.0119 8.91588 37.0084 8.96331" fill="white"/>
<path d="M37.9523 8.58063H38.5265V8.63011H38.4894C38.4607 8.62802 38.4324 8.63698 38.4101 8.65514C38.4008 8.66383 38.3934 8.67444 38.3886 8.68623C38.3837 8.69802 38.3815 8.71072 38.382 8.72346C38.3839 8.76171 38.3935 8.79918 38.4101 8.83369L38.6944 9.50851L38.9795 8.80894C38.9958 8.77341 39.0061 8.73539 39.0098 8.69647C39.0109 8.68539 39.0082 8.67427 39.0024 8.66482C38.9965 8.65538 38.9876 8.64812 38.9772 8.64417C38.9426 8.63362 38.9063 8.62924 38.8701 8.63124V8.58175H39.2697V8.63124C39.2458 8.63282 39.2222 8.63765 39.1996 8.64558C39.1822 8.65218 39.1666 8.66266 39.1538 8.67623C39.1404 8.6908 39.1292 8.70717 39.1203 8.72487C39.1105 8.74399 39.1007 8.76648 39.09 8.79235L38.6561 9.8372H38.6016L38.1658 8.80725C38.1547 8.78007 38.1421 8.75359 38.1278 8.72796C38.117 8.70865 38.1029 8.69134 38.0862 8.67679C38.0701 8.66326 38.0516 8.65287 38.0316 8.64614C38.0058 8.63788 37.9793 8.63223 37.9523 8.62927V8.58063Z" fill="white"/>
<path d="M39.5848 9.04036C39.5837 9.12313 39.5959 9.20555 39.6211 9.28442C39.6419 9.35093 39.6749 9.413 39.7184 9.46746C39.7561 9.51576 39.8041 9.55497 39.859 9.58218C39.9114 9.60811 39.9692 9.62158 40.0277 9.62155C40.1025 9.6232 40.1757 9.60017 40.236 9.55603C40.3055 9.49634 40.3569 9.41843 40.3845 9.33109L40.4261 9.35921C40.4159 9.42017 40.3969 9.47935 40.3699 9.53494C40.343 9.59179 40.3073 9.64407 40.2642 9.68987C40.2209 9.73519 40.1699 9.77234 40.1135 9.79953C40.0552 9.82779 39.9912 9.84213 39.9265 9.84142C39.8553 9.8419 39.7849 9.82664 39.7204 9.79672C39.6559 9.76694 39.5984 9.72392 39.5517 9.67047C39.5009 9.612 39.4617 9.54445 39.4361 9.4714C39.4068 9.38737 39.3924 9.29888 39.3936 9.2099C39.3921 9.11441 39.4067 9.01933 39.4369 8.92873C39.4627 8.85218 39.5032 8.7814 39.5562 8.72038C39.6055 8.66434 39.6668 8.62013 39.7356 8.59104C39.8057 8.56132 39.8812 8.5463 39.9574 8.54689C40.0216 8.54634 40.0853 8.55828 40.1449 8.58204C40.2009 8.60493 40.2515 8.63932 40.2934 8.68298C40.3362 8.7281 40.3695 8.78136 40.3913 8.8396C40.4158 8.90491 40.4279 8.97424 40.427 9.04401L39.5848 9.04036ZM39.5848 8.96303H40.1497C40.15 8.9068 40.1405 8.85095 40.1216 8.79798C40.1008 8.7499 40.0661 8.70909 40.0221 8.68073C39.9814 8.65323 39.9334 8.63836 39.8843 8.63799C39.848 8.63798 39.8121 8.64555 39.7789 8.66021C39.7442 8.67511 39.713 8.69681 39.6869 8.72403C39.6583 8.75372 39.6351 8.78816 39.6183 8.82582C39.5992 8.86938 39.5877 8.91588 39.5843 8.96331" fill="white"/>
<path d="M41.011 7.90605V9.52534C41.011 9.56414 41.011 9.59619 41.0146 9.62038C41.0166 9.64033 41.0206 9.66003 41.0267 9.67914C41.0308 9.69193 41.0378 9.70358 41.0472 9.71316C41.0566 9.72169 41.0671 9.72888 41.0784 9.73453C41.1196 9.75044 41.1638 9.75688 41.2078 9.75337V9.80117H40.6094V9.75337C40.6412 9.75424 40.6729 9.75113 40.7039 9.74409C40.7261 9.73935 40.746 9.72703 40.7602 9.70923C40.7743 9.68874 40.7827 9.66487 40.7846 9.64006C40.7891 9.60199 40.791 9.56367 40.7905 9.52534V8.41638C40.7905 8.34721 40.7905 8.29154 40.7888 8.24768C40.7884 8.21883 40.7856 8.19006 40.7807 8.16164C40.7769 8.13775 40.7663 8.11547 40.75 8.09753C40.7354 8.08544 40.7167 8.07923 40.6977 8.0801C40.6675 8.08153 40.6378 8.08879 40.6103 8.10147L40.587 8.05507L40.9511 7.90549L41.011 7.90605Z" fill="white"/>
<path d="M41.9462 8.54465C42.0279 8.54374 42.1089 8.56093 42.1832 8.59498C42.2535 8.62782 42.3167 8.67404 42.3693 8.73107C42.4218 8.7891 42.463 8.85643 42.4908 8.92958C42.5196 9.00585 42.5343 9.08675 42.5341 9.1683C42.5343 9.25463 42.5191 9.3403 42.4894 9.42136C42.4609 9.49949 42.4186 9.57187 42.3645 9.63505C42.3117 9.69689 42.2468 9.74739 42.1739 9.78351C42.0987 9.82117 42.0156 9.84044 41.9315 9.83975C41.8501 9.84084 41.7695 9.82253 41.6965 9.78632C41.6269 9.75245 41.5651 9.70459 41.5148 9.64573C41.4633 9.58598 41.4233 9.51713 41.397 9.44273C41.3693 9.36667 41.3553 9.28635 41.3554 9.20541C41.3554 9.12275 41.3698 9.04071 41.3981 8.96304C41.4256 8.88605 41.4663 8.81447 41.5185 8.7516C41.5703 8.69034 41.6336 8.63989 41.7049 8.60314C41.7796 8.56535 41.8622 8.54607 41.9459 8.5469M41.9048 8.6335C41.866 8.63343 41.8276 8.64178 41.7924 8.65796C41.7544 8.67626 41.7215 8.7037 41.6968 8.73782C41.6656 8.78084 41.6427 8.82928 41.6293 8.88066C41.611 8.94989 41.6024 9.02135 41.604 9.09294C41.6039 9.17641 41.6133 9.25961 41.6321 9.34094C41.6481 9.41363 41.6741 9.48374 41.7094 9.54929C41.7392 9.6051 41.7807 9.6539 41.8309 9.69241C41.8766 9.7274 41.9327 9.74619 41.9903 9.74583C42.0309 9.74619 42.071 9.73785 42.1081 9.72137C42.146 9.70331 42.1785 9.67557 42.2023 9.64095C42.2322 9.59675 42.2534 9.54721 42.2647 9.49502C42.2813 9.42217 42.2889 9.34759 42.2875 9.2729C42.2881 9.18956 42.2796 9.10641 42.2622 9.0249C42.2478 8.95397 42.2229 8.88556 42.1885 8.82189C42.1593 8.76742 42.1183 8.72016 42.0685 8.68355C42.0213 8.65026 41.9648 8.63265 41.9071 8.63322" fill="white"/>
<path d="M42.6263 8.70183L43.0025 8.55H43.0529V8.83511C43.081 8.78726 43.113 8.74175 43.1485 8.69902C43.176 8.66501 43.2079 8.63484 43.2435 8.60932C43.2733 8.58769 43.3065 8.57098 43.3416 8.55984C43.3746 8.54965 43.4089 8.54453 43.4434 8.54465C43.5094 8.54373 43.5745 8.56022 43.6321 8.59245C43.6888 8.62489 43.7378 8.6692 43.7758 8.72236C43.8169 8.78057 43.848 8.8453 43.8677 8.91384C43.8899 8.98962 43.9009 9.06824 43.9003 9.14721C43.9008 9.23671 43.8875 9.32576 43.861 9.41124C43.8369 9.49101 43.7988 9.56585 43.7485 9.63224C43.7012 9.69415 43.6414 9.74541 43.573 9.78267C43.5022 9.82068 43.4228 9.84003 43.3425 9.8389C43.3153 9.83904 43.2882 9.83773 43.2612 9.83497C43.2369 9.83243 43.2129 9.82705 43.1898 9.81894C43.1662 9.81055 43.1436 9.79961 43.1223 9.78632C43.097 9.7699 43.0734 9.75107 43.0517 9.73009V10.1024C43.0517 10.1462 43.0517 10.1805 43.0548 10.2056C43.056 10.2256 43.0599 10.2453 43.0664 10.2643C43.0706 10.2764 43.0779 10.2872 43.0877 10.2955C43.0975 10.3034 43.1082 10.3101 43.1195 10.3155C43.1638 10.3321 43.2112 10.3389 43.2584 10.3355V10.3847H42.619V10.3357H42.6525C42.6859 10.3361 42.7192 10.3312 42.7512 10.3211C42.766 10.3164 42.7795 10.3084 42.7908 10.2978C42.8021 10.2871 42.8108 10.274 42.8164 10.2595C42.8297 10.2056 42.8347 10.1499 42.831 10.0945V8.94167C42.8315 8.90413 42.83 8.86659 42.8265 8.8292C42.8248 8.80681 42.8191 8.7849 42.8096 8.76453C42.803 8.75066 42.7912 8.73995 42.7767 8.73473C42.7594 8.72954 42.7414 8.72716 42.7233 8.7277C42.6954 8.72955 42.668 8.73591 42.6421 8.74654L42.6263 8.70183ZM43.0529 8.91384V9.36934C43.0503 9.43444 43.0543 9.49964 43.0649 9.56391C43.0713 9.59031 43.0824 9.61535 43.0976 9.63786C43.1135 9.66192 43.1336 9.68296 43.1569 9.7C43.1819 9.71835 43.2096 9.73276 43.239 9.74274C43.2713 9.75375 43.3052 9.75917 43.3394 9.75877C43.3879 9.75947 43.4356 9.74661 43.4771 9.72165C43.5187 9.69645 43.5537 9.66176 43.5792 9.62043C43.6084 9.57297 43.6295 9.521 43.6416 9.46663C43.6564 9.40284 43.6636 9.33753 43.663 9.27205C43.6634 9.20063 43.6555 9.12941 43.6397 9.05977C43.6262 9.00055 43.6039 8.94368 43.5736 8.89106C43.548 8.84653 43.513 8.80814 43.471 8.77859C43.4317 8.75174 43.3852 8.73761 43.3377 8.7381C43.316 8.73802 43.2944 8.74163 43.2739 8.74879C43.2511 8.75694 43.2295 8.7679 43.2095 8.7814C43.1846 8.79851 43.1609 8.8173 43.1386 8.83764C43.1133 8.85985 43.0846 8.88544 43.0526 8.91496" fill="white"/>
<path d="M44.4407 8.80446C44.5296 8.71561 44.5813 8.66387 44.5979 8.65094C44.6367 8.61829 44.6804 8.59183 44.7273 8.57249C44.7709 8.55448 44.8176 8.54494 44.8648 8.54437C44.936 8.54262 45.0056 8.56579 45.0616 8.60989C45.1197 8.65979 45.1587 8.72839 45.1718 8.8039C45.2367 8.72163 45.315 8.6509 45.4035 8.5947C45.4631 8.56191 45.53 8.5446 45.5981 8.54437C45.6409 8.5439 45.6834 8.55143 45.7235 8.56659C45.7635 8.58234 45.7987 8.60832 45.8255 8.64194C45.8576 8.68371 45.8808 8.73153 45.8939 8.78253C45.9123 8.85347 45.9208 8.92661 45.9192 8.99988V9.52511C45.9192 9.56476 45.9192 9.59962 45.9228 9.6283C45.9238 9.65341 45.9309 9.67791 45.9433 9.69972C45.9562 9.71923 45.9755 9.73357 45.9979 9.74021C46.0322 9.74978 46.0678 9.75395 46.1033 9.75258V9.80067H45.5011V9.75258H45.5264C45.5635 9.75419 45.6005 9.74697 45.6343 9.7315C45.6489 9.72326 45.6616 9.71212 45.6717 9.69878C45.6819 9.68543 45.6891 9.67015 45.6931 9.65389C45.6978 9.61104 45.6994 9.56791 45.6979 9.52483V9.00016C45.6988 8.95163 45.6943 8.90315 45.6844 8.85563C45.678 8.82296 45.6645 8.79207 45.645 8.7651C45.6292 8.74345 45.6072 8.72701 45.582 8.71786C45.5541 8.70843 45.5247 8.70386 45.4951 8.70436C45.4717 8.70434 45.4483 8.70708 45.4254 8.71252C45.4005 8.71874 45.3765 8.7282 45.354 8.74063C45.3258 8.75607 45.2988 8.77365 45.2733 8.79321C45.24 8.81848 45.2083 8.8457 45.1783 8.87475L45.1811 9.52539C45.1811 9.5687 45.1811 9.603 45.1839 9.62718C45.1844 9.64631 45.1877 9.66526 45.1937 9.68342C45.1977 9.69459 45.2048 9.70436 45.2143 9.71153C45.2233 9.71772 45.2344 9.72484 45.2477 9.7329C45.2639 9.74107 45.2814 9.74621 45.2995 9.74809C45.3261 9.7514 45.353 9.75291 45.3799 9.75258V9.80067H44.7635V9.75258C44.8013 9.7536 44.839 9.7503 44.876 9.74274C44.8995 9.73827 44.9206 9.72538 44.9353 9.70647C44.9491 9.6857 44.9569 9.66161 44.9581 9.63674C44.9609 9.60862 44.962 9.56982 44.962 9.52427V9.00016C44.9629 8.95207 44.9576 8.90406 44.9463 8.85732C44.9386 8.82395 44.9238 8.7926 44.903 8.76538C44.8857 8.74327 44.8629 8.72603 44.8369 8.71533C44.8101 8.7047 44.7814 8.69953 44.7526 8.70014C44.7216 8.70035 44.691 8.70597 44.662 8.71673C44.6312 8.72777 44.6014 8.74171 44.5732 8.75835C44.5461 8.77441 44.5205 8.79265 44.4964 8.8129C44.4762 8.83075 44.4574 8.85011 44.4402 8.87082V9.52539C44.4398 9.55843 44.4411 9.59147 44.4441 9.62437C44.4459 9.64436 44.4499 9.66408 44.4562 9.68313C44.4601 9.69562 44.4671 9.70687 44.4767 9.71575C44.4856 9.72309 44.495 9.72977 44.5048 9.73571C44.5478 9.75004 44.5932 9.75577 44.6384 9.75258V9.80067H44.0356V9.75258C44.0685 9.75343 44.1015 9.75032 44.1337 9.74331C44.1558 9.73881 44.1757 9.72679 44.1899 9.70928C44.2045 9.68893 44.2132 9.66503 44.2152 9.64011C44.2197 9.60195 44.2216 9.56353 44.2211 9.52511V9.05836C44.2211 8.97935 44.2211 8.91777 44.2172 8.87279C44.2162 8.8386 44.2113 8.80464 44.2026 8.77156C44.2011 8.763 44.1978 8.75484 44.193 8.74762C44.1881 8.7404 44.1818 8.73428 44.1745 8.72967C44.1591 8.72378 44.1428 8.72101 44.1264 8.72151C44.0957 8.72275 44.0655 8.72951 44.0373 8.74148L44.0145 8.69368L44.3825 8.54465H44.4388L44.4407 8.80446Z" fill="white"/>
<path d="M46.4064 9.04036C46.4053 9.12313 46.4175 9.20555 46.4427 9.28442C46.4635 9.35093 46.4965 9.413 46.54 9.46746C46.5777 9.51576 46.6257 9.55496 46.6806 9.58218C46.733 9.60811 46.7908 9.62158 46.8493 9.62155C46.9241 9.6232 46.9973 9.60017 47.0576 9.55603C47.1271 9.49634 47.1785 9.41843 47.2061 9.33109L47.2477 9.35921C47.2375 9.42017 47.2185 9.47935 47.1915 9.53494C47.1646 9.59179 47.1289 9.64407 47.0858 9.68987C47.0425 9.73519 46.9915 9.77234 46.9351 9.79953C46.8768 9.82779 46.8128 9.84213 46.7481 9.84142C46.6769 9.8419 46.6065 9.82664 46.542 9.79672C46.4775 9.76694 46.42 9.72392 46.3733 9.67047C46.3225 9.612 46.2833 9.54445 46.2577 9.4714C46.2284 9.38737 46.2141 9.29888 46.2152 9.2099C46.2137 9.11441 46.2283 9.01933 46.2585 8.92873C46.2843 8.85218 46.3248 8.7814 46.3778 8.72038C46.4271 8.66434 46.4884 8.62013 46.5572 8.59104C46.6273 8.56132 46.7028 8.5463 46.779 8.54689C46.8432 8.54634 46.9069 8.55828 46.9665 8.58204C47.0225 8.60493 47.0731 8.63932 47.115 8.68298C47.1578 8.7281 47.1911 8.78136 47.2129 8.8396C47.2374 8.90491 47.2495 8.97424 47.2486 9.04401L46.4064 9.04036ZM46.4064 8.96303H46.9713C46.9716 8.9068 46.9621 8.85095 46.9432 8.79798C46.9224 8.7499 46.8877 8.70909 46.8437 8.68073C46.803 8.65323 46.755 8.63836 46.7059 8.63799C46.6696 8.63798 46.6337 8.64555 46.6005 8.66021C46.5658 8.67511 46.5346 8.69681 46.5085 8.72403C46.4799 8.75372 46.4567 8.78816 46.4399 8.82582C46.4208 8.86938 46.4093 8.91588 46.4059 8.96331" fill="white"/>
<path d="M47.7687 8.80303C47.8141 8.73288 47.8742 8.67344 47.9449 8.62882C48.0155 8.5842 48.095 8.55548 48.1778 8.54463C48.2207 8.54425 48.2632 8.55178 48.3032 8.56684C48.3426 8.58308 48.377 8.60935 48.4031 8.64304C48.4344 8.68499 48.4569 8.7328 48.4694 8.78363C48.487 8.85556 48.4952 8.92947 48.4936 9.00351V9.52481C48.4927 9.56631 48.4955 9.60781 48.502 9.64881C48.5055 9.6739 48.5158 9.69756 48.5318 9.71713C48.5469 9.7325 48.5667 9.7424 48.5881 9.74525C48.618 9.74976 48.6483 9.75183 48.6786 9.75143V9.79923H48.0749V9.75143H48.1002C48.1318 9.75247 48.1634 9.74887 48.1939 9.74075C48.2148 9.73477 48.2329 9.72163 48.245 9.70363C48.258 9.68254 48.2656 9.6586 48.2673 9.6339C48.2706 9.59708 48.2721 9.5601 48.2718 9.52312V9.02572C48.2774 8.94278 48.2625 8.85973 48.2285 8.78391C48.2137 8.75891 48.1921 8.73859 48.1663 8.72526C48.1405 8.71193 48.1115 8.70614 48.0825 8.70856C48.0206 8.71343 47.9604 8.73139 47.9059 8.76125C47.8514 8.7911 47.8039 8.83218 47.7665 8.88176V9.52565C47.763 9.57709 47.7679 9.62876 47.7811 9.67861C47.7866 9.69095 47.7935 9.70264 47.8016 9.71348C47.8098 9.72373 47.8205 9.73175 47.8326 9.73681C47.8486 9.74351 47.8656 9.74768 47.8829 9.74919C47.9101 9.75239 47.9376 9.75389 47.965 9.75368V9.80148H47.3613V9.75368H47.3894C47.416 9.75443 47.4425 9.75082 47.4679 9.743C47.4878 9.73629 47.5049 9.72313 47.5165 9.7056C47.5297 9.68434 47.5381 9.66044 47.541 9.63559C47.5459 9.59925 47.5482 9.5626 47.5477 9.52593V9.07212C47.5506 8.98275 47.547 8.89329 47.537 8.80444C47.5345 8.78002 47.524 8.75711 47.5072 8.7392C47.4912 8.72683 47.4712 8.72064 47.451 8.72177C47.4203 8.72301 47.3901 8.72978 47.3619 8.74173L47.3419 8.69365L47.71 8.54463H47.7662L47.7687 8.80303Z" fill="white"/>
<path d="M49.1316 8.17966V8.58089H49.4167V8.67424H49.1316V9.46575C49.1309 9.49918 49.134 9.53257 49.1409 9.56529C49.1453 9.58723 49.1539 9.60813 49.1662 9.62687C49.1754 9.64102 49.1886 9.65208 49.2041 9.65864C49.2197 9.66451 49.2362 9.66737 49.2528 9.66707C49.2831 9.66635 49.3125 9.65655 49.3371 9.63896C49.366 9.61905 49.3882 9.59094 49.401 9.55826H49.4533C49.4389 9.59879 49.4194 9.63733 49.3953 9.67298C49.3747 9.70371 49.3498 9.73135 49.3214 9.75508C49.2961 9.77592 49.2676 9.79254 49.237 9.80429C49.2081 9.81517 49.1774 9.82079 49.1465 9.82088C49.1255 9.82091 49.1046 9.81807 49.0844 9.81244C49.0637 9.80688 49.044 9.79835 49.0259 9.78714C49.0074 9.77606 48.9905 9.76243 48.9758 9.74665C48.9604 9.73031 48.9481 9.71124 48.9396 9.69041C48.9175 9.62725 48.9079 9.5604 48.9114 9.49359V8.67396H48.7183V8.62982C48.7738 8.6062 48.8246 8.57266 48.8681 8.53084C48.9211 8.48209 48.9671 8.42626 49.0048 8.36495C49.0146 8.34808 49.027 8.32446 49.0413 8.29353C49.0557 8.2626 49.0725 8.22493 49.09 8.18106L49.1316 8.17966Z" fill="white"/>
<path d="M50.975 9.75198V9.80147H50.2009V9.75198H50.2647C50.295 9.75487 50.3255 9.75045 50.3537 9.73909C50.3818 9.72774 50.4069 9.70979 50.4267 9.68675C50.4555 9.62241 50.4666 9.55154 50.4587 9.48149V8.31433C50.4587 8.27159 50.4587 8.23673 50.4565 8.2103C50.4554 8.18798 50.452 8.16584 50.4464 8.14422C50.4427 8.12924 50.4354 8.11535 50.4253 8.10373C50.4139 8.09271 50.4012 8.08326 50.3873 8.07561C50.3498 8.05471 50.3076 8.04367 50.2647 8.04356H50.2009V7.99435H50.975V8.04356H50.9095C50.8793 8.04071 50.8489 8.04517 50.8209 8.05658C50.7928 8.06798 50.7679 8.08599 50.7483 8.10907C50.7186 8.17313 50.7072 8.24419 50.7154 8.31433V9.48149C50.7154 9.52395 50.7154 9.55881 50.7177 9.58553C50.7188 9.60756 50.7222 9.62943 50.7278 9.65076C50.7315 9.66579 50.7389 9.67969 50.7492 9.69125C50.7608 9.70228 50.7739 9.71174 50.788 9.71937C50.825 9.74039 50.8669 9.75144 50.9095 9.75142L50.975 9.75198Z" fill="white"/>
<path d="M51.4831 8.80303C51.5285 8.73288 51.5886 8.67344 51.6592 8.62882C51.7298 8.5842 51.8093 8.55548 51.8922 8.54463C51.935 8.54425 51.9775 8.55178 52.0176 8.56684C52.0569 8.58308 52.0914 8.60935 52.1174 8.64304C52.1487 8.685 52.1713 8.7328 52.1838 8.78363C52.2014 8.85556 52.2095 8.92947 52.2079 9.00351V9.52481C52.2071 9.56631 52.2099 9.60781 52.2164 9.64881C52.2198 9.6739 52.2301 9.69756 52.2462 9.71713C52.2613 9.7325 52.2811 9.7424 52.3024 9.74525C52.3324 9.74976 52.3627 9.75183 52.3929 9.75143V9.79923H51.7893V9.75143H51.8146C51.8461 9.75247 51.8777 9.74887 51.9082 9.74075C51.9291 9.73477 51.9472 9.72163 51.9594 9.70363C51.9723 9.68254 51.9799 9.6586 51.9816 9.6339C51.985 9.59708 51.9865 9.5601 51.9861 9.52312V9.02572C51.9917 8.94278 51.9769 8.85973 51.9428 8.78391C51.928 8.75891 51.9065 8.73859 51.8807 8.72526C51.8548 8.71193 51.8258 8.70614 51.7969 8.70856C51.7349 8.71343 51.6747 8.73139 51.6203 8.76125C51.5658 8.7911 51.5183 8.83218 51.4808 8.88176V9.52565C51.4773 9.57709 51.4823 9.62876 51.4954 9.67861C51.501 9.69095 51.5079 9.70265 51.516 9.71348C51.5241 9.72369 51.5346 9.73171 51.5466 9.73681C51.5627 9.74351 51.5796 9.74768 51.5969 9.74919C51.6242 9.75239 51.6516 9.75389 51.679 9.75368V9.80148H51.0754V9.75368H51.1035C51.13 9.75443 51.1565 9.75082 51.1819 9.743C51.2019 9.73629 51.219 9.72313 51.2306 9.7056C51.2438 9.68434 51.2521 9.66044 51.255 9.63559C51.26 9.59925 51.2622 9.5626 51.2618 9.52593V9.07212C51.2646 8.98275 51.261 8.89329 51.2511 8.80444C51.2485 8.78002 51.2381 8.75711 51.2213 8.7392C51.2052 8.72683 51.1853 8.72064 51.1651 8.72177C51.1344 8.72301 51.1042 8.72977 51.0759 8.74173L51.056 8.69365L51.424 8.54463H51.4803L51.4831 8.80303Z" fill="white"/>
<path d="M53.2803 8.54461V8.96047H53.2362C53.2232 8.90421 53.2044 8.84946 53.18 8.79711C53.1621 8.75863 53.1374 8.72368 53.1071 8.69392C53.0817 8.66845 53.0507 8.6492 53.0166 8.63768C52.9802 8.62648 52.9422 8.62107 52.9041 8.62166C52.8754 8.62141 52.8468 8.62626 52.8198 8.636C52.7962 8.64424 52.7742 8.6563 52.7545 8.67171C52.737 8.6856 52.7225 8.70291 52.7118 8.7226C52.702 8.74033 52.6968 8.76025 52.6966 8.78052C52.6964 8.804 52.7 8.82736 52.7073 8.84969C52.7169 8.87487 52.7322 8.89749 52.752 8.91577C52.7815 8.94371 52.8142 8.96815 52.8493 8.98859C52.8912 9.0139 52.948 9.04483 53.018 9.07913C53.0756 9.1062 53.131 9.13779 53.1836 9.1736C53.2237 9.20015 53.2605 9.2315 53.293 9.26695C53.3192 9.29486 53.3396 9.32763 53.3532 9.3634C53.3651 9.39659 53.3711 9.43161 53.3709 9.46687C53.3717 9.51985 53.3596 9.57224 53.3357 9.61955C53.3129 9.66415 53.2813 9.70372 53.243 9.73595C53.2044 9.76844 53.1603 9.79368 53.1128 9.81047C53.065 9.8286 53.0143 9.83812 52.9632 9.83858C52.923 9.8384 52.8829 9.8353 52.8431 9.8293C52.7973 9.82234 52.752 9.8121 52.7076 9.79866C52.6924 9.79472 52.6795 9.79106 52.6674 9.78882C52.6568 9.78676 52.6461 9.78573 52.6353 9.78572C52.6249 9.78627 52.6149 9.7898 52.6064 9.79588C52.5979 9.80196 52.5914 9.81034 52.5875 9.82003H52.5434V9.38448H52.5875C52.5985 9.4414 52.6174 9.49649 52.6438 9.54813C52.6662 9.59177 52.6958 9.63139 52.7312 9.66538C52.7634 9.69557 52.801 9.7195 52.842 9.73595C52.8816 9.7519 52.9239 9.76011 52.9666 9.76014C52.9953 9.7606 53.024 9.75564 53.0509 9.74551C53.0751 9.73634 53.0974 9.72302 53.117 9.70615C53.1352 9.69001 53.15 9.67029 53.1603 9.64823C53.1705 9.62571 53.1757 9.60125 53.1755 9.57653C53.1758 9.54858 53.1712 9.52079 53.162 9.49442C53.1511 9.46726 53.1343 9.44286 53.1128 9.42301C53.0825 9.39533 53.0494 9.37092 53.0141 9.35018C52.9722 9.32516 52.9185 9.2962 52.8527 9.2633C52.7976 9.23712 52.7444 9.20734 52.6933 9.17417C52.6578 9.15056 52.6259 9.12217 52.5982 9.08981C52.5763 9.0643 52.5602 9.03424 52.5513 9.00181C52.5428 8.96769 52.5388 8.93263 52.5392 8.89749C52.5389 8.8492 52.5484 8.80136 52.5673 8.7569C52.5846 8.71452 52.6105 8.67621 52.6435 8.64443C52.6774 8.61216 52.7172 8.58668 52.7607 8.56936C52.8083 8.55041 52.8591 8.54086 52.9103 8.54124C52.9323 8.5419 52.9541 8.54463 52.9756 8.54939C53.0037 8.55474 53.029 8.56064 53.0562 8.56683L53.1299 8.58426C53.1448 8.58833 53.1601 8.59087 53.1755 8.59185C53.1873 8.59268 53.1991 8.58951 53.2089 8.58285C53.2209 8.57095 53.2305 8.55682 53.237 8.54124L53.2803 8.54461Z" fill="white"/>
<path d="M53.9079 8.17966V8.58089H54.193V8.67424H53.9079V9.46575C53.9072 9.49918 53.9103 9.53257 53.9172 9.56529C53.9217 9.58723 53.9302 9.60813 53.9425 9.62687C53.9517 9.64102 53.9649 9.65208 53.9805 9.65864C53.996 9.66451 54.0125 9.66737 54.0291 9.66707C54.0594 9.66635 54.0888 9.65655 54.1135 9.63896C54.1423 9.61907 54.1646 9.59095 54.1773 9.55826H54.2296C54.2152 9.59879 54.1957 9.63733 54.1717 9.67298C54.151 9.70371 54.1261 9.73135 54.0977 9.75508C54.0724 9.77592 54.0439 9.79254 54.0134 9.80429C53.9844 9.81517 53.9537 9.82079 53.9228 9.82088C53.9018 9.82091 53.8809 9.81807 53.8607 9.81244C53.8401 9.80687 53.8204 9.79835 53.8022 9.78714C53.7837 9.77606 53.7668 9.76243 53.7521 9.74665C53.7367 9.7303 53.7244 9.71124 53.7159 9.69041C53.6938 9.62725 53.6843 9.5604 53.6878 9.49359V8.67396H53.4946V8.62982C53.5501 8.6062 53.6009 8.57266 53.6445 8.53084C53.6974 8.48208 53.7434 8.42626 53.7811 8.36495C53.7909 8.34808 53.8033 8.32446 53.8177 8.29353C53.832 8.2626 53.8489 8.22493 53.8663 8.18106L53.9079 8.17966Z" fill="white"/>
<path d="M54.7329 8.5446V9.52534C54.7325 9.55706 54.7338 9.58879 54.7368 9.62038C54.7386 9.64054 54.7427 9.66044 54.7489 9.6797C54.7527 9.69264 54.7598 9.70437 54.7694 9.71373C54.7781 9.72168 54.7875 9.72875 54.7976 9.73481C54.8357 9.75 54.8767 9.75643 54.9176 9.75365V9.80145H54.3246V9.75365C54.3493 9.75377 54.374 9.75245 54.3986 9.74972C54.4147 9.74781 54.4304 9.74325 54.445 9.73622C54.4561 9.73069 54.4657 9.72259 54.4731 9.7126C54.4806 9.70193 54.487 9.69053 54.4922 9.67858C54.5079 9.6292 54.5143 9.57733 54.511 9.52562V9.05493C54.511 8.97733 54.511 8.91659 54.5071 8.87189C54.5061 8.83822 54.5014 8.80476 54.4933 8.77207C54.4918 8.76352 54.4885 8.75538 54.4837 8.74817C54.4788 8.74096 54.4725 8.73483 54.4652 8.73017C54.4498 8.72399 54.4332 8.72112 54.4166 8.72174C54.3855 8.72304 54.3548 8.72979 54.326 8.7417L54.3072 8.69362L54.675 8.5446H54.7329ZM54.6221 7.90605C54.6402 7.90594 54.6581 7.90958 54.6747 7.91673C54.6906 7.92331 54.7051 7.93286 54.7174 7.94485C54.7293 7.95731 54.7388 7.97178 54.7455 7.98759C54.7526 8.00427 54.7563 8.0222 54.7563 8.04031C54.7563 8.05843 54.7526 8.07636 54.7455 8.09303C54.7386 8.1089 54.7291 8.12353 54.7174 8.13633C54.7053 8.14859 54.6907 8.15816 54.6747 8.16445C54.6499 8.17496 54.6226 8.17789 54.5962 8.17289C54.5698 8.16788 54.5454 8.15516 54.5262 8.13633C54.5143 8.12372 54.5048 8.10905 54.4981 8.09303C54.491 8.07636 54.4874 8.05843 54.4874 8.04031C54.4874 8.0222 54.491 8.00427 54.4981 7.98759C54.5049 7.97178 54.5144 7.95731 54.5262 7.94485C54.5521 7.91965 54.5868 7.90553 54.623 7.90549" fill="white"/>
<path d="M55.4246 8.17966V8.58089H55.7097V8.67424H55.4246V9.46575C55.4239 9.49918 55.427 9.53257 55.4339 9.56529C55.4383 9.58723 55.4469 9.60813 55.4592 9.62687C55.4683 9.64102 55.4816 9.65208 55.4971 9.65864C55.5127 9.66451 55.5292 9.66737 55.5458 9.66707C55.5761 9.66635 55.6054 9.65655 55.6301 9.63896C55.659 9.61905 55.6812 9.59094 55.6939 9.55826H55.7462C55.7318 9.59879 55.7124 9.63733 55.6883 9.67298C55.6677 9.70371 55.6428 9.73135 55.6144 9.75508C55.5891 9.77592 55.5606 9.79254 55.53 9.80429C55.5011 9.81517 55.4704 9.82079 55.4395 9.82088C55.4185 9.82091 55.3976 9.81807 55.3773 9.81244C55.3567 9.80687 55.337 9.79835 55.3189 9.78714C55.3003 9.77606 55.2835 9.76243 55.2688 9.74665C55.2533 9.7303 55.241 9.71124 55.2325 9.69041C55.2105 9.62725 55.2009 9.5604 55.2044 9.49359V8.67396H55.0112V8.62982C55.0668 8.6062 55.1176 8.57266 55.1611 8.53084C55.2141 8.48208 55.26 8.42626 55.2978 8.36495C55.3076 8.34808 55.32 8.32446 55.3343 8.29353C55.3487 8.2626 55.3655 8.22493 55.383 8.18106L55.4246 8.17966Z" fill="white"/>
<path d="M56.8985 8.58063V9.3204C56.8958 9.40711 56.8989 9.4939 56.9078 9.58021C56.9113 9.60489 56.9228 9.62777 56.9404 9.64544C56.9546 9.65777 56.9728 9.66447 56.9916 9.66428C57.0239 9.66296 57.0556 9.65522 57.0849 9.6415L57.1038 9.68846L56.7382 9.83889H56.6781V9.58049C56.6085 9.66272 56.5279 9.73492 56.4385 9.79502C56.3848 9.82402 56.3246 9.8391 56.2636 9.83889C56.1997 9.84028 56.1372 9.81985 56.0865 9.78096C56.0364 9.74184 55.9996 9.68823 55.981 9.62744C55.9589 9.54127 55.9494 9.45233 55.9529 9.36342V8.81794C55.9537 8.78521 55.9503 8.75251 55.9428 8.72065C55.9377 8.69911 55.9263 8.67954 55.9102 8.66442C55.8934 8.6497 55.8728 8.63996 55.8508 8.6363C55.8214 8.63186 55.7917 8.6298 55.762 8.63011H55.7462V8.58063H56.1736V9.39772C56.1723 9.44571 56.178 9.49364 56.1905 9.54C56.1987 9.5712 56.214 9.60008 56.2352 9.62435C56.2524 9.64371 56.2749 9.65767 56.2999 9.66456C56.3247 9.67125 56.3503 9.67456 56.3761 9.6744C56.3966 9.67413 56.417 9.67139 56.4368 9.66624C56.461 9.65999 56.4843 9.65053 56.506 9.63813C56.5338 9.6226 56.5603 9.60483 56.5853 9.58499C56.6182 9.5589 56.6493 9.53073 56.6786 9.50063V8.80894C56.6791 8.78005 56.6764 8.75118 56.6705 8.7229C56.6663 8.70213 56.6559 8.68311 56.6407 8.66835C56.6235 8.65389 56.6029 8.6442 56.5808 8.64024C56.5485 8.63355 56.5156 8.63025 56.4826 8.6304V8.58091L56.8985 8.58063Z" fill="white"/>
<path d="M57.5475 8.17966V8.58089H57.8326V8.67424H57.5475V9.46575C57.5468 9.49918 57.5499 9.53257 57.5567 9.56529C57.5612 9.58723 57.5698 9.60813 57.582 9.62687C57.5912 9.64102 57.6045 9.65208 57.62 9.65864C57.6355 9.66451 57.652 9.66737 57.6686 9.66707C57.6989 9.66635 57.7283 9.65655 57.753 9.63896C57.7819 9.61905 57.8041 9.59094 57.8168 9.55826H57.8691C57.8547 9.59879 57.8353 9.63733 57.8112 9.67298C57.7906 9.70371 57.7657 9.73135 57.7372 9.75508C57.712 9.77592 57.6835 9.79254 57.6529 9.80429C57.6239 9.81517 57.5933 9.82079 57.5624 9.82088C57.5414 9.82091 57.5205 9.81807 57.5002 9.81244C57.4796 9.80688 57.4599 9.79835 57.4417 9.78714C57.4232 9.77606 57.4064 9.76243 57.3917 9.74665C57.3762 9.73031 57.3639 9.71124 57.3554 9.69041C57.3333 9.62725 57.3238 9.5604 57.3273 9.49359V8.67396H57.133V8.62982C57.1886 8.6062 57.2393 8.57266 57.2829 8.53084C57.3358 8.48209 57.3818 8.42626 57.4195 8.36495C57.4294 8.34808 57.4417 8.32446 57.4561 8.29353C57.4704 8.2626 57.4873 8.22493 57.5047 8.18106L57.5475 8.17966Z" fill="white"/>
<path d="M58.1568 9.04036C58.1554 9.12311 58.1675 9.20553 58.1925 9.28442C58.2133 9.35105 58.2465 9.41315 58.2903 9.46746C58.3279 9.5158 58.376 9.55501 58.4309 9.58218C58.4834 9.60802 58.5411 9.62149 58.5996 9.62155C58.6745 9.62316 58.7479 9.60014 58.8085 9.55603C58.8778 9.4962 58.9291 9.41833 58.9567 9.33109L58.9983 9.35921C58.9881 9.42019 58.9692 9.47937 58.9421 9.53495C58.9148 9.59161 58.8792 9.64384 58.8364 9.68987C58.7929 9.73522 58.7417 9.77237 58.6851 9.79953C58.6271 9.82782 58.5632 9.84216 58.4987 9.84143C58.4273 9.84197 58.3567 9.8267 58.292 9.79672C58.2275 9.76694 58.1701 9.72393 58.1233 9.67047C58.0727 9.61197 58.0337 9.54442 58.0083 9.4714C57.9788 9.38743 57.9644 9.2989 57.9658 9.20991C57.9641 9.11439 57.9787 9.01929 58.0091 8.92873C58.0349 8.8523 58.0752 8.78155 58.1278 8.72038C58.1772 8.66421 58.2388 8.61999 58.3078 8.59104C58.3777 8.56129 58.453 8.54626 58.529 8.5469C58.5932 8.5463 58.6569 8.55824 58.7166 8.58204C58.7727 8.60502 58.8234 8.63939 58.8656 8.68299C58.9082 8.72814 58.9413 8.7814 58.9629 8.8396C58.9877 8.90486 58.9998 8.97423 58.9986 9.04401L58.1568 9.04036ZM58.1568 8.96304H58.7211C58.7218 8.90677 58.7123 8.85084 58.693 8.79799C58.6722 8.74989 58.6375 8.70908 58.5934 8.68074C58.5528 8.65321 58.505 8.63833 58.4559 8.638C58.4195 8.638 58.3835 8.64557 58.3502 8.66021C58.3157 8.67505 58.2846 8.69676 58.2588 8.72404C58.23 8.75369 58.2066 8.78814 58.1897 8.82582C58.1706 8.86935 58.1592 8.91588 58.1562 8.96332" fill="white"/>
<path d="M1.15605 0.239838H6.09068L1.75186 5.03725L5.89554 10.1265H1.15605V0.239838Z" fill="#0057A6"/>
<path d="M1.15605 0.239838H6.09068L1.75186 5.03725L5.89554 10.1265H1.15605V0.239838Z" stroke="#EDEEEF" stroke-width="0.7" stroke-miterlimit="10"/>
<path d="M9.27246 1.73257C9.27246 2.04399 9.18011 2.34842 9.00709 2.60736C8.83407 2.8663 8.58816 3.06812 8.30044 3.1873C8.01272 3.30647 7.69613 3.33765 7.39069 3.2769C7.08525 3.21614 6.80469 3.06618 6.58448 2.84597C6.36427 2.62576 6.2143 2.3452 6.15355 2.03976C6.09279 1.73432 6.12397 1.41772 6.24315 1.13C6.36233 0.842288 6.56414 0.596372 6.82308 0.423354C7.08202 0.250337 7.38645 0.15799 7.69787 0.15799C7.90465 0.15799 8.1094 0.198717 8.30044 0.277847C8.49148 0.356978 8.66506 0.47296 8.81127 0.619174C8.95748 0.765387 9.07347 0.938968 9.1526 1.13C9.23173 1.32104 9.27246 1.52579 9.27246 1.73257Z" fill="#D9001A"/>
<path d="M7.69843 3.30659C8.56789 3.30659 9.27273 2.60175 9.27273 1.73229C9.27273 0.862828 8.56789 0.15799 7.69843 0.15799C6.82897 0.15799 6.12413 0.862828 6.12413 1.73229C6.12413 2.60175 6.82897 3.30659 7.69843 3.30659Z" stroke="#EDEEEF" stroke-width="0.7" stroke-miterlimit="10"/>
<path d="M9.20722 4.54633H6.40137V10.1257H9.20722V4.54633Z" fill="#0057A6"/>
<path d="M9.20722 4.54633H6.40137V10.1257H9.20722V4.54633Z" stroke="#EDEEEF" stroke-width="0.7" stroke-miterlimit="10"/>
<path d="M14.8158 3.87796C14.3322 1.83185 12.0358 0.263171 9.87585 0.163635V3.87796H14.8158Z" fill="#0057A6"/>
<path d="M14.8158 3.87796C14.3322 1.83185 12.0358 0.263171 9.87585 0.163635V3.87796H14.8158Z" stroke="#EDEEEF" stroke-width="0.7" stroke-miterlimit="10"/>
<path d="M9.87585 6.38971V10.1203C12.0409 10.0205 14.3446 8.44257 14.8198 6.38971H9.87585Z" fill="#0057A6"/>
<path d="M9.87585 6.38971V10.1203C12.0409 10.0205 14.3446 8.44257 14.8198 6.38971H9.87585Z" stroke="#EDEEEF" stroke-width="0.7" stroke-miterlimit="10"/>
<path d="M14.8198 4.12232C14.8158 4.10938 9.84942 4.07311 9.87585 4.03347L14.8198 3.95895V4.12232Z" fill="#76B984"/>
<path d="M14.8198 4.44846L10.096 4.37395V4.35961L14.8198 4.2851V4.44846Z" fill="#76B984"/>
<path d="M14.8209 4.77466L10.3173 4.70015V4.68581L14.8209 4.6113V4.77466Z" fill="#76B984"/>
<path d="M14.8209 5.71067L10.3173 5.63615V5.62238L14.8209 5.5473V5.71067Z" fill="#76B984"/>
<path d="M14.8198 5.10077L10.5366 5.02626V5.01192L14.8198 4.93741V5.10077Z" fill="#76B984"/>
<path d="M14.8198 5.41403L10.5366 5.33952V5.32518L14.8198 5.25067V5.41403Z" fill="#76B984"/>
<path d="M14.8198 5.99832L10.096 5.92381V5.90947L14.8198 5.83496V5.99832Z" fill="#76B984"/>
<path d="M14.8198 6.30814C14.8158 6.2952 9.84942 6.25893 9.87585 6.21929L14.8198 6.14478V6.30814Z" fill="#76B984"/>
<path d="M19.9248 5.91676V4.36721H22.6409V0.280884H21.6703V1.47982H17.1847V0.280884H16.2543V4.36721H18.9784V5.91676H16.1236V6.94446H22.7796V5.91676H19.9248ZM17.1847 2.32362H21.6709V3.58413H17.1847V2.32362Z" fill="white"/>
<path d="M31.1482 0.305084V1.85998H30.3763V2.81204H31.1482V4.29974L25.4966 4.28512V7.08282L32.0946 7.09884V0.305084H31.1482ZM31.1268 6.20977H26.4613V5.02546H31.1268V6.20977Z" fill="white"/>
<path d="M30.0794 0.770696H28.3536V0.0621338H27.3093V0.770696H25.4963V1.54477H26.1227C26.0018 1.82288 25.9519 2.12672 25.9776 2.4289C26.0034 2.73109 26.1039 3.02212 26.2702 3.27576C26.4364 3.5294 26.6632 3.73768 26.9301 3.88182C27.1969 4.02596 27.4954 4.10143 27.7987 4.10143C28.102 4.10143 28.4005 4.02596 28.6673 3.88182C28.9341 3.73768 29.1609 3.5294 29.3272 3.27576C29.4935 3.02212 29.594 2.73109 29.6197 2.4289C29.6455 2.12672 29.5956 1.82288 29.4746 1.54477H30.0794V0.770696ZM27.7988 3.31758C27.6093 3.31786 27.424 3.26191 27.2664 3.15682C27.1087 3.05172 26.9858 2.90221 26.9132 2.72721C26.8405 2.55221 26.8214 2.35959 26.8583 2.17375C26.8952 1.9879 26.9865 1.81717 27.1204 1.6832C27.2544 1.54922 27.4251 1.458 27.611 1.42111C27.7968 1.38421 27.9894 1.40329 28.1644 1.47593C28.3394 1.54856 28.489 1.67149 28.5941 1.82915C28.6991 1.98681 28.7551 2.17211 28.7548 2.36159C28.7548 2.61513 28.6541 2.85829 28.4748 3.03758C28.2955 3.21686 28.0524 3.31758 27.7988 3.31758Z" fill="white"/>
<path d="M37.8371 0.380707V2.91466C37.837 3.49441 37.6067 4.05041 37.1968 4.46041C36.7869 4.87041 36.231 5.10085 35.6512 5.10108H34.8111V4.20385H35.6335C35.971 4.20377 36.2946 4.06967 36.5333 3.83103C36.7719 3.59239 36.906 3.26874 36.9061 2.93125V1.15759H34.8111V0.380707H37.8371Z" fill="white"/>
<path d="M39.5663 0.380981H38.6038V6.99338H39.5663V0.380981Z" fill="white"/>
<path d="M41.2626 0.380981H40.3001V6.99338H41.2626V0.380981Z" fill="white"/>
<path d="M40.5122 2.65402H39.3703V3.4863H40.5122V2.65402Z" fill="white"/>
<path d="M46.9724 0.381287V1.15311H44.7871V0.381287H43.8998V3.31507H47.8697V0.381287H46.9724ZM46.9724 2.51513H44.7871V1.96852H46.973L46.9724 2.51513Z" fill="white"/>
<path d="M50.8217 1.28384V2.09925H50.1368V5.73738H44.8842V6.09559H50.1368V6.99283H43.9V5.10108H49.1735V4.72599H43.9V3.89427H49.2398V0.380707H50.1371V1.28384H50.8217Z" fill="white"/>
<path d="M56.4354 1.92072C56.4354 1.61418 56.3588 1.3125 56.2127 1.04301C56.0667 0.773523 55.8556 0.544746 55.5988 0.377411C55.342 0.210077 55.0474 0.109475 54.7419 0.0847216C54.4364 0.0599683 54.1295 0.111846 53.8491 0.235654C53.5686 0.359462 53.3235 0.551287 53.136 0.793745C52.9484 1.0362 52.8243 1.32163 52.7749 1.62416C52.7256 1.9267 52.7524 2.23677 52.8532 2.52629C52.9539 2.81581 53.1253 3.07561 53.3518 3.28217H52.7506V4.17153H54.3949V5.5088H55.1946V4.17125H56.5212V3.28217H55.8348C56.0242 3.10959 56.1755 2.89934 56.2789 2.66489C56.3823 2.43044 56.4356 2.17697 56.4354 1.92072ZM54.619 0.883745C54.8808 0.889208 55.1297 0.998395 55.311 1.18731C55.4924 1.37622 55.5912 1.6294 55.586 1.8912C55.5914 2.02154 55.5705 2.15164 55.5243 2.27367C55.4782 2.3957 55.4079 2.50715 55.3176 2.6013C55.2273 2.69545 55.1189 2.77037 54.9989 2.82155C54.8789 2.87273 54.7498 2.89911 54.6193 2.89911C54.4888 2.89911 54.3597 2.87273 54.2397 2.82155C54.1197 2.77037 54.0113 2.69545 53.921 2.6013C53.8307 2.50715 53.7604 2.3957 53.7143 2.27367C53.6681 2.15164 53.6472 2.02154 53.6526 1.8912C53.6473 1.6295 53.7462 1.3764 53.9274 1.1875C54.1086 0.998606 54.3573 0.889355 54.619 0.883745Z" fill="white"/>
<path d="M58.8808 0.272461V6.99255H52.7512V5.1337H53.7021V6.19401H58.0167V5.22368H56.6466V4.28511H58.0167V0.272461H58.8808Z" fill="white"/>
</g>
</svg>
