<svg width="156" height="18" viewBox="0 0 156 18" fill="none" xmlns="http://www.w3.org/2000/svg">
<path d="M3.744 10.582H7.362L6.84 8.8C6.39 7.36 5.994 5.884 5.58 4.39H5.508C5.13 5.902 4.716 7.36 4.284 8.8L3.744 10.582ZM8.982 16L7.866 12.22H3.258L2.124 16H0L4.392 2.752H6.804L11.196 16H8.982ZM30.2936 16.234C28.4756 16.234 26.7836 15.514 25.5776 14.29L26.8016 12.85C27.7556 13.804 29.0516 14.416 30.3296 14.416C31.9316 14.416 32.8316 13.66 32.8316 12.544C32.8316 11.338 31.9316 10.96 30.7076 10.42L28.8716 9.628C27.5936 9.088 26.1716 8.08 26.1716 6.154C26.1716 4.066 28.0076 2.5 30.5276 2.5C32.0756 2.5 33.5336 3.148 34.5416 4.174L33.4436 5.506C32.6156 4.768 31.6976 4.318 30.5276 4.318C29.1776 4.318 28.2956 4.966 28.2956 6.028C28.2956 7.162 29.3576 7.594 30.4376 8.026L32.2556 8.8C33.8216 9.466 34.9556 10.438 34.9556 12.382C34.9556 14.506 33.1916 16.234 30.2936 16.234ZM77.2889 6.442V9.106H84.9929V6.442H77.2889ZM82.0589 13.876H88.5209V15.406H73.7969V13.876H80.2049V10.6H75.4529V2.212H77.2889V4.948H84.9929V2.212H86.8289V10.6H82.0589V13.876ZM99.8235 2.698V4.174H90.3915V2.698H94.1715V0.969999H96.0435V2.698H99.8235ZM93.0555 7.792C93.0555 8.728 93.9015 9.322 95.1075 9.322C96.3135 9.322 97.1595 8.728 97.1595 7.792C97.1595 6.874 96.3135 6.28 95.1075 6.28C93.9015 6.28 93.0555 6.874 93.0555 7.792ZM98.9235 7.792C98.9235 9.538 97.3395 10.708 95.1075 10.708C92.8755 10.708 91.2915 9.538 91.2915 7.792C91.2915 6.064 92.8755 4.876 95.1075 4.876C97.3395 4.876 98.9235 6.064 98.9235 7.792ZM94.9635 13.21V15.712H102.002V13.21H94.9635ZM93.1455 17.188V11.752H103.82V17.188H93.1455ZM101.966 1.114H103.82V10.96H101.966V7.504H99.5535V5.974H101.966V1.114ZM121.008 8.818L120.234 10.366C117.57 9.844 115.266 8.224 114.222 6.064C113.142 8.224 110.838 9.844 108.192 10.366L107.4 8.818C110.622 8.278 113.232 5.848 113.232 3.346V2.122H115.194V3.346C115.194 5.866 117.804 8.278 121.008 8.818ZM115.122 13.84H121.638V15.37H106.914V13.84H113.268V10.042H115.122V13.84ZM134.975 1.114H136.847V17.422H134.975V1.114ZM124.337 2.464H126.173V6.604H130.295V2.464H132.149V13.552H124.337V2.464ZM126.173 8.08V12.058H130.295V8.08H126.173ZM145.719 4.282V5.848C145.719 8.368 147.321 11.248 149.787 12.418L148.761 13.876C146.943 13.012 145.557 11.212 144.819 9.16C144.099 11.428 142.659 13.372 140.787 14.29L139.725 12.814C142.209 11.626 143.865 8.548 143.865 5.848V4.282H140.319V2.752H149.157V4.282H145.719ZM155.151 7.54V9.07H152.613V17.386H150.759V1.132H152.613V7.54H155.151Z" fill="white"/>
<path d="M17.9833 16.234C14.5813 16.234 12.2233 13.588 12.2233 9.322C12.2233 5.056 14.5813 2.5 17.9833 2.5C21.3853 2.5 23.7613 5.056 23.7613 9.322C23.7613 13.588 21.3853 16.234 17.9833 16.234ZM17.9833 14.416C20.1793 14.416 21.6193 12.436 21.6193 9.322C21.6193 6.208 20.1793 4.318 17.9833 4.318C15.7873 4.318 14.3653 6.208 14.3653 9.322C14.3653 12.436 15.7873 14.416 17.9833 14.416ZM38.6348 5.308C38.6348 6.604 39.6788 7.468 41.1188 7.468C42.5408 7.468 43.5668 6.604 43.5668 5.308C43.5668 4.012 42.5408 3.166 41.1188 3.166C39.6788 3.166 38.6348 4.012 38.6348 5.308ZM45.3668 5.308C45.3668 7.45 43.5668 8.962 41.1188 8.962C38.6528 8.962 36.8348 7.45 36.8348 5.308C36.8348 3.166 38.6528 1.654 41.1188 1.654C43.5668 1.654 45.3668 3.166 45.3668 5.308ZM40.6868 14.236V15.712H49.8668V17.188H38.8688V12.886H47.4908V11.5H38.8328V10.042H49.3268V14.236H40.6868ZM49.3268 4.462H51.6128V5.992H49.3268V9.34H47.4728V1.114H49.3268V4.462ZM56.7953 4.264V11.932C57.5153 11.914 58.2713 11.878 59.0093 11.842V4.264H56.7953ZM60.8093 4.264V11.752C61.5653 11.68 62.3213 11.608 63.0413 11.518L63.1493 12.886C59.7833 13.444 56.0213 13.498 53.1953 13.498L52.9973 11.968C53.6093 11.968 54.2933 11.968 54.9953 11.968V4.264H53.4113V2.77H62.3933V4.264H60.8093ZM68.3153 7.486V9.016H65.7773V17.404H63.9233V1.132H65.7773V7.486H68.3153Z" fill="#62D1FF"/>
</svg>
