<svg width="24" height="19" viewBox="0 0 24 19" fill="none" xmlns="http://www.w3.org/2000/svg">
<path d="M5.81187 14.645C4.86222 14.645 4.08891 15.4183 4.08891 16.3689C4.08891 17.3186 4.86222 18.0919 5.81187 18.0919C6.76246 18.0919 7.53576 17.3186 7.53576 16.3689C7.53576 15.4183 6.76246 14.645 5.81187 14.645ZM5.81187 18.8105C4.46614 18.8105 3.37031 17.7156 3.37031 16.3689C3.37031 15.0223 4.46614 13.9264 5.81187 13.9264C7.15854 13.9264 8.25437 15.0223 8.25437 16.3689C8.25437 17.7156 7.15854 18.8105 5.81187 18.8105Z" fill="#303030"/>
<path d="M3.08757 12.1603C3.07991 12.1603 3.07224 12.1603 3.06458 12.1593L0.336798 11.9812C0.138535 11.9678 -0.0118375 11.7973 0.00157154 11.599C0.0140228 11.4008 0.187381 11.2504 0.38277 11.2638L3.08182 11.441L4.43805 11.3098L4.7886 11.0435C4.94568 10.9228 5.17172 10.9535 5.29144 11.1105C5.41212 11.2686 5.38147 11.4937 5.22439 11.6143L4.79244 11.9438C4.73976 11.984 4.67558 12.0089 4.60949 12.0157L3.12205 12.1584C3.11055 12.1593 3.09906 12.1603 3.08757 12.1603ZM10.2815 14.4829C10.271 14.4829 10.2595 14.482 10.249 14.481C9.20402 14.3862 9.06705 14.3115 9.00863 14.2789C9.00575 14.278 9.00288 14.276 8.99905 14.2741L7.49627 13.3968C7.27694 13.2742 7.16009 13.0347 7.1984 12.7857C7.23767 12.5348 7.42348 12.3413 7.67251 12.2925C7.68113 12.2905 7.69071 12.2886 7.69933 12.2877L8.23282 12.2245C8.42916 12.2005 8.60827 12.3413 8.63125 12.5376C8.6552 12.735 8.5144 12.9141 8.31805 12.938L8.16673 12.9562L9.33715 13.6391C9.46166 13.6736 9.93193 13.7311 10.3141 13.7655C10.5114 13.7837 10.657 13.9581 10.6388 14.1563C10.6215 14.3421 10.4654 14.4829 10.2815 14.4829Z" fill="#303030"/>
<path d="M2.73245 17.0605H0.360145C0.161465 17.0605 0.00106812 16.9001 0.00106812 16.7014C0.00106812 16.5027 0.161465 16.3423 0.360145 16.3423H2.73245C2.93022 16.3423 3.09154 16.5027 3.09154 16.7014C3.09154 16.9001 2.93022 17.0605 2.73245 17.0605Z" fill="#303030"/>
<path d="M9.85906 16.9739H9.20528C9.00731 16.9739 8.84604 16.8126 8.84604 16.6146C8.84604 16.4157 9.00731 16.2554 9.20528 16.2554H9.85906C10.0281 16.2554 10.594 16.0478 10.9233 15.646C11.127 15.3988 11.1985 15.1352 11.1434 14.8416L10.763 13.3737C10.6963 13.1169 10.5196 12.9054 10.2791 12.7933C9.33275 12.354 3.59358 9.84989 3.33671 9.73787C1.97313 9.22604 0.27542 8.72484 0.258037 8.72001C0.067794 8.664 -0.0413229 8.4641 0.0146879 8.27385C0.0706986 8.08361 0.270592 7.97449 0.460835 8.0305C0.478218 8.03532 2.20973 8.54618 3.59841 9.06863C3.6042 9.07056 3.60999 9.07346 3.61579 9.07539C3.86011 9.18258 9.61088 11.6905 10.5824 12.1425C11.0179 12.3443 11.3376 12.7277 11.4583 13.1931L11.8416 14.6716C11.8436 14.6784 11.8445 14.6852 11.8465 14.6919C11.9469 15.1999 11.8194 15.6876 11.4785 16.1028C11.212 16.4263 10.8769 16.633 10.6432 16.7489C10.3545 16.8918 10.0686 16.9739 9.85906 16.9739Z" fill="#303030"/>
<path d="M18.188 14.645C17.2383 14.645 16.4649 15.4184 16.4649 16.3691C16.4649 17.3188 17.2383 18.0922 18.188 18.0922C19.1387 18.0922 19.9121 17.3188 19.9121 16.3691C19.9121 15.4184 19.1387 14.645 18.188 14.645ZM18.188 18.8106C16.842 18.8106 15.7466 17.7152 15.7466 16.3691C15.7466 15.0221 16.842 13.9267 18.188 13.9267C19.5351 13.9267 20.6305 15.0221 20.6305 16.3691C20.6305 17.7152 19.5351 18.8106 18.188 18.8106Z" fill="#127DF1"/>
<path d="M20.9125 12.1603C20.9011 12.1603 20.8897 12.1592 20.8782 12.1582L19.3915 12.0157C19.325 12.0085 19.2605 11.9835 19.2075 11.943L18.776 11.6144C18.618 11.4938 18.5879 11.2682 18.7085 11.1102C18.8291 10.9532 19.0547 10.922 19.2127 11.0426L19.562 11.3098L20.9188 11.4408L23.6167 11.2641C23.8142 11.2506 23.9858 11.4013 23.9993 11.5988C24.0117 11.7964 23.862 11.9679 23.6645 11.9804L20.9364 12.1592C20.9281 12.1603 20.9209 12.1603 20.9125 12.1603ZM13.7191 14.4828C13.5351 14.4828 13.3781 14.3425 13.3615 14.1554C13.3428 13.9578 13.4894 13.7832 13.6869 13.7655C14.0685 13.7301 14.5394 13.673 14.6632 13.6386L15.8338 12.9556L15.6831 12.9369C15.4855 12.914 15.3452 12.7352 15.3691 12.5376C15.392 12.3412 15.5708 12.2008 15.7683 12.2237L16.3017 12.2881C16.31 12.2892 16.3193 12.2902 16.3277 12.2923C16.5772 12.3412 16.7622 12.5345 16.8017 12.7861C16.8402 13.0346 16.7238 13.2737 16.5044 13.3964L15.001 14.2739C14.9979 14.276 14.9948 14.277 14.9917 14.2791C14.9335 14.3113 14.7962 14.3862 13.7514 14.4808C13.741 14.4818 13.7295 14.4828 13.7191 14.4828Z" fill="#303030"/>
<path d="M23.6401 17.0611H21.2686C21.0701 17.0611 20.9089 16.9 20.9089 16.7014C20.9089 16.5028 21.0701 16.3417 21.2686 16.3417H23.6401C23.8386 16.3417 23.9998 16.5028 23.9998 16.7014C23.9998 16.9 23.8386 17.0611 23.6401 17.0611Z" fill="#303030"/>
<path d="M14.7952 16.9728H14.1412C13.7628 16.9728 12.9883 16.6703 12.5214 16.1016C12.1804 15.6878 12.0536 15.2002 12.1534 14.6918C12.1555 14.6856 12.1565 14.6783 12.1586 14.671L12.5422 13.1926C12.6628 12.7269 12.982 12.3443 13.4176 12.1416C14.3897 11.6903 20.1411 9.18165 20.3854 9.0756C20.3906 9.07248 20.3958 9.0704 20.402 9.06832C21.791 8.54537 23.5221 8.03491 23.5387 8.02971C23.73 7.97357 23.9286 8.08273 23.9847 8.27298C24.0408 8.46324 23.9327 8.66286 23.7425 8.719C23.7248 8.7242 22.026 9.22531 20.664 9.73786C20.4062 9.85015 14.6673 12.3536 13.7212 12.7934C13.48 12.9047 13.3043 13.1168 13.2378 13.3735L12.8573 14.8415C12.8011 15.1358 12.8729 15.3988 13.0766 15.6462C13.4062 16.0475 13.9728 16.2544 14.1412 16.2544H14.7952C14.9927 16.2544 15.1539 16.4156 15.1539 16.6142C15.1539 16.8127 14.9927 16.9728 14.7952 16.9728Z" fill="#303030"/>
<path d="M8.5528 10.1559C8.43761 10.1559 8.32442 10.0998 8.2543 9.99666L6.57857 7.50659C6.49043 7.37537 6.49744 7.20409 6.5956 7.08089C6.69376 6.95869 6.86003 6.91362 7.00627 6.97071L9.11571 7.79106L9.24693 2.31511C9.25094 2.15185 9.36412 2.01162 9.52238 1.97456C9.68164 1.93649 9.84591 2.00962 9.92303 2.15385L12.7376 7.38539L14.792 4.92036C14.8931 4.79816 15.0614 4.7571 15.2067 4.8192C15.3529 4.8803 15.441 5.02955 15.425 5.1868L15.1426 7.92527L17.3221 7.34132C17.4754 7.30025 17.6376 7.36536 17.7208 7.49957C17.8039 7.6348 17.7889 7.80808 17.6837 7.92728L15.8157 10.0347C15.6834 10.183 15.4571 10.197 15.3078 10.0658C15.1596 9.93355 15.1466 9.70618 15.2778 9.55794L16.3525 8.34496L14.825 8.75463C14.7108 8.78468 14.5886 8.75763 14.4995 8.68051C14.4094 8.60438 14.3633 8.48819 14.3753 8.371L14.5896 6.28459L12.948 8.25381C12.8718 8.34596 12.7557 8.39304 12.6365 8.38202C12.5173 8.37 12.4121 8.29888 12.356 8.19471L9.93305 3.68936L9.82186 8.31992C9.81886 8.43711 9.75977 8.54529 9.66261 8.61039C9.56545 8.6755 9.44225 8.68852 9.33307 8.64645L7.81358 8.05548L8.85028 9.59601C8.96146 9.76027 8.91739 9.98364 8.75313 10.0948C8.69203 10.1359 8.62191 10.1559 8.5528 10.1559Z" fill="#127DF1"/>
<path d="M5.8225 6.61084C5.72293 6.61084 5.62428 6.5699 5.55356 6.4908L5.17016 6.059C5.03802 5.91104 5.05197 5.68398 5.19993 5.55184C5.34883 5.41969 5.57589 5.43365 5.7071 5.58162L6.0905 6.0134C6.22265 6.16137 6.20962 6.38843 6.06072 6.52057C5.99186 6.58106 5.90718 6.61084 5.8225 6.61084Z" fill="#303030"/>
<path d="M15.6423 4.16785C15.5976 4.16785 15.553 4.15991 15.5093 4.14206C15.3248 4.06865 15.2355 3.85933 15.3089 3.67481L15.5004 3.19564C15.5738 3.01211 15.7831 2.92184 15.9677 2.99624C16.1522 3.06965 16.2415 3.27897 16.168 3.4625L15.9756 3.94166C15.92 4.08253 15.7851 4.16785 15.6423 4.16785Z" fill="#303030"/>
<path d="M9.07956 1.15067C8.92842 1.15067 8.78869 1.05466 8.73831 0.904469L8.59477 0.473856C8.53203 0.285641 8.63374 0.0812612 8.82196 0.0185226C9.01017 -0.044216 9.2136 0.0574965 9.27634 0.246663L9.41988 0.677276C9.48262 0.865492 9.3809 1.06891 9.19269 1.13165C9.15466 1.14401 9.11664 1.15067 9.07956 1.15067Z" fill="#303030"/>
<path d="M18.3727 6.99455C18.2809 6.99455 18.1891 6.95925 18.1185 6.88864C17.9783 6.74842 17.9783 6.52146 18.1185 6.38125L18.3102 6.1896C18.4504 6.04938 18.6783 6.04938 18.8185 6.1896C18.9588 6.32981 18.9588 6.55677 18.8185 6.69698L18.6269 6.88864C18.5573 6.95925 18.4645 6.99455 18.3727 6.99455Z" fill="#303030"/>
<path d="M19.6184 5.74834C19.5951 5.74834 19.5707 5.7463 19.5484 5.74123C19.5251 5.73717 19.5027 5.73007 19.4814 5.72093C19.4591 5.71281 19.4388 5.70063 19.4185 5.68744C19.3992 5.67526 19.3809 5.66003 19.3637 5.64379C19.3474 5.62653 19.3322 5.60827 19.32 5.58898C19.3068 5.56868 19.2957 5.54838 19.2865 5.52706C19.2774 5.50474 19.2703 5.48241 19.2662 5.45907C19.2612 5.43674 19.2591 5.41339 19.2591 5.38903C19.2591 5.36569 19.2612 5.34234 19.2662 5.319C19.2703 5.29565 19.2774 5.27333 19.2865 5.25201C19.2957 5.2307 19.3068 5.20939 19.32 5.1901C19.3322 5.1698 19.3474 5.15153 19.3637 5.13529C19.3809 5.11905 19.3992 5.10382 19.4185 5.09063C19.4388 5.07743 19.4591 5.06627 19.4814 5.05713C19.5027 5.048 19.5251 5.04191 19.5484 5.03684C19.6651 5.01349 19.7889 5.05206 19.8722 5.13529C19.9392 5.20228 19.9777 5.29464 19.9777 5.38903C19.9777 5.41339 19.9757 5.43674 19.9706 5.45907C19.9656 5.48241 19.9595 5.50474 19.9503 5.52706C19.9412 5.54838 19.93 5.56868 19.9168 5.58898C19.9036 5.60827 19.8884 5.62653 19.8722 5.64379C19.8559 5.66003 19.8377 5.67526 19.8174 5.68744C19.7981 5.70063 19.7778 5.71281 19.7555 5.72093C19.7341 5.73007 19.7118 5.73717 19.6885 5.74123C19.6651 5.7463 19.6418 5.74834 19.6184 5.74834Z" fill="#303030"/>
</svg>
