<svg width="24" height="19" viewBox="0 0 24 19" fill="none" xmlns="http://www.w3.org/2000/svg">
<path d="M17.668 7.6232L17.599 7.31973L17.9156 7.22902C19.2036 7.93962 20.8191 7.56643 21.6734 6.36132C22.5981 5.05698 22.2918 3.24535 20.9913 2.3234C19.6897 1.40068 17.8799 1.71228 16.9553 3.01662C16.6427 3.45754 16.4588 3.97435 16.4256 4.51172L16.178 4.73178L15.9601 4.48455C15.9981 3.86036 16.2125 3.25933 16.5754 2.74734C17.6494 1.2324 19.7519 0.871091 21.262 1.94162C22.7727 3.01261 23.1263 5.11505 22.0524 6.62999C21.0606 8.02902 19.185 8.46192 17.6896 7.63719L17.668 7.6232Z" fill="#303030"/>
<path d="M4.36082 18.4133H2.15485C1.63026 18.4133 1.20443 17.9861 1.20443 17.4604V15.3695L1.51661 15.0587L1.82882 15.3695V17.4604L2.15485 17.7879H4.36082L4.68935 17.4604V15.4082L5.00156 15.096L5.31374 15.4082V17.4604C5.31374 17.9861 4.8879 18.4133 4.36082 18.4133Z" fill="#303030"/>
<path d="M16.9719 18.4133H14.7663C14.2388 18.4133 13.813 17.9861 13.813 17.4604V15.4082L14.1252 15.096L14.4374 15.4082V17.4604L14.7663 17.7879H16.9719L17.2979 17.4604V15.3695L17.6101 15.0587L17.9266 15.3695V17.4604C17.9266 17.9861 17.4951 18.4133 16.9719 18.4133Z" fill="#303030"/>
<path d="M9.50798 9.30392C5.78294 9.27196 3.10496 8.52822 2.99415 8.49768L2.77642 8.1109L3.16356 7.89566C3.18842 7.90276 5.87565 8.64897 9.51225 8.67951L9.82019 8.99315L9.50798 9.30392Z" fill="#303030"/>
<path d="M0.312206 8.59506L0 8.28288V6.74427L0.312206 6.43208H1.91616L2.15767 6.54715L3.2161 7.83891L3.1717 8.27861L2.73482 8.23562L1.76628 7.05788H0.62439V8.28288L0.312206 8.59506Z" fill="#303030"/>
<path d="M18.5925 18.4133H0.471694L0.159857 18.1011L0.471694 17.7879H18.5925L18.9048 18.1011L18.5925 18.4133Z" fill="#303030"/>
<path d="M1.59297 13.5938H0.614816L0.302632 13.283L0.614816 12.9708H1.59297C2.63327 12.9708 3.49348 12.1759 3.59328 11.1616H0.614816L0.302632 10.8493L0.614816 10.5375H3.91684L4.22905 10.8493V10.9563C4.22905 12.4118 3.04562 13.5938 1.59297 13.5938Z" fill="#303030"/>
<path d="M18.5119 13.5938H17.5338C16.0815 13.5938 14.8981 12.4118 14.8981 10.9563V10.8493L15.2103 10.5375H18.5119L18.8241 10.8493L18.5119 11.1616H15.5335C15.6375 12.1759 16.4935 12.9708 17.5338 12.9708H18.5119L18.8241 13.283L18.5119 13.5938Z" fill="#303030"/>
<path d="M12.7031 11.1615H6.35867L6.04648 10.8493L6.35867 10.5374H12.7031L13.0153 10.8493L12.7031 11.1615Z" fill="#303030"/>
<path d="M12.7031 12.6394H6.35867L6.04648 12.3272L6.35867 12.015H12.7031L13.0153 12.3272L12.7031 12.6394Z" fill="#303030"/>
<path d="M17.3146 15.7205H12.3493L12.0371 15.4083V14.5623H7.08959V15.4083L6.7774 15.7205H1.81211C0.978168 15.7205 0.302632 15.0421 0.302632 14.2096V10.8493L0.385724 10.6359L2.79308 8.04132L3.2065 6.41678C3.59755 4.87676 4.9781 3.80166 6.56678 3.80166H12.176L12.4868 4.11385L12.176 4.42605H6.56678C5.26259 4.42605 4.13173 5.30829 3.81279 6.5695L3.37984 8.27185L3.30631 8.40894L0.927022 10.9729V14.2096C0.927022 14.6994 1.32233 15.0961 1.81211 15.0961H6.4652V14.2501L6.7774 13.9379H12.3493L12.6615 14.2501V15.0961H17.3146C17.8044 15.0961 18.1997 14.6994 18.1997 14.2096V10.9729L17.6865 10.4196L17.7046 9.97807L18.1443 9.99476L18.741 10.6359L18.8241 10.8493V14.2096C18.8241 15.0421 18.1486 15.7205 17.3146 15.7205Z" fill="#303030"/>
<path d="M7.0896 15.3863H12.0372V14.5623H7.0896V15.3863ZM12.3493 16.0107H6.77742L6.46521 15.6985V14.2501L6.77742 13.9379H12.3493L12.6615 14.2501V15.6985L12.3493 16.0107Z" fill="#127DF1"/>
<path d="M14.8286 4.50834C13.3731 4.50834 12.1911 5.69034 12.1911 7.14548C12.1911 8.60097 13.3731 9.78299 14.8286 9.78299C16.2841 9.78299 17.4675 8.60097 17.4675 7.14548C17.4675 5.69034 16.2841 4.50834 14.8286 4.50834ZM14.8286 10.4074C13.0304 10.4074 11.5667 8.94371 11.5667 7.14548C11.5667 5.34476 13.0304 3.88254 14.8286 3.88254C16.6293 3.88254 18.0902 5.34476 18.0902 7.14548C18.0902 8.94371 16.6293 10.4074 14.8286 10.4074Z" fill="#303030"/>
<path d="M19.3729 6.71356C18.726 6.71356 18.1994 6.19844 18.1994 5.56594L18.4375 5.33411L18.6745 5.56594C18.6745 5.94285 18.9884 6.24987 19.3729 6.24987C19.7583 6.24987 20.0702 5.94285 20.0702 5.56594C20.0702 5.18982 19.7583 4.88281 19.3729 4.88281C18.726 4.88281 18.1994 4.36769 18.1994 3.73598C18.1994 3.10349 18.726 2.58836 19.3729 2.58836C20.0185 2.58836 20.5451 3.10349 20.5451 3.73598L20.3081 3.96782L20.0702 3.73598C20.0702 3.35986 19.7583 3.05284 19.3729 3.05284C18.9884 3.05284 18.6745 3.35986 18.6745 3.73598C18.6745 4.11105 18.9884 4.41806 19.3729 4.41806C20.0185 4.41806 20.5451 4.93318 20.5451 5.56594C20.5451 6.19844 20.0185 6.71356 19.3729 6.71356Z" fill="#303030"/>
<path d="M19.4127 3.07367L19.17 2.83684V2.58174L19.4127 2.34569L19.6554 2.58174V2.83684L19.4127 3.07367Z" fill="#303030"/>
<path d="M19.4127 6.95621L19.17 6.74586V6.51946L19.4127 6.30912L19.6554 6.51946V6.74586L19.4127 6.95621Z" fill="#303030"/>
<path d="M14.1136 5.71912L14.0926 5.72109L13.8081 6.04832L13.9142 6.25826L14.1358 6.32947L14.4203 6.00323L14.1136 5.71912ZM14.1119 6.79443L13.6105 6.60667L13.3484 6.08208C13.3166 5.65851 13.6347 5.29087 14.0588 5.25908C14.481 5.23321 14.8492 5.54787 14.881 5.96947C14.9118 6.39304 14.5938 6.76068 14.1696 6.79148L14.1119 6.79443Z" fill="#303030"/>
<path d="M15.5333 7.90406H15.5068L15.2106 8.23165L15.5557 8.51583L15.7757 8.40976L15.8519 8.18823L15.7432 7.97904L15.5333 7.90406ZM15.5302 8.97836C15.1121 8.97836 14.7539 8.67001 14.7235 8.2652C14.691 7.84411 15.0277 7.47335 15.4712 7.44152L16.06 7.62752L16.339 8.15444L16.1442 8.71145L15.591 8.97639L15.5302 8.97836Z" fill="#303030"/>
<path d="M13.6988 8.16949L13.508 8.07393L13.5586 7.74107L15.8442 6.06645L16.1772 6.11588L16.1259 6.44873L13.8403 8.12335L13.6988 8.16949Z" fill="#127DF1"/>
</svg>
