<svg width="50" height="50" viewBox="0 0 50 50" fill="none" xmlns="http://www.w3.org/2000/svg">
<circle cx="25" cy="25" r="25" fill="#007EC5"/>
<path d="M19.7794 35.8121H11.4059C11.1817 35.8121 11 35.6303 11 35.4062V14.0294C11 13.8054 11.1817 13.6236 11.4059 13.6236H27.6656C27.8897 13.6236 28.0715 13.8054 28.0715 14.0294V22.8044C28.0715 23.0285 27.8897 23.2103 27.6656 23.2103C27.4414 23.2103 27.2597 23.0285 27.2597 22.8044V14.4353H11.8118V35.0004H19.7794C20.0035 35.0004 20.1853 35.1822 20.1853 35.4062C20.1853 35.6303 20.0035 35.8121 19.7794 35.8121Z" fill="white"/>
<path d="M29.6168 22.7864C29.3926 22.7864 29.2109 22.6046 29.2109 22.3805V12.8118H13.357C13.1329 12.8118 12.9511 12.6299 12.9511 12.4059C12.9511 12.1818 13.1329 12 13.357 12H29.6168C29.8409 12 30.0227 12.1818 30.0227 12.4059V22.3805C30.0227 22.6046 29.8409 22.7864 29.6168 22.7864Z" fill="white"/>
<path d="M21.5729 24.8261H20.4643C20.2402 24.8261 20.0585 24.6442 20.0585 24.4202C20.0585 24.1961 20.2402 24.0143 20.4643 24.0143H21.5729C21.797 24.0143 21.9787 24.1961 21.9787 24.4202C21.9787 24.6442 21.797 24.8261 21.5729 24.8261Z" fill="white"/>
<path d="M19.0551 24.8261H14.2741C14.05 24.8261 13.8683 24.6442 13.8683 24.4202C13.8683 24.1961 14.05 24.0143 14.2741 24.0143H19.0551C19.2792 24.0143 19.461 24.1961 19.461 24.4202C19.461 24.6442 19.2792 24.8261 19.0551 24.8261Z" fill="#C1DEFD"/>
<path d="M21.5893 18.0072H17.5329C17.3087 18.0072 17.127 17.8253 17.127 17.6013C17.127 17.3772 17.3087 17.1954 17.5329 17.1954H21.5893C21.8134 17.1954 21.9952 17.3772 21.9952 17.6013C21.9952 17.8253 21.8134 18.0072 21.5893 18.0072Z" fill="#C1DEFD"/>
<path d="M20.5288 27.3155L14.2742 27.3155C14.05 27.3155 13.8683 27.1337 13.8683 26.9097C13.8683 26.6856 14.05 26.5038 14.2742 26.5038L20.5288 26.5038C20.7529 26.5038 20.8019 26.9097 20.8019 26.9097C20.8019 26.9097 20.7529 27.3155 20.5288 27.3155Z" fill="white"/>
<path d="M24.7552 22.1202H17.8126C17.5884 22.1202 17.4067 21.9383 17.4067 21.7143C17.4067 21.4902 17.5884 21.3084 17.8126 21.3084H24.7552C24.9794 21.3084 25.1611 21.4902 25.1611 21.7143C25.1611 21.9383 24.9794 22.1202 24.7552 22.1202Z" fill="white"/>
<path d="M16.2778 22.1202H14.2741C14.05 22.1202 13.8683 21.9383 13.8683 21.7143C13.8683 21.4902 14.05 21.3084 14.2741 21.3084H16.2778C16.502 21.3084 16.6837 21.4902 16.6837 21.7143C16.6837 21.9383 16.502 22.1202 16.2778 22.1202Z" fill="white"/>
<path d="M18.8472 29.805H14.2741C14.05 29.805 13.8683 29.6231 13.8683 29.3991C13.8683 29.175 14.05 28.9932 14.2741 28.9932H18.8472C19.0714 28.9932 19.2531 29.175 19.2531 29.3991C19.2531 29.6231 19.0714 29.805 18.8472 29.805Z" fill="white"/>
<path d="M17.9542 32.2944H14.2741C14.05 32.2944 13.8683 32.1126 13.8683 31.8885C13.8683 31.6645 14.05 31.4827 14.2741 31.4827H17.9542C18.1784 31.4827 18.3601 31.6645 18.3601 31.8885C18.3601 32.1126 18.1784 32.2944 17.9542 32.2944Z" fill="#C1DEFD"/>
<path d="M32.1433 33.0172H27.946C27.6508 33.0172 27.4111 33.2569 27.4111 33.5521C27.4111 33.8473 27.6508 34.0871 27.946 34.0871H32.1433C32.4385 34.0871 32.6783 33.8473 32.6783 33.5521C32.6783 33.2569 32.4385 33.0172 32.1433 33.0172Z" fill="#C1DEFD"/>
<path d="M37.9088 34.6626H22.1805L22.1597 33.1678C22.1429 31.9592 22.5956 30.813 23.4337 29.9413L24.1469 29.2003H35.9424L36.6547 29.9413C37.4937 30.813 37.9464 31.9592 37.9296 33.1678L37.9088 34.6626ZM37.4224 36.4596H35.0835V35.7325H37.4224V36.4596ZM25.0048 36.4596H22.667V35.7325H25.0048V36.4596ZM22.3777 28.0472H23.5902L23.4604 28.3701L23.2058 28.6346L23.082 28.49C22.9027 28.282 22.6491 28.1542 22.3777 28.1334V28.0472ZM25.6785 25.7073C25.7528 25.5211 25.9301 25.4012 26.1292 25.4012H33.9591C34.1592 25.4012 34.3366 25.5211 34.4109 25.7073L35.3797 28.1304H24.7096L25.6785 25.7073ZM37.7107 28.0472V28.1334C37.4392 28.1542 37.1866 28.282 37.0073 28.49L36.8825 28.6346L36.6279 28.3701L36.4991 28.0472H37.7107ZM37.8077 29.2003H37.8939C38.3833 29.2003 38.7805 28.8021 38.7805 28.3137V27.8649C38.7805 27.3756 38.3833 26.9773 37.8939 26.9773H36.0712L35.4045 25.3101C35.1667 24.7157 34.5991 24.3313 33.9591 24.3313H26.1292C25.4893 24.3313 24.9226 24.7157 24.6849 25.3101L24.0182 26.9773H22.1954C21.706 26.9773 21.3078 27.3756 21.3078 27.8649V28.3137C21.3078 28.8021 21.706 29.2003 22.1954 29.2003H22.2816L22.4658 29.4143C21.5574 30.4604 21.07 31.7878 21.0899 33.1826L21.1136 34.9192C21.1186 35.2461 21.3167 35.5274 21.5971 35.6572V36.6181C21.5971 37.1214 22.0052 37.5305 22.5085 37.5305H25.1633C25.6666 37.5305 26.0757 37.1214 26.0757 36.6181V35.7325H34.0136V36.6181C34.0136 37.1214 34.4228 37.5305 34.925 37.5305H37.5809C38.0831 37.5305 38.4923 37.1214 38.4923 36.6181V35.6572C38.7726 35.5274 38.9707 35.2461 38.9747 34.9192L38.9995 33.1826C39.0183 31.7878 38.5319 30.4604 37.6225 29.4143L37.8077 29.2003Z" fill="white"/>
<path d="M36.3307 31.8532H34.8754C35.1429 31.6927 35.453 31.6056 35.7759 31.6056H36.3307V31.8532ZM35.7759 30.5347C34.8199 30.5347 33.9363 31.0132 33.4132 31.8126L33.3251 31.9473C33.1983 32.1415 33.1874 32.3892 33.2974 32.5922C33.4083 32.7963 33.6203 32.9231 33.8521 32.9231H36.6021C37.0419 32.9231 37.4005 32.5645 37.4005 32.1247V31.3341C37.4005 30.8933 37.0419 30.5347 36.6021 30.5347H35.7759Z" fill="white"/>
<path d="M23.7587 31.8532V31.6056H24.3134C24.6364 31.6056 24.9464 31.6927 25.2139 31.8532H23.7587ZM26.6761 31.8126C26.153 31.0132 25.2694 30.5347 24.3134 30.5347H23.4872C23.0464 30.5347 22.6878 30.8933 22.6878 31.3341V32.1247C22.6878 32.5645 23.0464 32.9231 23.4872 32.9231H26.2362C26.468 32.9231 26.681 32.7963 26.791 32.5922C26.9019 32.3892 26.891 32.1415 26.7642 31.9473L26.6761 31.8126Z" fill="white"/>
</svg>
