<svg width="24" height="18" viewBox="0 0 24 18" fill="none" xmlns="http://www.w3.org/2000/svg">
<path d="M13.9384 10.9975H6.63845L6.25422 10.6133L6.63845 10.229H13.9384L14.3227 10.6133L13.9384 10.9975Z" fill="#303030"/>
<path d="M12.1743 10.9975L11.7883 10.6133V7.77524L12.1743 7.38917L12.5586 7.77524V10.6133L12.1743 10.9975Z" fill="#303030"/>
<path d="M5.32964 13.1759C4.24477 13.1759 3.3625 14.0577 3.3625 15.1408C3.3625 16.2256 4.24477 17.1079 5.32964 17.1079C6.41268 17.1079 7.29451 16.2256 7.29451 15.1408C7.29451 14.0577 6.41268 13.1759 5.32964 13.1759ZM5.32964 17.8778C3.81956 17.8778 2.59266 16.6508 2.59266 15.1408C2.59266 13.6348 3.81956 12.4075 5.32964 12.4075C6.83561 12.4075 8.06297 13.6348 8.06297 15.1408C8.06297 16.6508 6.83561 17.8778 5.32964 17.8778Z" fill="#303030"/>
<path d="M5.32963 14.339C4.88485 14.339 4.52384 14.6982 4.52384 15.1407C4.52384 15.5855 4.88485 15.9465 5.32963 15.9465C5.77213 15.9465 6.13133 15.5855 6.13133 15.1407C6.13133 14.6982 5.77213 14.339 5.32963 14.339ZM5.32963 16.7145C4.46146 16.7145 3.75582 16.0089 3.75582 15.1407C3.75582 14.273 4.46146 13.5687 5.32963 13.5687C6.1937 13.5687 6.90162 14.273 6.90162 15.1407C6.90162 16.0089 6.1937 16.7145 5.32963 16.7145Z" fill="#127DF1"/>
<path d="M15.0657 15.5249H7.67874L7.29451 15.1407C7.29451 14.0577 6.41268 13.1759 5.32964 13.1759C4.24477 13.1759 3.3625 14.0577 3.3625 15.1407L2.97872 15.5249H0.383786L0 15.1407V14.7761C0 12.269 2.03953 10.229 4.54706 10.229H6.46959L7.65371 8.93427C8.59471 7.90995 9.51568 7.38915 10.3943 7.38915H13.8105L14.1943 7.77522L13.8105 8.15898H10.3943C9.57988 8.15898 8.76361 8.86325 8.22095 9.45371L6.9212 10.8727L6.63849 10.9975H4.54706C2.46793 10.9975 0.778942 12.6833 0.768016 14.757H2.61952C2.80617 13.4299 3.95114 12.4074 5.32964 12.4074C6.70769 12.4074 7.85128 13.4299 8.03794 14.757H15.0657L15.4499 15.1407L15.0657 15.5249Z" fill="#303030"/>
<path d="M23.6162 17.8778H0.383786L0 17.4935L0.383786 17.1079H23.6162L24 17.4935L23.6162 17.8778Z" fill="#303030"/>
<path d="M18.2296 0.770285C17.6783 0.770285 17.2281 1.21826 17.2281 1.76957C17.2281 2.32088 17.6783 2.76885 18.2296 2.76885C18.7809 2.76885 19.2271 2.32088 19.2271 1.76957C19.2271 1.21826 18.7809 0.770285 18.2296 0.770285ZM18.2296 3.53731C17.2531 3.53731 16.4601 2.74608 16.4601 1.76957C16.4601 0.795327 17.2531 -8.66514e-06 18.2296 -8.66514e-06C19.2021 -8.66514e-06 19.9951 0.795327 19.9951 1.76957C19.9951 2.74608 19.2021 3.53731 18.2296 3.53731Z" fill="#303030"/>
<path d="M16.3658 10.1012L15.9816 9.71689V6.76506L16.3658 6.38081L16.7514 6.76506V9.71689L16.3658 10.1012Z" fill="#303030"/>
<path d="M18.2296 17.8778L17.8454 17.4935V13.9744L18.2296 13.5884L18.6134 13.9744V17.4935L18.2296 17.8778Z" fill="#303030"/>
<path d="M20.0898 10.1012L19.7056 9.71689V6.76506L20.0898 6.38081L20.4736 6.76506V9.71689L20.0898 10.1012Z" fill="#303030"/>
<path d="M19.172 12.8558H22.4034V10.7503H19.172V12.8558ZM22.7872 13.6256H18.7859L18.4017 13.2396V10.366L18.7859 9.9818H22.7872L23.1732 10.366V13.2396L22.7872 13.6256Z" fill="#303030"/>
<path d="M19.172 12.8558H22.4034V10.7503H19.172V12.8558ZM22.7872 13.6256H18.7859L18.4017 13.2396V10.366L18.7859 9.9818H22.7872L23.1732 10.366V13.2396L22.7872 13.6256Z" fill="#127DF1"/>
<path d="M20.0898 17.8778H16.3659L15.9816 17.4935V10.718L15.5159 10.7326C15.032 10.6415 14.6819 10.2045 14.6819 9.69234V6.12999C14.6819 4.8694 15.7062 3.84145 16.9668 3.84145H17.7175L17.9966 3.96254L18.1013 4.24707L17.9715 6.81651L18.2297 7.08328L18.4873 6.81651L18.3558 4.24707L18.4605 3.96254L18.7382 3.84145H19.4884C20.7495 3.84145 21.7774 4.8694 21.7774 6.12999V9.69234C21.7774 10.2045 21.4251 10.6415 20.9434 10.7326L20.0807 10.5154L19.7056 9.7169L20.0898 9.33267L20.4736 9.7169L20.5715 9.92313L20.7955 9.98004L21.0072 9.69234V6.12999C21.0072 5.29096 20.3279 4.61127 19.4884 4.61127H19.1452L19.2626 6.94444L19.1561 7.23261L18.5051 7.90137H17.9538L17.3014 7.23261L17.1926 6.94444L17.3137 4.61127H16.9668C16.1309 4.61127 15.4499 5.29096 15.4499 6.12999V9.69234L15.6598 9.98004L15.8856 9.92313L15.9816 9.7169L16.3659 9.33267L16.7515 9.7169V17.1079H19.7056V14.1097L20.0898 13.7254L20.4736 14.1097V17.4935L20.0898 17.8778Z" fill="#303030"/>
<path d="M14.3546 13.6256H9.32357L8.93934 13.2396L9.32357 12.8558H14.3546L14.7388 13.2396L14.3546 13.6256Z" fill="#303030"/>
<path d="M2.27624 13.3912H0.777092L0.392861 13.007L0.777092 12.6227H2.27624L2.66002 13.007L2.27624 13.3912Z" fill="#303030"/>
</svg>
