<svg width="50" height="50" viewBox="0 0 50 50" fill="none" xmlns="http://www.w3.org/2000/svg">
<circle cx="25" cy="25" r="25" fill="#007EC5"/>
<path d="M28.0494 26.3246C27.2665 26.3246 26.4815 26.6237 25.887 27.2182C24.6943 28.4109 24.6943 30.3503 25.887 31.5409C26.4631 32.1213 27.2319 32.4388 28.0494 32.4388C28.8654 32.4388 29.6341 32.1213 30.2082 31.5409C31.4009 30.3503 31.4009 28.4109 30.2082 27.2182C29.6137 26.6237 28.8308 26.3246 28.0494 26.3246ZM28.0494 33.3245C26.9963 33.3245 26.0061 32.9142 25.2579 32.168C23.7204 30.6311 23.7204 28.1302 25.2579 26.5927C26.8011 25.0537 29.2999 25.0558 30.8394 26.5927C32.3764 28.1302 32.3764 30.6311 30.8394 32.168C30.0891 32.9142 29.101 33.3245 28.0494 33.3245Z" fill="#C1DEFD"/>
<path d="M28.0494 24.7216C26.8504 24.7216 25.6577 25.1745 24.7494 26.0849C22.9312 27.901 22.9312 30.8604 24.7494 32.6786C25.633 33.5581 26.8011 34.044 28.0494 34.044C29.2957 34.044 30.4642 33.5581 31.3458 32.6786C33.1634 30.8604 33.1634 27.901 31.3458 26.0849C30.4375 25.1745 29.2448 24.7216 28.0494 24.7216ZM28.0494 34.9313C26.5634 34.9313 25.1697 34.3515 24.1265 33.3041C21.9578 31.1412 21.9578 27.6218 24.1265 25.4552C26.2889 23.2928 29.8083 23.2928 31.9707 25.4552C34.1394 27.6218 34.1394 31.1412 31.9707 33.3041C30.9255 34.3515 29.5318 34.9313 28.0494 34.9313Z" fill="white"/>
<path d="M30.5193 33.4001L30.8331 33.5313L35.1312 37.8315H36.5008L36.7836 37.1472L36.5008 36.4666L32.2006 32.1665L32.1245 31.6397C33.1288 29.8293 32.8072 27.5441 31.3458 26.0849C29.5276 24.2646 26.5697 24.2646 24.7494 26.0849C22.9312 27.9009 22.9312 30.8604 24.7494 32.6786C26.2108 34.14 28.4965 34.4601 30.3042 33.4573L30.5193 33.4001ZM35.8139 39L34.5084 38.4569L30.4333 34.3882C28.3322 35.3862 25.7868 34.9643 24.1265 33.3041C21.9578 31.1412 21.9578 27.6218 24.1265 25.4552C26.2889 23.2928 29.8083 23.2928 31.9707 25.4552C33.631 27.1159 34.0576 29.6677 33.0569 31.7687L37.1257 35.8375C37.8472 36.5611 37.8472 37.7375 37.1257 38.4569C36.7631 38.8174 36.2898 39 35.8139 39Z" fill="white"/>
<path d="M21.1368 35.7815H12.4224C12.1891 35.7815 12 35.5922 12 35.3591V13.1121C12 12.8789 12.1891 12.6896 12.4224 12.6896H29.344C29.5773 12.6896 29.7664 12.8789 29.7664 13.1121V22.2442C29.7664 22.4774 29.5773 22.6667 29.344 22.6667C29.1107 22.6667 28.9216 22.4774 28.9216 22.2442V13.5345H12.8448V34.9367H21.1368C21.37 34.9367 21.5592 35.1259 21.5592 35.3591C21.5592 35.5922 21.37 35.7815 21.1368 35.7815Z" fill="white"/>
<path d="M31.3746 22.2255C31.1413 22.2255 30.9522 22.0363 30.9522 21.8031V11.8448H14.453C14.2197 11.8448 14.0306 11.6556 14.0306 11.4224C14.0306 11.1892 14.2197 11 14.453 11H31.3746C31.6079 11 31.797 11.1892 31.797 11.4224V21.8031C31.797 22.0363 31.6079 22.2255 31.3746 22.2255Z" fill="white"/>
<path d="M23.0033 24.3482H21.8496C21.6163 24.3482 21.4272 24.159 21.4272 23.9258C21.4272 23.6926 21.6163 23.5034 21.8496 23.5034H23.0033C23.2365 23.5034 23.4257 23.6926 23.4257 23.9258C23.4257 24.159 23.2365 24.3482 23.0033 24.3482Z" fill="white"/>
<path d="M20.383 24.3482H15.4074C15.1741 24.3482 14.985 24.159 14.985 23.9258C14.985 23.6926 15.1741 23.5034 15.4074 23.5034H20.383C20.6163 23.5034 20.8054 23.6926 20.8054 23.9258C20.8054 24.159 20.6163 24.3482 20.383 24.3482Z" fill="#C1DEFD"/>
<path d="M23.0203 17.2517H18.7988C18.5655 17.2517 18.3764 17.0625 18.3764 16.8293C18.3764 16.5961 18.5655 16.4069 18.7988 16.4069H23.0203C23.2536 16.4069 23.4427 16.5961 23.4427 16.8293C23.4427 17.0625 23.2536 17.2517 23.0203 17.2517Z" fill="#C1DEFD"/>
<path d="M21.9167 26.939L15.4075 26.939C15.1742 26.939 14.9851 26.7498 14.9851 26.5166C14.9851 26.2834 15.1742 26.0942 15.4075 26.0942L21.9167 26.0942C22.15 26.0942 22.2009 26.5166 22.2009 26.5166C22.2009 26.5166 22.15 26.939 21.9167 26.939Z" fill="white"/>
<path d="M26.3152 21.5321H19.0899C18.8566 21.5321 18.6675 21.3429 18.6675 21.1097C18.6675 20.8766 18.8566 20.6873 19.0899 20.6873H26.3152C26.5485 20.6873 26.7376 20.8766 26.7376 21.1097C26.7376 21.3429 26.5485 21.5321 26.3152 21.5321Z" fill="white"/>
<path d="M17.4927 21.5321H15.4074C15.1741 21.5321 14.985 21.3429 14.985 21.1097C14.985 20.8766 15.1741 20.6873 15.4074 20.6873H17.4927C17.726 20.6873 17.9151 20.8766 17.9151 21.1097C17.9151 21.3429 17.726 21.5321 17.4927 21.5321Z" fill="white"/>
<path d="M20.1667 29.5298H15.4074C15.1741 29.5298 14.985 29.3405 14.985 29.1074C14.985 28.8742 15.1741 28.685 15.4074 28.685H20.1667C20.3999 28.685 20.5891 28.8742 20.5891 29.1074C20.5891 29.3405 20.3999 29.5298 20.1667 29.5298Z" fill="white"/>
<path d="M19.2373 32.1206H15.4074C15.1741 32.1206 14.985 31.9313 14.985 31.6982C14.985 31.465 15.1741 31.2758 15.4074 31.2758H19.2373C19.4706 31.2758 19.6597 31.465 19.6597 31.6982C19.6597 31.9313 19.4706 32.1206 19.2373 32.1206Z" fill="#C1DEFD"/>
</svg>
