<svg width="50" height="50" viewBox="0 0 50 50" fill="none" xmlns="http://www.w3.org/2000/svg">
<circle cx="25" cy="25" r="25" fill="#6DC5E9"/>
<path d="M19.5325 34.1426H11.3945C11.1766 34.1426 11 33.9658 11 33.7481V12.9724C11 12.7546 11.1766 12.5779 11.3945 12.5779H27.197C27.4148 12.5779 27.5914 12.7546 27.5914 12.9724V21.5006C27.5914 21.7184 27.4148 21.8951 27.197 21.8951C26.9791 21.8951 26.8025 21.7184 26.8025 21.5006V13.3669H11.789V33.3536H19.5325C19.7503 33.3536 19.927 33.5303 19.927 33.7481C19.927 33.9658 19.7503 34.1426 19.5325 34.1426Z" fill="white"/>
<path d="M29.0933 21.4831C28.8754 21.4831 28.6988 21.3064 28.6988 21.0886V11.789H13.2908C13.0729 11.789 12.8963 11.6122 12.8963 11.3945C12.8963 11.1767 13.0729 11 13.2908 11H29.0933C29.3111 11 29.4878 11.1767 29.4878 11.3945V21.0886C29.4878 21.3064 29.3111 21.4831 29.0933 21.4831Z" fill="white"/>
<path d="M21.2756 23.4654H20.1982C19.9804 23.4654 19.8037 23.2887 19.8037 23.0709C19.8037 22.8532 19.9804 22.6765 20.1982 22.6765H21.2756C21.4934 22.6765 21.67 22.8532 21.67 23.0709C21.67 23.2887 21.4934 23.4654 21.2756 23.4654Z" fill="white"/>
<path d="M18.8286 23.4654H14.1821C13.9642 23.4654 13.7876 23.2887 13.7876 23.0709C13.7876 22.8532 13.9642 22.6765 14.1821 22.6765H18.8286C19.0464 22.6765 19.2231 22.8532 19.2231 23.0709C19.2231 23.2887 19.0464 23.4654 18.8286 23.4654Z" fill="#C1DEFD"/>
<path d="M21.2915 16.8382H17.3492C17.1313 16.8382 16.9547 16.6615 16.9547 16.4438C16.9547 16.226 17.1313 16.0493 17.3492 16.0493H21.2915C21.5094 16.0493 21.686 16.226 21.686 16.4438C21.686 16.6615 21.5094 16.8382 21.2915 16.8382Z" fill="#C1DEFD"/>
<path d="M20.2609 25.8849L14.1821 25.8849C13.9643 25.8849 13.7876 25.7082 13.7876 25.4904C13.7876 25.2727 13.9643 25.0959 14.1821 25.0959L20.2609 25.0959C20.4787 25.0959 20.5263 25.4904 20.5263 25.4904C20.5263 25.4904 20.4787 25.8849 20.2609 25.8849Z" fill="white"/>
<path d="M24.3685 20.8356H17.621C17.4032 20.8356 17.2266 20.6589 17.2266 20.4411C17.2266 20.2234 17.4032 20.0466 17.621 20.0466H24.3685C24.5863 20.0466 24.7629 20.2234 24.7629 20.4411C24.7629 20.6589 24.5863 20.8356 24.3685 20.8356Z" fill="white"/>
<path d="M16.1294 20.8356H14.1821C13.9642 20.8356 13.7876 20.6589 13.7876 20.4411C13.7876 20.2234 13.9642 20.0466 14.1821 20.0466H16.1294C16.3473 20.0466 16.5239 20.2234 16.5239 20.4411C16.5239 20.6589 16.3473 20.8356 16.1294 20.8356Z" fill="white"/>
<path d="M18.6266 28.3043H14.1821C13.9642 28.3043 13.7876 28.1276 13.7876 27.9098C13.7876 27.6921 13.9642 27.5154 14.1821 27.5154H18.6266C18.8444 27.5154 19.021 27.6921 19.021 27.9098C19.021 28.1276 18.8444 28.3043 18.6266 28.3043Z" fill="white"/>
<path d="M17.7587 30.7238H14.1821C13.9642 30.7238 13.7876 30.547 13.7876 30.3293C13.7876 30.1115 13.9642 29.9348 14.1821 29.9348H17.7587C17.9765 29.9348 18.1531 30.1115 18.1531 30.3293C18.1531 30.547 17.9765 30.7238 17.7587 30.7238Z" fill="#C1DEFD"/>
<path d="M34.1055 23.7294L36.1237 24.0992L37.6524 27.8845L35.6991 30.3635L34.1055 23.7294ZM34.1055 23.7294L34.9261 25.9967L34.9261 25.9968C34.967 26.11 34.9501 26.2355 34.881 26.3339L34.8809 26.3341L33.9451 27.6624C33.9451 27.6624 33.945 27.6624 33.945 27.6624C33.8604 27.7827 33.7124 27.8404 33.569 27.8106L33.5689 27.8106L31.9075 27.4624L34.1055 23.7294ZM30.5809 28.934L30.5808 28.934L29.6171 26.5989L30.7596 25.0452L31.6414 27.2396L30.5809 28.934ZM30.5809 28.934C30.6583 29.1218 30.569 29.337 30.3811 29.4145C30.1932 29.4921 29.9783 29.4022 29.9008 29.2146L29.9008 29.2146M30.5809 28.934L29.9008 29.2146M29.9008 29.2146L28.8582 26.6882M29.9008 29.2146L30.5584 24.0771L30.5584 24.0772L28.9018 26.33C28.8256 26.4336 28.8091 26.5694 28.8582 26.6882M28.8582 26.6882L28.9506 26.65M28.8582 26.6882L28.8582 26.6881L28.9506 26.65M28.9506 26.65C28.9149 26.5636 28.9269 26.4646 28.9824 26.3893L28.9506 26.65ZM36.73 23.6358L36.73 23.6358C36.6828 23.519 36.579 23.4346 36.4551 23.412L33.6081 22.8907L36.73 23.6358ZM36.73 23.6358L38.4143 27.8066L38.4144 27.8067L36.73 23.6358ZM35.6201 38.7322C35.6201 38.9357 35.7848 39.1 35.9879 39.1C36.191 39.1 36.3557 38.9357 36.3557 38.7322V30.7187L38.3622 28.1721L38.3622 28.172L38.2837 28.1101L35.6201 38.7322ZM35.6201 38.7322V30.5912M35.6201 38.7322V30.5912M35.6201 30.5912C35.6201 30.5088 35.6478 30.4285 35.699 30.3636L35.6201 30.5912ZM33.1958 23.3777L33.1957 23.3776L31.1032 24.1953L31.196 24.158L31.196 24.1581L32.2507 26.7827L33.483 27.041L34.1691 26.0669L33.1958 23.3777Z" fill="white" stroke="white" stroke-width="0.2"/>
<path d="M31.4282 28.6304C31.5146 28.8143 31.4355 29.0331 31.2516 29.1194L29.7481 29.8258L29.748 29.8258C29.5952 29.8975 29.4925 30.033 29.4647 30.1995L29.3724 30.1841L29.4647 30.1995C29.4376 30.361 29.4868 30.518 29.6001 30.6343C30.7532 31.5595 31.3829 32.9985 31.3829 34.681V38.7322C31.3829 38.9357 31.2181 39.1 31.0151 39.1C30.812 39.1 30.6473 38.9357 30.6473 38.7322V34.681C30.6473 33.2076 30.1036 31.9742 29.1266 31.1977C29.1174 31.1905 29.1077 31.1822 29.0981 31.1725C28.8061 30.889 28.672 30.48 28.7391 30.0784C28.8062 29.6764 29.0665 29.333 29.4353 29.1598L29.4353 29.1598L30.9389 28.4538L30.9389 28.4538C31.1228 28.3675 31.3419 28.4464 31.4282 28.6304ZM31.4282 28.6304L31.3377 28.6729L31.4282 28.6304C31.4282 28.6304 31.4282 28.6304 31.4282 28.6304Z" fill="white" stroke="white" stroke-width="0.2"/>
<path d="M31.0497 30.448L31.744 31.9228L34.2197 30.7058L33.5255 29.231L31.0497 30.448ZM31.6178 32.5509C31.5879 32.5509 31.5579 32.5459 31.5292 32.5359C31.4614 32.5124 31.406 32.4624 31.3754 32.3974L30.453 30.438C30.3907 30.3059 30.4459 30.148 30.5771 30.0834L33.5336 28.6304C33.598 28.5986 33.6725 28.594 33.7403 28.6179C33.8081 28.6415 33.8634 28.6915 33.894 28.7565L34.8165 30.7158C34.8788 30.8479 34.8236 31.0058 34.6924 31.0701L31.7359 32.5234C31.6988 32.5416 31.6583 32.5509 31.6178 32.5509Z" fill="white"/>
<path d="M32.5793 31.9421C32.4796 31.9421 32.384 31.886 32.3378 31.7903L31.8165 30.7076C31.7523 30.5741 31.8083 30.4141 31.9416 30.3498C32.0748 30.2859 32.2349 30.3419 32.2991 30.4751L32.8204 31.5578C32.8846 31.691 32.8286 31.8514 32.6953 31.9153C32.6579 31.9335 32.6183 31.9421 32.5793 31.9421Z" fill="white"/>
<path d="M33.5418 31.5007C33.4421 31.5007 33.3465 31.445 33.3003 31.3493L32.779 30.2662C32.7148 30.133 32.7708 29.9731 32.9041 29.9088C33.0373 29.8445 33.1974 29.9006 33.2616 30.0341L33.7829 31.1168C33.8471 31.25 33.7911 31.41 33.6578 31.4743C33.6204 31.4921 33.5808 31.5007 33.5418 31.5007Z" fill="white"/>
<path d="M33.0203 39C32.8723 39 32.7524 38.8804 32.7524 38.7322V35.6662C32.7524 34.9138 32.6129 34.1768 32.3377 33.4765L32.3298 33.4565C32.2758 33.3187 32.3435 33.1633 32.4812 33.1091C32.6188 33.0551 32.7743 33.123 32.8284 33.2605L32.8362 33.2805C33.1361 34.0436 33.2881 34.8463 33.2881 35.6662V38.7322C33.2881 38.8804 33.1682 39 33.0203 39Z" fill="#C1DEFD"/>
<path d="M33.9828 39C33.8348 39 33.7149 38.8804 33.7149 38.7322V35.6662C33.7149 34.8463 33.8669 34.0436 34.1667 33.2805L34.1746 33.2605C34.2287 33.123 34.3841 33.0551 34.5218 33.1091C34.6595 33.1633 34.7272 33.3187 34.6732 33.4565L34.6653 33.4765C34.3901 34.1768 34.2506 34.9138 34.2506 35.6662V38.7322C34.2506 38.8804 34.1307 39 33.9828 39Z" fill="white"/>
<path d="M30.1809 35.3453C30.2669 35.5291 30.1877 35.7483 30.0036 35.8343C29.778 35.9399 29.6446 36.1498 29.6446 36.4C29.6446 37.1505 29.0342 37.7609 28.2837 37.7609H27.4504C26.6999 37.7609 26.0896 37.1505 26.0896 36.4C26.0896 36.0927 25.8921 35.9006 25.7036 35.8225L25.7036 35.8225L30.0903 35.3877M30.1809 35.3453L30.0903 35.3877M30.1809 35.3453C30.1809 35.3453 30.1809 35.3453 30.1809 35.3453L30.0903 35.3877M30.1809 35.3453C30.0949 35.1614 29.876 35.0819 29.6919 35.1682M30.0903 35.3877C30.0277 35.2538 29.8683 35.1959 29.7343 35.2588C29.2868 35.468 29.0089 35.9054 29.0089 36.4C29.0089 36.8 28.6836 37.1253 28.2837 37.1253H27.4504C27.0505 37.1253 26.7252 36.8 26.7252 36.4C26.7252 35.8805 26.427 35.4341 25.9469 35.2352C25.4667 35.0363 24.9403 35.1413 24.5728 35.5087M29.6919 35.1682L29.7341 35.2584L29.6918 35.1682C29.6919 35.1682 29.6919 35.1682 29.6919 35.1682ZM29.6919 35.1682C29.2092 35.3939 28.9089 35.8667 28.9089 36.4C28.9089 36.7447 28.6284 37.0253 28.2837 37.0253H27.4504C27.1058 37.0253 26.8252 36.7447 26.8252 36.4C26.8252 35.84 26.5026 35.3572 25.9851 35.1428C25.4676 34.9284 24.8982 35.042 24.5022 35.438M24.5022 35.438L24.5728 35.5087M24.5022 35.438C24.3838 35.5561 24.2271 35.6212 24.06 35.6212C23.8929 35.6212 23.7362 35.5561 23.6179 35.438M24.5022 35.438C24.5021 35.438 24.5021 35.438 24.5021 35.438L24.5728 35.5087M24.5728 35.5087L23.6179 35.438M23.6179 35.438L23.6179 35.438L23.5473 35.5086L23.6179 35.438ZM23.6179 35.438L23.0287 34.8488C22.9105 34.7304 22.8456 34.5737 22.8456 34.4067C22.8456 34.2393 22.9105 34.0827 23.0286 33.9647L23.0287 33.9647C23.4247 33.5686 23.538 32.9989 23.3237 32.4816C23.1093 31.9639 22.6265 31.6414 22.0664 31.6414C21.7218 31.6414 21.4412 31.3609 21.4412 31.0161V30.183C21.4412 29.8383 21.7218 29.5578 22.0664 29.5578C22.6265 29.5578 23.1093 29.2353 23.3237 28.7176C23.538 28.2003 23.4247 27.6306 23.0287 27.2345C22.9104 27.1161 22.8456 26.9594 22.8456 26.7925C22.8456 26.6255 22.9105 26.4688 23.0287 26.3504L23.6179 25.7612L23.618 25.7611C23.7361 25.6428 23.8928 25.578 24.06 25.578C24.2272 25.578 24.3839 25.6428 24.5021 25.7612L24.5021 25.7612C24.8982 26.1572 25.4677 26.2704 25.9851 26.056C26.5026 25.8417 26.8252 25.3588 26.8252 24.7988C26.8252 24.4541 27.1058 24.1736 27.4504 24.1736H28.2837C28.6284 24.1736 28.9089 24.4541 28.9089 24.7988C28.9089 25.0019 29.0736 25.1666 29.2767 25.1666C29.4799 25.1666 29.6446 25.0019 29.6446 24.7988C29.6446 24.0483 29.0342 23.4379 28.2837 23.4379H27.4504C26.6999 23.4379 26.0896 24.0483 26.0896 24.7988C26.0896 25.1065 25.8922 25.2983 25.7035 25.3767C25.5151 25.4547 25.2397 25.4585 25.0223 25.2409L25.0223 25.2409C24.7654 24.9839 24.4233 24.8424 24.06 24.8424C23.6967 24.8424 23.3546 24.9839 23.0978 25.2409L22.5085 25.8301L22.5085 25.8301C22.2516 26.087 22.1099 26.4292 22.1099 26.7925C22.1099 27.1557 22.2516 27.4979 22.5085 27.7548L22.5085 27.7549C22.7259 27.9721 22.7221 28.2476 22.644 28.4361L22.644 28.4361C22.566 28.6246 22.3739 28.8222 22.0664 28.8222C21.3159 28.8222 20.7056 29.4326 20.7056 30.183V31.0161C20.7056 31.7666 21.3159 32.377 22.0664 32.377C22.3739 32.377 22.566 32.5746 22.644 32.7631L22.644 32.7631C22.7221 32.9515 22.726 33.2267 22.5085 33.4444L23.6179 35.438ZM24.9515 35.8872L25.0223 35.9579C25.0222 35.9579 25.0222 35.958 25.0222 35.958L24.9515 35.8872Z" fill="white" stroke="white" stroke-width="0.2"/>
<path d="M29.6634 32.4786C29.7813 32.6441 29.7423 32.8736 29.5771 32.9915L29.5769 32.9917C29.0755 33.348 28.484 33.5365 27.867 33.5365C26.2388 33.5365 24.9142 32.2119 24.9142 30.5837C24.9142 28.9555 26.2388 27.6309 27.867 27.6309C28.2135 27.6309 28.5531 27.6904 28.8763 27.808L28.8763 27.808C29.0671 27.8776 29.1657 28.0884 29.0962 28.2793C29.0268 28.4701 28.8157 28.5686 28.6249 28.4995L28.6248 28.4994C28.3826 28.4113 28.1278 28.3665 27.867 28.3665C26.6446 28.3665 25.6498 29.3613 25.6498 30.5837C25.6498 31.8061 26.6446 32.8009 27.867 32.8009C28.3307 32.8009 28.7743 32.6595 29.1505 32.3919C29.316 32.2742 29.5457 32.313 29.6634 32.4786ZM29.6634 32.4786L29.582 32.5366M29.6634 32.4786C29.6634 32.4787 29.6635 32.4787 29.6635 32.4787L29.582 32.5366M29.582 32.5366C29.6677 32.657 29.6395 32.8241 29.5189 32.9102L29.582 32.5366Z" fill="#C1DEFD" stroke="#CDDBED" stroke-width="0.2"/>
</svg>
