<svg width="22" height="22" viewBox="0 0 22 22" fill="none" xmlns="http://www.w3.org/2000/svg">
<path d="M17.0179 14.6477C16.6123 14.6477 16.2056 14.8027 15.8976 15.1107C15.2797 15.7285 15.2797 16.7332 15.8976 17.35C16.1961 17.6507 16.5943 17.8151 17.0179 17.8151C17.4406 17.8151 17.8388 17.6507 18.1362 17.35C18.7541 16.7332 18.7541 15.7285 18.1362 15.1107C17.8282 14.8027 17.4226 14.6477 17.0179 14.6477ZM17.0179 18.274C16.4723 18.274 15.9593 18.0614 15.5717 17.6749C14.7752 16.8787 14.7752 15.5831 15.5717 14.7866C16.3712 13.9893 17.6656 13.9904 18.4632 14.7866C19.2594 15.5831 19.2594 16.8787 18.4632 17.6749C18.0745 18.0614 17.5626 18.274 17.0179 18.274Z" fill="#303030"/>
<path d="M17.0178 13.8173C16.3967 13.8173 15.7788 14.0519 15.3082 14.5235C14.3663 15.4643 14.3663 16.9975 15.3082 17.9394C15.766 18.395 16.3711 18.6467 17.0178 18.6467C17.6634 18.6467 18.2688 18.395 18.7255 17.9394C19.6671 16.9975 19.6671 15.4643 18.7255 14.5235C18.2549 14.0519 17.637 13.8173 17.0178 13.8173ZM17.0178 19.1064C16.248 19.1064 15.526 18.806 14.9856 18.2634C13.8621 17.1429 13.8621 15.3197 14.9856 14.1973C16.1058 13.0771 17.929 13.0771 19.0492 14.1973C20.1727 15.3197 20.1727 17.1429 19.0492 18.2634C18.5077 18.806 17.7857 19.1064 17.0178 19.1064Z" fill="#303030"/>
<path d="M18.2973 18.3132L18.4599 18.3811L20.6865 20.6088H21.396L21.5425 20.2544L21.396 19.9018L19.1683 17.6741L19.1289 17.4012C19.6492 16.4633 19.4825 15.2795 18.7255 14.5235C17.7836 13.5805 16.2512 13.5805 15.3082 14.5235C14.3663 15.4643 14.3663 16.9975 15.3082 17.9394C16.0653 18.6965 17.2494 18.8623 18.1859 18.3428L18.2973 18.3132ZM21.0402 21.2142L20.3638 20.9329L18.2527 18.825C17.1643 19.3421 15.8456 19.1235 14.9856 18.2634C13.8621 17.1429 13.8621 15.3197 14.9856 14.1973C16.1058 13.0771 17.929 13.0771 19.0492 14.1973C19.9093 15.0577 20.1303 16.3796 19.6119 17.468L21.7197 19.5759C22.0935 19.9507 22.0935 20.5602 21.7197 20.9329C21.5319 21.1196 21.2867 21.2142 21.0402 21.2142Z" fill="#303030"/>
<path d="M9.8395 3.18497C8.76922 3.18497 7.8992 4.05528 7.8992 5.12533C7.8992 6.19544 8.76922 7.06634 9.8395 7.06634C10.9098 7.06634 11.7804 6.19544 11.7804 5.12533C11.7804 4.05528 10.9098 3.18497 9.8395 3.18497ZM9.8395 7.89417C8.31282 7.89417 7.07138 6.65184 7.07138 5.12533C7.07138 3.59888 8.31282 2.35715 9.8395 2.35715C11.3662 2.35715 12.6082 3.59888 12.6082 5.12533C12.6082 6.65184 11.3662 7.89417 9.8395 7.89417Z" fill="#127DF1"/>
<path d="M9.82178 0.636904C7.00321 0.636904 4.68582 2.66263 4.64513 5.17371C4.62853 6.17405 4.96692 7.12937 5.62284 7.93652C7.7191 10.5155 9.1316 13.0266 9.83785 15.423C10.5398 13.0877 11.9571 10.558 14.0652 7.8805C14.6756 7.10475 14.9984 6.19272 14.9984 5.24206C14.9984 4.02005 14.4662 2.86939 13.4997 2.00109C12.5333 1.13364 11.2461 0.649193 9.87426 0.637333C9.85659 0.636904 9.83945 0.636904 9.82178 0.636904ZM9.83464 17.2857C9.65794 17.2857 9.50802 17.171 9.48125 17.0157C9.00577 14.2774 7.51242 11.3481 5.04296 8.30975C4.29548 7.39091 3.91103 6.30312 3.92924 5.16433C3.97582 2.30597 6.61395 -9.65595e-06 9.82178 -9.65595e-06C9.84213 -9.65595e-06 9.86141 -1.12206e-05 9.88176 0.000417454C11.4431 0.0139921 12.9086 0.565553 14.0079 1.55317C15.1087 2.54117 15.7143 3.85106 15.7143 5.24206C15.7143 6.32389 15.347 7.3629 14.6515 8.24564C12.1483 11.4246 10.6469 14.3755 10.1886 17.0157C10.1613 17.171 10.0113 17.2857 9.83464 17.2857Z" fill="#303030"/>
<path d="M13.118 16.9057C13.0784 16.9057 13.0393 16.9001 13.0002 16.8885C12.586 16.766 12.0654 16.6661 11.4943 16.5994C11.267 16.5723 11.1047 16.367 11.1312 16.1396C11.1582 15.9128 11.3632 15.7505 11.5905 15.7771C12.2163 15.8505 12.77 15.957 13.2347 16.0944C13.4541 16.159 13.5791 16.3896 13.5148 16.6087C13.4613 16.7887 13.296 16.9057 13.118 16.9057Z" fill="#303030"/>
<path d="M9.6764 18.9564C7.8039 18.9564 4.63537 18.6104 4.63537 17.3135C4.63537 16.8709 4.99876 16.5061 5.71529 16.2301C6.26943 16.0166 7.03002 15.8538 7.91436 15.7599C8.14133 15.7362 8.34537 15.9007 8.36951 16.128C8.39305 16.3549 8.22886 16.5591 8.00129 16.5833C6.34127 16.7594 5.59698 17.1402 5.47323 17.3124C5.54325 17.4034 5.85594 17.6286 6.68112 17.8256C7.50087 18.021 8.56449 18.1286 9.6764 18.1286C11.1668 18.1286 12.5443 17.9371 13.3616 17.6154C13.5747 17.5315 13.815 17.6363 13.8983 17.8493C13.9822 18.0618 13.8772 18.3019 13.6647 18.3858C12.7562 18.7434 11.2652 18.9564 9.6764 18.9564Z" fill="#127DF1"/>
<path d="M13.2818 14.9146C13.2613 14.9146 13.2402 14.9129 13.2186 14.9096C12.7586 14.8395 12.2787 14.7826 11.7929 14.7412C11.5653 14.7214 11.3967 14.521 11.416 14.2931C11.4358 14.0658 11.6357 13.8963 11.8639 13.9162C12.3672 13.9593 12.8657 14.0183 13.3438 14.0912C13.5696 14.1259 13.7249 14.3367 13.6906 14.563C13.6593 14.7677 13.4829 14.9146 13.2818 14.9146Z" fill="#303030"/>
<path d="M9.67654 21.3295C7.15537 21.3295 4.77966 20.9736 2.98637 20.3273C1.0599 19.6331 0 18.6562 0 17.5767C0 15.4879 3.77009 14.2323 7.50765 13.9145C7.73534 13.8946 7.93541 14.0641 7.95444 14.2919C7.97469 14.5199 7.8053 14.7202 7.57761 14.7395C5.62659 14.9051 3.86399 15.3057 2.61507 15.8676C1.47907 16.3781 0.827912 17.0011 0.827912 17.5767C0.827912 18.9603 4.46175 20.5017 9.67654 20.5017C11.6337 20.5017 13.4951 20.2821 15.0595 19.8665C15.281 19.808 15.5069 19.9394 15.5664 20.1601C15.6247 20.3814 15.4934 20.6077 15.2718 20.6667C13.6393 21.1005 11.7043 21.3295 9.67654 21.3295Z" fill="#303030"/>
</svg>
