<svg width="24" height="21" viewBox="0 0 24 21" fill="none" xmlns="http://www.w3.org/2000/svg">
<path d="M17.5273 12.4504H14.1253L13.7332 12.0582L14.1253 11.666H17.5273L17.9194 12.0582L17.5273 12.4504Z" fill="#303030"/>
<path d="M22.0341 19.0659H14.1253L13.7332 18.6738L14.1253 18.2821H22.0341L22.428 18.6738L22.0341 19.0659Z" fill="#303030"/>
<path d="M20.7341 16.3127H23.2141V15.2286C23.2141 14.3483 22.6145 13.5988 21.757 13.4074L17.4402 12.4419L17.1997 12.271L14.9532 8.83784L14.4129 8.28015V16.3127H16.0773C16.2655 15.1973 17.2362 14.3429 18.4057 14.3429C19.5733 14.3429 20.5476 15.1973 20.7341 16.3127ZM23.6079 17.0966H20.375L19.9812 16.7044C19.9812 15.8349 19.2753 15.1273 18.4057 15.1273C17.536 15.1273 16.8285 15.8349 16.8285 16.7044L16.4363 17.0966H14.0208L13.6287 16.7044V7.64035L13.7942 7.32136L14.1498 7.26916C14.7475 7.48198 15.2669 7.88441 15.6102 8.40908L17.7678 11.7097L21.9261 12.6404C23.1495 12.9139 24 13.9771 24 15.2286V16.7044L23.6079 17.0966Z" fill="#303030"/>
<path d="M0.784251 20.1032H13.6287V2.80578H0.784251V20.1032ZM14.0208 20.8889H0.392126L0 20.4967V2.41363L0.392126 2.02145H14.0208L14.4129 2.41363V20.4967L14.0208 20.8889Z" fill="#303030"/>
<path d="M16.1556 7.05818L15.7634 6.66469V0.786146H2.9208V2.30039L2.52694 2.69257L2.13481 2.30039V0.393991L2.52694 1.01429e-05H16.1556L16.5495 0.393991V6.66469L16.1556 7.05818Z" fill="#303030"/>
<path d="M2.56019 5.51228H3.3096V4.76318H2.56019V5.51228ZM3.70173 6.29662H2.16807L1.77246 5.90443V4.37102L2.16807 3.97704H3.70173L4.09385 4.37102V5.90443L3.70173 6.29662Z" fill="#303030"/>
<path d="M6.14151 6.18013L5.81563 6.01102L5.32937 5.29449L5.43047 4.74753L5.97594 4.8519L6.17813 5.14638L6.96935 4.2282L7.52182 4.18983L7.56362 4.74216L6.4378 6.04583L6.14151 6.18013Z" fill="#127DF1"/>
<path d="M12.3094 5.53011H8.8778L8.48567 5.13795L8.8778 4.74577H12.3094L12.6998 5.13795L12.3094 5.53011Z" fill="#303030"/>
<path d="M2.58805 9.0449H3.33746V8.29583H2.58805V9.0449ZM3.72958 9.82924H2.19592L1.80206 9.43708V7.90364L2.19592 7.50969H3.72958L4.12171 7.90364V9.43708L3.72958 9.82924Z" fill="#303030"/>
<path d="M6.16951 9.71404L5.84538 9.54183L5.35738 8.82529L5.45848 8.2801L6.00394 8.38271L6.20614 8.67895L6.99735 7.76211L7.54983 7.72064L7.59163 8.27476L6.4658 9.57842L6.16951 9.71404Z" fill="#303030"/>
<path d="M12.3373 9.06271H8.90566L8.51353 8.67053L8.90566 8.27838H12.3373L12.7294 8.67053L12.3373 9.06271Z" fill="#303030"/>
<path d="M2.6159 12.5793H3.36531V11.8302H2.6159V12.5793ZM3.75743 13.3636H2.22377L1.83165 12.9715V11.4345L2.22377 11.0423H3.75743L4.14956 11.4345V12.9715L3.75743 13.3636Z" fill="#303030"/>
<path d="M6.19738 13.2468L5.87324 13.0763L5.38524 12.358L5.48808 11.8142L6.03181 11.9154L6.234 12.2099L7.02522 11.2948L7.57943 11.2551L7.62123 11.8075L6.49367 13.1111L6.19738 13.2468Z" fill="#127DF1"/>
<path d="M12.3651 12.5967H8.93352L8.5414 12.2046L8.93352 11.8093H12.3651L12.7573 12.2046L12.3651 12.5967Z" fill="#303030"/>
<path d="M2.64391 16.1101H3.39332V15.3611H2.64391V16.1101ZM3.78544 16.8963H2.25178L1.85966 16.5041V14.9689L2.25178 14.5767H3.78544L4.17757 14.9689V16.5041L3.78544 16.8963Z" fill="#303030"/>
<path d="M6.22698 16.7813L5.90111 16.6091L5.4131 15.8925L5.51594 15.3469L6.06319 15.4499L6.26361 15.7444L7.05482 14.8293L7.60729 14.7878L7.6491 15.342L6.52153 16.6439L6.22698 16.7813Z" fill="#303030"/>
<path d="M12.393 16.1276H8.96316L8.57099 15.7358L8.96316 15.3437H12.393L12.7851 15.7358L12.393 16.1276Z" fill="#303030"/>
<path d="M18.4058 15.1273C17.5361 15.1273 16.8286 15.8349 16.8286 16.7045C16.8286 17.5745 17.5361 18.2821 18.4058 18.2821C19.2754 18.2821 19.9813 17.5745 19.9813 16.7045C19.9813 15.8349 19.2754 15.1273 18.4058 15.1273ZM18.4058 19.0659C17.1039 19.0659 16.0443 18.0081 16.0443 16.7045C16.0443 15.4026 17.1039 14.3429 18.4058 14.3429C19.7059 14.3429 20.7673 15.4026 20.7673 16.7045C20.7673 18.0081 19.7059 19.0659 18.4058 19.0659Z" fill="#127DF1"/>
</svg>
