<svg width="133" height="120" viewBox="0 0 133 120" fill="none" xmlns="http://www.w3.org/2000/svg">
<path d="M132.221 114.553C132.221 117.561 113.099 120 89.5112 120C65.923 120 46.8011 117.561 46.8011 114.553C46.8011 111.545 65.923 109.105 89.5112 109.105C113.099 109.105 132.221 111.545 132.221 114.553Z" fill="#007EC5"/>
<path d="M116.72 14.6234V110.689C116.72 112.295 115.419 113.599 113.813 113.599H64.2113C62.6056 113.599 61.3012 112.295 61.3012 110.689V14.6234C61.3012 13.0218 62.6056 11.7164 64.2113 11.7164H113.813C115.419 11.7164 116.72 13.0218 116.72 14.6234Z" fill="#20222D"/>
<path d="M76.1237 51.7728C76.1237 51.7728 71.8352 52.0153 72.0107 49.9033C72.1153 48.6219 74.2864 48.252 75.0987 48.6219C75.5417 48.8234 76.3493 49.2622 75.8641 49.9566C75.3775 50.6501 76.4996 51.0243 76.4996 51.0243L76.1237 51.7728Z" fill="#0F59AA"/>
<path d="M102.931 51.7728C102.931 51.7728 107.22 52.0153 107.046 49.9033C106.942 48.6219 104.769 48.252 103.957 48.6219C103.513 48.8234 102.707 49.2622 103.191 49.9566C103.679 50.6501 102.558 51.0243 102.558 51.0243L102.931 51.7728Z" fill="#0F59AA"/>
<path d="M76.829 74.6867H74.6728C73.8678 74.6867 73.2146 74.0333 73.2146 73.2273V68.6832H78.2893V73.2273C78.2893 74.0333 77.635 74.6867 76.829 74.6867Z" fill="#595552"/>
<path d="M104.34 74.6867H102.184C101.378 74.6867 100.725 74.0333 100.725 73.2273V68.6832H105.8V73.2273C105.8 74.0333 105.147 74.6867 104.34 74.6867Z" fill="#595552"/>
<path d="M72.7432 63.0409V66.9508C72.7432 69.3698 74.7026 70.1628 77.1214 70.1628H101.934C104.352 70.1628 106.313 69.3698 106.313 66.9508V63.0409C101.12 63.6847 95.4567 64.0389 89.5275 64.0389C83.5993 64.0389 77.9365 63.6847 72.7432 63.0409Z" fill="#127DF1"/>
<path d="M105.914 57.2677C105.343 56.1746 104.3 54.2398 103.686 53.5227C102.81 52.502 102.955 50.7495 102.519 50.1659C102.08 49.5814 100.327 42.5913 99.015 42.4299C89.5275 41.2627 81.3543 42.2842 80.04 42.4299C78.727 42.5764 76.9766 49.5814 76.537 50.1659C76.0998 50.7495 76.2456 52.502 75.3699 53.5227C74.7555 54.2398 73.7121 56.1746 73.1413 57.2677C72.9177 57.6969 72.7432 58.4392 72.7432 58.9234V63.0409C77.9365 63.6847 83.5993 64.0389 89.5275 64.0389C95.4567 64.0389 101.119 63.6847 106.313 63.0409V58.9234C106.313 58.4392 106.137 57.6969 105.914 57.2677Z" fill="#007EC5"/>
<path d="M89.5276 51.8583C86.8253 51.8583 78.45 51.5696 78.3658 51.5661C78.0227 51.5661 77.7467 51.4457 77.5787 51.2267C77.4169 51.0156 77.3726 50.7312 77.4536 50.425L79.0876 45.1211C80.2053 45.081 87.1132 44.835 89.5276 44.835C91.9425 44.835 98.8501 45.081 99.9668 45.1211L101.602 50.4329C101.683 50.7312 101.638 51.0165 101.476 51.2276C101.309 51.4457 101.032 51.5661 100.698 51.5661C100.606 51.5696 92.2297 51.8583 89.5276 51.8583Z" fill="#262529"/>
<path d="M89.5275 44.6195C86.8763 44.6195 78.9264 44.9117 78.9264 44.9117L77.2464 50.37C77.0368 51.1499 77.5354 51.7815 78.3584 51.7815C78.3584 51.7815 86.7902 52.0728 89.5275 52.0728C92.2655 52.0728 100.698 51.7815 100.698 51.7815C101.52 51.7815 102.018 51.1499 101.809 50.37L100.13 44.9117C100.13 44.9117 92.1786 44.6195 89.5275 44.6195ZM89.5275 45.0495C91.8471 45.0495 98.3226 45.2772 99.8073 45.3313L101.392 50.4816C101.458 50.7207 101.426 50.9388 101.305 51.0958C101.18 51.2598 100.964 51.3505 100.684 51.3505C100.598 51.354 92.2253 51.6428 89.5275 51.6428C86.8286 51.6428 78.4578 51.354 78.3584 51.3505C78.0915 51.3505 77.8751 51.2598 77.7501 51.0958C77.6287 50.9388 77.5981 50.7207 77.6577 50.4965L79.2477 45.3313C80.7341 45.2772 87.2086 45.0495 89.5275 45.0495Z" fill="#212121"/>
<path d="M89.5276 65.4922H75.7523C75.7523 65.4922 75.9544 68.6833 79.3109 68.6833C82.667 68.6833 89.5276 68.6833 89.5276 68.6833C89.5276 68.6833 96.3878 68.6833 99.7454 68.6833C103.102 68.6833 103.304 65.4922 103.304 65.4922H89.5276Z" fill="#0F59AA"/>
<path d="M75.7523 56.5881C75.7523 56.5881 80.77 56.8803 81.2085 58.4854C81.6457 60.0906 79.8953 60.3828 79.8953 60.3828C79.8953 60.3828 74.6714 61.8571 74.2076 58.4854C73.906 56.2967 75.7523 56.5881 75.7523 56.5881Z" fill="#0F59AA"/>
<path d="M103.304 56.5881C103.304 56.5881 98.2858 56.8803 97.8472 58.4854C97.4093 60.0906 99.1602 60.3828 99.1602 60.3828C99.1602 60.3828 104.385 61.8571 104.847 58.4854C105.149 56.2967 103.304 56.5881 103.304 56.5881Z" fill="#0F59AA"/>
<path d="M94.0102 66.1822H85.0459C84.562 66.1822 84.1691 65.7906 84.1691 65.3064V63.9167C84.1691 63.4334 84.562 63.0409 85.0459 63.0409H94.0102C94.4934 63.0409 94.886 63.4334 94.886 63.9167V65.3064C94.886 65.7906 94.4934 66.1822 94.0102 66.1822Z" fill="white"/>
<path d="M85.0459 63.3078C84.7099 63.3078 84.4366 63.5818 84.4366 63.9167V65.3064C84.4366 65.6423 84.7099 65.9144 85.0459 65.9144H94.0103C94.346 65.9144 94.6186 65.6423 94.6186 65.3064V63.9167C94.6186 63.5818 94.346 63.3078 94.0103 63.3078H85.0459ZM94.0103 66.4492H85.0459C84.4151 66.4492 83.9016 65.9362 83.9016 65.3064V63.9167C83.9016 63.2869 84.4151 62.774 85.0459 62.774H94.0103C94.6397 62.774 95.1536 63.2869 95.1536 63.9167V65.3064C95.1536 65.9362 94.6397 66.4492 94.0103 66.4492Z" fill="#0F59AA"/>
<path d="M80.494 59.0403C80.494 59.6928 79.9634 60.2224 79.3109 60.2224C78.659 60.2224 78.1284 59.6928 78.1284 59.0403C78.1284 58.3869 78.659 57.8574 79.3109 57.8574C79.9634 57.8574 80.494 58.3869 80.494 59.0403Z" fill="#FFD630"/>
<path d="M77.9547 58.5055C77.9547 59.4145 77.2175 60.1525 76.3085 60.1525C75.399 60.1525 74.6619 59.4145 74.6619 58.5055C74.6619 57.5957 75.399 56.8585 76.3085 56.8585C77.2175 56.8585 77.9547 57.5957 77.9547 58.5055Z" fill="#FFD630"/>
<path d="M98.5628 59.0403C98.5628 59.6928 99.0916 60.2224 99.7453 60.2224C100.398 60.2224 100.927 59.6928 100.927 59.0403C100.927 58.3869 100.398 57.8574 99.7453 57.8574C99.0916 57.8574 98.5628 58.3869 98.5628 59.0403Z" fill="#FFD630"/>
<path d="M101.101 58.5055C101.101 59.4145 101.838 60.1525 102.747 60.1525C103.657 60.1525 104.393 59.4145 104.393 58.5055C104.393 57.5957 103.657 56.8585 102.747 56.8585C101.838 56.8585 101.101 57.5957 101.101 58.5055Z" fill="#FFD630"/>
<path d="M98.6009 60.1351C92.5842 60.9926 86.4736 60.9926 80.454 60.1351C80.5307 59.5925 80.6074 59.049 80.6854 58.5055C86.551 59.3403 92.5041 59.3403 98.3692 58.5055C98.4463 59.049 98.5244 59.5925 98.6009 60.1351Z" fill="#0F59AA"/>
<path d="M116.722 14.6244V23.8307H61.3013V14.6244C61.3013 13.0187 62.6051 11.7154 64.2103 11.7154H113.812C115.418 11.7154 116.722 13.0187 116.722 14.6244Z" fill="white"/>
<path d="M116.721 102.01V110.69C116.721 112.295 115.418 113.6 113.812 113.6H64.2102C62.6051 113.6 61.3013 112.295 61.3013 110.69V102.01H116.721Z" fill="white"/>
<path d="M110.806 17.7726C110.806 18.8084 109.966 19.6473 108.931 19.6473C107.895 19.6473 107.056 18.8084 107.056 17.7726C107.056 16.7382 107.895 15.8973 108.931 15.8973C109.966 15.8973 110.806 16.7382 110.806 17.7726Z" fill="#20222D"/>
<path d="M103.606 17.7726C103.606 18.8084 102.767 19.6473 101.73 19.6473C100.694 19.6473 99.8552 18.8084 99.8552 17.7726C99.8552 16.7382 100.694 15.8973 101.73 15.8973C102.767 15.8973 103.606 16.7382 103.606 17.7726Z" fill="#20222D"/>
<path d="M100.477 107.803C100.477 108.446 99.9585 108.963 99.3184 108.963H78.7047C78.0639 108.963 77.545 108.446 77.545 107.803C77.545 107.165 78.0639 106.646 78.7047 106.646H99.3184C99.9585 106.646 100.477 107.165 100.477 107.803Z" fill="#20222D"/>
<path d="M61.3013 99.934H116.721V98.8953H61.3013V99.934Z" fill="white"/>
<path d="M111.325 48.1441V30.4611H98.3407V31.4985H110.287V48.1441H111.325Z" fill="white"/>
<path d="M79.2726 30.4611H66.6976V48.1441H67.7357V31.4985H79.2726V30.4611Z" fill="white"/>
<path d="M98.3407 83.2423H111.325V64.62H110.287V82.2042H98.3407V83.243V83.2423Z" fill="white"/>
<path d="M66.6976 64.62V83.2423H79.2726V82.2042H67.7357V64.62H66.6976Z" fill="white"/>
<path d="M94.0543 90.7689C94.0543 93.5548 91.7965 95.8123 89.0114 95.8123C86.2256 95.8123 83.9678 93.5548 83.9678 90.7689C83.9678 87.9829 86.2256 85.726 89.0114 85.726C91.7965 85.726 94.0543 87.9829 94.0543 90.7689Z" fill="#EF2D2D"/>
<path d="M106.764 23.9804H81.9599L116.253 58.2733V33.4706L106.764 23.9804ZM98.3407 31.4985V30.461H111.325V48.1441H110.287V31.4985H98.3407Z" fill="#3B3A48" fill-opacity="0.5"/>
<path d="M111.325 30.4611H98.3407V31.4985H110.287V48.1441H111.325V30.4611Z" fill="white"/>
<path d="M116.721 99.9041V99.934L116.72 102.01H116.721V99.9041Z" fill="white"/>
<path d="M61.3013 44.7237V77.0977L66.6976 82.3713V64.62H67.7357V82.2042H79.2726V83.2423H67.5885L72.1567 87.7066H76.963V92.4036L83.6054 98.8953H115.709L108.078 91.2979V93.8317H101.059V87.7066H104.471L99.9871 83.2423H98.3407V82.2042H98.9446L61.3013 44.7237ZM89.0114 95.8123C86.2256 95.8123 83.9678 93.5548 83.9678 90.7688C83.9678 87.9828 86.2256 85.726 89.0114 85.726C91.7965 85.726 94.0543 87.9828 94.0543 90.7688C94.0543 93.5548 91.7965 95.8123 89.0114 95.8123ZM116.721 99.934H84.6677L86.7918 102.01H114.637H116.72V99.934" fill="#3B3A48" fill-opacity="0.3"/>
<path d="M115.709 98.8953H83.6054L84.6677 99.934H116.721V99.9041L115.709 98.8953Z" fill="white"/>
<path d="M98.9446 82.2042H98.3407V83.243V83.2423H99.9871L98.9446 82.2042Z" fill="white"/>
<path d="M67.7357 64.62H66.6976V82.3713L67.5885 83.2423H79.2726V82.2042H67.7357V64.62Z" fill="white"/>
<path d="M89.0114 85.726C86.2256 85.726 83.9678 87.9829 83.9678 90.7689C83.9678 93.5548 86.2256 95.8123 89.0114 95.8123C91.7965 95.8123 94.0543 93.5548 94.0543 90.7689C94.0543 87.9829 91.7965 85.726 89.0114 85.726Z" fill="#F25143"/>
<path d="M26.3837 5.07408e-06C40.9558 5.07408e-06 52.7686 11.8132 52.7686 26.3853C52.7686 28.7667 52.4475 31.0724 51.8554 33.2663L51.8612 33.2605C51.8612 33.2605 48.8124 48.2711 52.7686 56.5756C52.7686 56.5756 45.9983 54.4474 41.3005 48.1453C37.0567 51.0605 31.9205 52.769 26.3837 52.769C11.8123 52.769 -3.32402e-05 40.9567 -3.32402e-05 26.3853C-3.32402e-05 11.8132 11.8123 5.07408e-06 26.3837 5.07408e-06Z" fill="white"/>
<circle cx="26" cy="26" r="22" fill="#C1DEFD"/>
<path d="M26.4533 33.2225C26.7793 33.2225 27.1001 33.1965 27.4128 33.1496H27.412L25.2542 35.3074L25.2534 35.3082H13.6396C13.0806 35.3082 12.6281 34.8541 12.6281 34.2951V31.8835H22.591C23.6539 32.7209 24.9944 33.2225 26.4533 33.2225Z" fill="#939192"/>
<path d="M40.278 31.9241H40.2787V34.2947C40.2787 34.8544 39.8243 35.3075 39.2653 35.3075H36.8953V35.3068L40.278 31.9241Z" fill="#939192"/>
<path d="M40.2793 19.634V20.2808L32.6261 27.9333C32.6745 27.6214 32.6998 27.3014 32.6998 26.9754C32.6998 23.5261 29.9026 20.7297 26.4534 20.7297C23.0026 20.7297 20.2069 23.5261 20.2069 26.9754C20.2069 28.2497 20.5888 29.4332 21.243 30.4216H12.6281V29.6259L20.166 22.0888H20.2069V22.0479V20.2652V22.0471L23.6308 18.6225H39.2656C39.8246 18.6225 40.2793 19.075 40.2793 19.634Z" fill="#939192"/>
<path d="M35.6968 17.159H39.5367V18.6209H35.6968V17.159Z" fill="#2E2A2B"/>
<path d="M22.591 31.8835H12.6281V30.4216H21.243C21.6122 30.9784 22.0677 31.4719 22.591 31.8835Z" fill="#2E2A2B"/>
<path d="M26.4522 22.7981C24.1458 22.7981 22.2756 24.6684 22.2756 26.9747C22.2756 29.2818 24.1458 31.1513 26.4522 31.1513C28.7593 31.1513 30.6288 29.2818 30.6288 26.9747C30.6288 24.6684 28.7593 22.7981 26.4522 22.7981ZM30.1403 30.42L28.6783 31.882L27.4117 33.1479V33.1486C27.0991 33.196 26.7788 33.2218 26.4522 33.2218C24.9937 33.2218 23.6532 32.7201 22.5903 31.8827C22.067 31.4709 21.6113 30.9776 21.2428 30.4207C20.5882 29.4325 20.2058 28.249 20.2058 26.9747C20.2058 23.526 23.0021 20.7283 26.4522 20.7283C29.9023 20.7283 32.6993 23.526 32.6993 26.9747C32.6993 27.3006 32.6735 27.6202 32.626 27.9322L32.6253 27.9336L30.1403 30.42Z" fill="#2E2A2B"/>
<path d="M28.1245 26.631C27.2009 26.631 26.4534 27.3785 26.4534 28.3014C26.4534 29.2249 27.2009 29.9724 28.1245 29.9724C29.0474 29.9724 29.7956 29.2249 29.7956 28.3014C29.7956 27.3785 29.0474 26.631 28.1245 26.631ZM24.7604 24.5577C24.3398 24.5577 23.9972 24.8996 23.9972 25.321C23.9972 25.7417 24.3398 26.0842 24.7604 26.0842C25.1825 26.0842 25.5237 25.7417 25.5237 25.321C25.5237 24.8996 25.1825 24.5577 24.7604 24.5577ZM26.4534 31.1516C24.1466 31.1516 22.2761 29.2825 22.2761 26.9756C22.2761 24.6687 24.1466 22.799 26.4534 22.799C28.7603 22.799 30.6294 24.6687 30.6294 26.9756C30.6294 29.2825 28.7603 31.1516 26.4534 31.1516Z" fill="white"/>
<path d="M28.124 29.9722C27.2 29.9722 26.4528 29.225 26.4528 28.301C26.4528 27.3783 27.2 26.6311 28.124 26.6311C29.0473 26.6311 29.7952 27.3783 29.7952 28.301C29.7952 29.225 29.0473 29.9722 28.124 29.9722Z" fill="#C4C3C3"/>
<path d="M24.7597 26.0833C24.3395 26.0833 23.9968 25.7413 23.9968 25.3204C23.9968 24.8994 24.3395 24.5574 24.7597 24.5574C25.182 24.5574 25.5227 24.8994 25.5227 25.3204C25.5227 25.7413 25.182 26.0833 24.7597 26.0833Z" fill="#C4C3C3"/>
<path d="M20.2067 22.0886H20.1655L20.2067 22.0474V22.0886Z" fill="white"/>
<path d="M31.7555 18.6222H23.6314L25.7338 16.5205L25.7346 16.519H31.7555V18.6222Z" fill="#2E2A2B"/>
<path d="M27.412 33.1494C28.4984 32.9813 29.4927 32.5345 30.3176 31.883H40.2788V31.925H40.2781L36.8957 35.3074V35.308H25.2534L25.254 35.3074L27.412 33.1494Z" fill="#A9A7A8"/>
<path d="M31.6636 30.4206C32.1509 29.6854 32.486 28.8413 32.6257 27.9323L40.2783 20.2804V30.4206H31.6636Z" fill="#A9A7A8"/>
<path d="M30.3172 31.8825C30.8404 31.471 31.2955 30.9777 31.664 30.4213H40.2787V31.8825H30.3172Z" fill="#575455"/>
<path d="M31.6642 30.421C31.2956 30.9779 30.8406 31.4714 30.3171 31.8826C29.4922 32.5343 28.498 32.9813 27.4117 33.1493H27.4123V33.1487L28.6784 31.8819L30.1406 30.4204L32.6257 27.934L32.6264 27.9327C32.4865 28.8412 32.1512 29.6857 31.6642 30.421Z" fill="#575455"/>
<path d="M20.2069 20.2652H14.605V22.0888H20.1659L12.6281 29.6259V19.634C12.6281 19.075 13.0806 18.6224 13.6396 18.6224H23.6308L20.2069 22.0471V20.2652Z" fill="#A9A7A8"/>
<path d="M14.6041 20.2642H20.2062V22.0472L20.1652 22.0882H14.6041V20.2642Z" fill="white"/>
<path d="M23.6314 18.6222H20.6173V16.519H25.7345L25.7338 16.5205L23.6314 18.6222Z" fill="#575455"/>
</svg>
