<svg width="24" height="22" viewBox="0 0 24 22" fill="none" xmlns="http://www.w3.org/2000/svg">
<path d="M12.377 21.0162H1.57688L1.16344 20.5993V0.412952L1.57688 -1.31295e-05H12.377L12.7904 0.412952V9.31871L12.377 9.73607L11.9616 9.31871V0.828354H1.99033V20.1878H11.9616V18.2127L12.377 17.7958L12.7904 18.2127V20.5993L12.377 21.0162Z" fill="#303030"/>
<path d="M18.8755 21.0162H12.377L11.9615 20.5993V18.5267L12.377 18.1113L12.7904 18.5267V20.1878H18.8755L19.2865 20.5993L18.8755 21.0162Z" fill="#303030"/>
<path d="M22.1032 17.7003L21.6903 17.2849V8.4061H12.7904V9.31872L12.377 9.73608L11.9615 9.31872V7.99461L12.377 7.57725H22.1032L22.5186 7.99461V17.2849L22.1032 17.7003Z" fill="#303030"/>
<path d="M3.46578 4.57142H4.29415V2.82212H3.46578V4.57142ZM4.70759 5.39783H3.05234L2.63889 4.98486V2.40915L3.05234 1.99375H4.70759L5.12056 2.40915V4.98486L4.70759 5.39783Z" fill="#303030"/>
<path d="M6.56367 4.57142H7.39204V2.82212H6.56367V4.57142ZM7.80549 5.39783H6.15023L5.73679 4.98486V2.40915L6.15023 1.99375H7.80549L8.21893 2.40915V4.98486L7.80549 5.39783Z" fill="#303030"/>
<path d="M9.65963 4.57142H10.4865V2.82212H9.65963V4.57142ZM10.8995 5.39783H9.24423L8.83126 4.98486V2.40915L9.24423 1.99375H10.8995L11.3149 2.40915V4.98486L10.8995 5.39783Z" fill="#303030"/>
<path d="M3.46578 9.03166H4.29415V7.28675H3.46578V9.03166ZM4.70759 9.8605H3.05234L2.63889 9.44902V6.86939L3.05234 6.45791H4.70759L5.12056 6.86939V9.44902L4.70759 9.8605Z" fill="#127DF1"/>
<path d="M6.56367 9.03166H7.39204V7.28675H6.56367V9.03166ZM7.80549 9.8605H6.15023L5.73679 9.44902V6.86939L6.15023 6.45791H7.80549L8.21893 6.86939V9.44902L7.80549 9.8605Z" fill="#303030"/>
<path d="M9.65963 9.03166H10.4865V7.28675H9.65963V9.03166ZM10.8995 9.8605H9.24423L8.83126 9.44902V6.86939L9.24423 6.45791H10.8995L11.3149 6.86939V9.44902L10.8995 9.8605Z" fill="#303030"/>
<path d="M20.6738 11.6784L20.2609 11.2669V9.86052H19.1028L18.6899 9.44903L19.1028 9.03167H20.6738L21.0873 9.44903V11.2669L20.6738 11.6784Z" fill="#2B8CD6"/>
<path d="M14.5201 14.5044H15.8692V12.878H14.5201V14.5044ZM16.2826 15.3333H14.1047L13.6917 14.9159V12.4626L14.1047 12.0512H16.2826L16.6956 12.4626V14.9159L16.2826 15.3333Z" fill="#127DF1"/>
<path d="M20.6739 15.6678L20.2609 15.2563V13.1078L20.6739 12.6924L21.0873 13.1078V15.2563L20.6739 15.6678Z" fill="#303030"/>
<path d="M16.0588 19.6577H14.1547L13.7393 19.2463V18.9401L14.1547 18.5267L14.5525 18.8289H15.6797L16.0588 18.5898L16.4718 19.0013V19.2463L16.0588 19.6577Z" fill="#303030"/>
<path d="M3.46578 13.4963H4.29415V11.7489H3.46578V13.4963ZM4.70759 14.3227H3.05234L2.63889 13.9112V11.3335L3.05234 10.9225H4.70759L5.12056 11.3335V13.9112L4.70759 14.3227Z" fill="#303030"/>
<path d="M6.56367 13.4963H7.39204V11.7489H6.56367V13.4963ZM7.80549 14.3227H6.15023L5.73679 13.9112V11.3335L6.15023 10.9225H7.80549L8.21893 11.3335V13.9112L7.80549 14.3227Z" fill="#303030"/>
<path d="M9.97755 14.3227H9.24423L8.83126 13.9112V11.3335L9.24423 10.9225H10.5149L10.9303 11.3335L10.5149 11.7489H9.65963V13.4963H9.97755L10.3905 13.9112L9.97755 14.3227Z" fill="#303030"/>
<path d="M3.46578 17.9584H4.29415V16.213H3.46578V17.9584ZM4.70759 18.7867H3.05234L2.63889 18.3699V15.7961L3.05234 15.3846H4.70759L5.12056 15.7961V18.3699L4.70759 18.7867Z" fill="#303030"/>
<path d="M6.56367 17.9584H7.39204V16.213H6.56367V17.9584ZM7.80549 18.7867H6.15023L5.73679 18.3699V15.7961L6.15023 15.3846H7.80549L8.21893 15.7961V18.3699L7.80549 18.7867Z" fill="#127DF1"/>
<path d="M9.65963 17.9584H10.4865V16.213H9.65963V17.9584ZM10.8995 18.7867H9.24423L8.83126 18.3699V15.7961L9.24423 15.3846H10.8995L11.3149 15.7961V18.3699L10.8995 18.7867Z" fill="#303030"/>
<path d="M15.1937 9.97312C14.2027 9.97312 13.2685 10.3616 12.5666 11.0601C11.8621 11.7641 11.4776 12.6963 11.4776 13.6912C11.4776 14.6822 11.8621 15.6198 12.5666 16.3184C13.2685 17.0208 14.2027 17.4093 15.1937 17.4093C16.1867 17.4093 17.1209 17.0208 17.8228 16.3184C18.5273 15.6198 18.9118 14.6822 18.9118 13.6912C18.9118 12.6963 18.5273 11.7641 17.8228 11.0601C17.1209 10.3616 16.1867 9.97312 15.1937 9.97312ZM15.1937 18.2357C13.9784 18.2357 12.838 17.763 11.9787 16.9057C10.2069 15.1319 10.2069 12.2466 11.9787 10.4762C12.838 9.62091 13.9784 9.14671 15.1937 9.14671C16.4086 9.14671 17.5495 9.62091 18.4082 10.4762C20.1786 12.2466 20.1786 15.1319 18.4082 16.9057C17.5495 17.763 16.4086 18.2357 15.1937 18.2357Z" fill="#303030"/>
<path d="M17.9683 17.2888L20.6968 20.0154H21.5218L21.6903 19.6039L21.5218 19.1983L18.7913 16.4658L18.4082 16.9057L17.9683 17.2888ZM21.1083 21.0162L20.1154 20.5993L17.0307 17.5181L16.9121 17.1737L17.1091 16.8734L17.8228 16.3184L18.3759 15.6047L18.6781 15.4097L19.0205 15.5282L22.1033 18.609L22.5187 19.6039L22.1033 20.5993L21.1083 21.0162Z" fill="#303030"/>
<path d="M23.5846 21.0162H0.415402L0 20.5993L0.415402 20.1878H23.5846L24 20.5993L23.5846 21.0162Z" fill="#303030"/>
</svg>
